M48
;DRILL file {KiCad (5.0.2)-1} date 05/05/2019 23:40:44
;FORMAT={-:-/ absolute / metric / decimal}
FMAT,2
METRIC,TZ
T1C0.254
T2C0.400
T3C0.600
T4C0.800
T5C0.850
%
G90
G05
T1
X29.2Y-181.6
X33.4Y-181.
X34.1Y-181.
X34.8Y-181.
X35.6Y-183.6
X36.183Y-184.255
X36.884Y-183.8
X37.219Y-184.587
T2
X23.Y-185.8
X24.Y-185.8
X26.6Y-186.
X27.594Y-185.98
X29.067Y-180.062
X30.2Y-186.
X30.387Y-180.971
X31.4Y-175.8
X31.4Y-186.
X33.2Y-186.112
X33.4Y-175.8
X34.429Y-178.52
X36.8Y-174.8
T4
X38.9Y-175.8
X26.8Y-184.
X38.9Y-178.2
X38.6Y-173.4
T5
X24.462Y-178.5
X24.462Y-183.5
T3
X21.412Y-177.5G85X22.113Y-177.5
G05
X22.113Y-184.5G85X21.412Y-184.5
G05
T0
M30
