G04 #@! TF.GenerationSoftware,KiCad,Pcbnew,(5.0.2)-1*
G04 #@! TF.CreationDate,2019-05-05T23:42:24+01:00*
G04 #@! TF.ProjectId,power-bank-upgrade,706f7765-722d-4626-916e-6b2d75706772,rev?*
G04 #@! TF.SameCoordinates,Original*
G04 #@! TF.FileFunction,Soldermask,Bot*
G04 #@! TF.FilePolarity,Negative*
%FSLAX46Y46*%
G04 Gerber Fmt 4.6, Leading zero omitted, Abs format (unit mm)*
G04 Created by KiCad (PCBNEW (5.0.2)-1) date 05/05/2019 23:42:24*
%MOMM*%
%LPD*%
G01*
G04 APERTURE LIST*
%ADD10C,0.100000*%
G04 APERTURE END LIST*
D10*
G36*
X21200800Y-189550800D02*
X20199200Y-189550800D01*
X20199200Y-188449200D01*
X21200800Y-188449200D01*
X21200800Y-189550800D01*
X21200800Y-189550800D01*
G37*
G36*
X23600800Y-189550800D02*
X22599200Y-189550800D01*
X22599200Y-188449200D01*
X23600800Y-188449200D01*
X23600800Y-189550800D01*
X23600800Y-189550800D01*
G37*
G36*
X27400800Y-189550800D02*
X26399200Y-189550800D01*
X26399200Y-188449200D01*
X27400800Y-188449200D01*
X27400800Y-189550800D01*
X27400800Y-189550800D01*
G37*
G36*
X25000800Y-189550800D02*
X23999200Y-189550800D01*
X23999200Y-188449200D01*
X25000800Y-188449200D01*
X25000800Y-189550800D01*
X25000800Y-189550800D01*
G37*
G36*
X35000800Y-189550800D02*
X33999200Y-189550800D01*
X33999200Y-188449200D01*
X35000800Y-188449200D01*
X35000800Y-189550800D01*
X35000800Y-189550800D01*
G37*
G36*
X31200800Y-189550800D02*
X30199200Y-189550800D01*
X30199200Y-188449200D01*
X31200800Y-188449200D01*
X31200800Y-189550800D01*
X31200800Y-189550800D01*
G37*
G36*
X28800800Y-189550800D02*
X27799200Y-189550800D01*
X27799200Y-188449200D01*
X28800800Y-188449200D01*
X28800800Y-189550800D01*
X28800800Y-189550800D01*
G37*
G36*
X32600800Y-189550800D02*
X31599200Y-189550800D01*
X31599200Y-188449200D01*
X32600800Y-188449200D01*
X32600800Y-189550800D01*
X32600800Y-189550800D01*
G37*
G36*
X36555800Y-188800800D02*
X35474200Y-188800800D01*
X35474200Y-184999200D01*
X36555800Y-184999200D01*
X36555800Y-188800800D01*
X36555800Y-188800800D01*
G37*
G36*
X38925800Y-188800800D02*
X37844200Y-188800800D01*
X37844200Y-184999200D01*
X38925800Y-184999200D01*
X38925800Y-188800800D01*
X38925800Y-188800800D01*
G37*
G36*
X23109348Y-186453764D02*
X23148000Y-186465489D01*
X23183624Y-186484530D01*
X23214846Y-186510154D01*
X23240470Y-186541376D01*
X23259511Y-186577000D01*
X23271236Y-186615652D01*
X23275800Y-186661991D01*
X23275800Y-187738009D01*
X23271236Y-187784348D01*
X23259511Y-187823000D01*
X23240470Y-187858624D01*
X23214846Y-187889846D01*
X23183624Y-187915470D01*
X23148000Y-187934511D01*
X23109348Y-187946236D01*
X23063009Y-187950800D01*
X22411991Y-187950800D01*
X22365652Y-187946236D01*
X22327000Y-187934511D01*
X22291376Y-187915470D01*
X22260154Y-187889846D01*
X22234530Y-187858624D01*
X22215489Y-187823000D01*
X22203764Y-187784348D01*
X22199200Y-187738009D01*
X22199200Y-186661991D01*
X22203764Y-186615652D01*
X22215489Y-186577000D01*
X22234530Y-186541376D01*
X22260154Y-186510154D01*
X22291376Y-186484530D01*
X22327000Y-186465489D01*
X22365652Y-186453764D01*
X22411991Y-186449200D01*
X23063009Y-186449200D01*
X23109348Y-186453764D01*
X23109348Y-186453764D01*
G37*
G36*
X26909348Y-186453764D02*
X26948000Y-186465489D01*
X26983624Y-186484530D01*
X27014846Y-186510154D01*
X27040470Y-186541376D01*
X27059511Y-186577000D01*
X27071236Y-186615652D01*
X27075800Y-186661991D01*
X27075800Y-187738009D01*
X27071236Y-187784348D01*
X27059511Y-187823000D01*
X27040470Y-187858624D01*
X27014846Y-187889846D01*
X26983624Y-187915470D01*
X26948000Y-187934511D01*
X26909348Y-187946236D01*
X26863009Y-187950800D01*
X26211991Y-187950800D01*
X26165652Y-187946236D01*
X26127000Y-187934511D01*
X26091376Y-187915470D01*
X26060154Y-187889846D01*
X26034530Y-187858624D01*
X26015489Y-187823000D01*
X26003764Y-187784348D01*
X25999200Y-187738009D01*
X25999200Y-186661991D01*
X26003764Y-186615652D01*
X26015489Y-186577000D01*
X26034530Y-186541376D01*
X26060154Y-186510154D01*
X26091376Y-186484530D01*
X26127000Y-186465489D01*
X26165652Y-186453764D01*
X26211991Y-186449200D01*
X26863009Y-186449200D01*
X26909348Y-186453764D01*
X26909348Y-186453764D01*
G37*
G36*
X28634348Y-186453764D02*
X28673000Y-186465489D01*
X28708624Y-186484530D01*
X28739846Y-186510154D01*
X28765470Y-186541376D01*
X28784511Y-186577000D01*
X28796236Y-186615652D01*
X28800800Y-186661991D01*
X28800800Y-187738009D01*
X28796236Y-187784348D01*
X28784511Y-187823000D01*
X28765470Y-187858624D01*
X28739846Y-187889846D01*
X28708624Y-187915470D01*
X28673000Y-187934511D01*
X28634348Y-187946236D01*
X28588009Y-187950800D01*
X27936991Y-187950800D01*
X27890652Y-187946236D01*
X27852000Y-187934511D01*
X27816376Y-187915470D01*
X27785154Y-187889846D01*
X27759530Y-187858624D01*
X27740489Y-187823000D01*
X27728764Y-187784348D01*
X27724200Y-187738009D01*
X27724200Y-186661991D01*
X27728764Y-186615652D01*
X27740489Y-186577000D01*
X27759530Y-186541376D01*
X27785154Y-186510154D01*
X27816376Y-186484530D01*
X27852000Y-186465489D01*
X27890652Y-186453764D01*
X27936991Y-186449200D01*
X28588009Y-186449200D01*
X28634348Y-186453764D01*
X28634348Y-186453764D01*
G37*
G36*
X30509348Y-186453764D02*
X30548000Y-186465489D01*
X30583624Y-186484530D01*
X30614846Y-186510154D01*
X30640470Y-186541376D01*
X30659511Y-186577000D01*
X30671236Y-186615652D01*
X30675800Y-186661991D01*
X30675800Y-187738009D01*
X30671236Y-187784348D01*
X30659511Y-187823000D01*
X30640470Y-187858624D01*
X30614846Y-187889846D01*
X30583624Y-187915470D01*
X30548000Y-187934511D01*
X30509348Y-187946236D01*
X30463009Y-187950800D01*
X29811991Y-187950800D01*
X29765652Y-187946236D01*
X29727000Y-187934511D01*
X29691376Y-187915470D01*
X29660154Y-187889846D01*
X29634530Y-187858624D01*
X29615489Y-187823000D01*
X29603764Y-187784348D01*
X29599200Y-187738009D01*
X29599200Y-186661991D01*
X29603764Y-186615652D01*
X29615489Y-186577000D01*
X29634530Y-186541376D01*
X29660154Y-186510154D01*
X29691376Y-186484530D01*
X29727000Y-186465489D01*
X29765652Y-186453764D01*
X29811991Y-186449200D01*
X30463009Y-186449200D01*
X30509348Y-186453764D01*
X30509348Y-186453764D01*
G37*
G36*
X25034348Y-186453764D02*
X25073000Y-186465489D01*
X25108624Y-186484530D01*
X25139846Y-186510154D01*
X25165470Y-186541376D01*
X25184511Y-186577000D01*
X25196236Y-186615652D01*
X25200800Y-186661991D01*
X25200800Y-187738009D01*
X25196236Y-187784348D01*
X25184511Y-187823000D01*
X25165470Y-187858624D01*
X25139846Y-187889846D01*
X25108624Y-187915470D01*
X25073000Y-187934511D01*
X25034348Y-187946236D01*
X24988009Y-187950800D01*
X24336991Y-187950800D01*
X24290652Y-187946236D01*
X24252000Y-187934511D01*
X24216376Y-187915470D01*
X24185154Y-187889846D01*
X24159530Y-187858624D01*
X24140489Y-187823000D01*
X24128764Y-187784348D01*
X24124200Y-187738009D01*
X24124200Y-186661991D01*
X24128764Y-186615652D01*
X24140489Y-186577000D01*
X24159530Y-186541376D01*
X24185154Y-186510154D01*
X24216376Y-186484530D01*
X24252000Y-186465489D01*
X24290652Y-186453764D01*
X24336991Y-186449200D01*
X24988009Y-186449200D01*
X25034348Y-186453764D01*
X25034348Y-186453764D01*
G37*
G36*
X34309348Y-186453764D02*
X34348000Y-186465489D01*
X34383624Y-186484530D01*
X34414846Y-186510154D01*
X34440470Y-186541376D01*
X34459511Y-186577000D01*
X34471236Y-186615652D01*
X34475800Y-186661991D01*
X34475800Y-187738009D01*
X34471236Y-187784348D01*
X34459511Y-187823000D01*
X34440470Y-187858624D01*
X34414846Y-187889846D01*
X34383624Y-187915470D01*
X34348000Y-187934511D01*
X34309348Y-187946236D01*
X34263009Y-187950800D01*
X33611991Y-187950800D01*
X33565652Y-187946236D01*
X33527000Y-187934511D01*
X33491376Y-187915470D01*
X33460154Y-187889846D01*
X33434530Y-187858624D01*
X33415489Y-187823000D01*
X33403764Y-187784348D01*
X33399200Y-187738009D01*
X33399200Y-186661991D01*
X33403764Y-186615652D01*
X33415489Y-186577000D01*
X33434530Y-186541376D01*
X33460154Y-186510154D01*
X33491376Y-186484530D01*
X33527000Y-186465489D01*
X33565652Y-186453764D01*
X33611991Y-186449200D01*
X34263009Y-186449200D01*
X34309348Y-186453764D01*
X34309348Y-186453764D01*
G37*
G36*
X32434348Y-186453764D02*
X32473000Y-186465489D01*
X32508624Y-186484530D01*
X32539846Y-186510154D01*
X32565470Y-186541376D01*
X32584511Y-186577000D01*
X32596236Y-186615652D01*
X32600800Y-186661991D01*
X32600800Y-187738009D01*
X32596236Y-187784348D01*
X32584511Y-187823000D01*
X32565470Y-187858624D01*
X32539846Y-187889846D01*
X32508624Y-187915470D01*
X32473000Y-187934511D01*
X32434348Y-187946236D01*
X32388009Y-187950800D01*
X31736991Y-187950800D01*
X31690652Y-187946236D01*
X31652000Y-187934511D01*
X31616376Y-187915470D01*
X31585154Y-187889846D01*
X31559530Y-187858624D01*
X31540489Y-187823000D01*
X31528764Y-187784348D01*
X31524200Y-187738009D01*
X31524200Y-186661991D01*
X31528764Y-186615652D01*
X31540489Y-186577000D01*
X31559530Y-186541376D01*
X31585154Y-186510154D01*
X31616376Y-186484530D01*
X31652000Y-186465489D01*
X31690652Y-186453764D01*
X31736991Y-186449200D01*
X32388009Y-186449200D01*
X32434348Y-186453764D01*
X32434348Y-186453764D01*
G37*
G36*
X21234348Y-186453764D02*
X21273000Y-186465489D01*
X21308624Y-186484530D01*
X21339846Y-186510154D01*
X21365470Y-186541376D01*
X21384511Y-186577000D01*
X21396236Y-186615652D01*
X21400800Y-186661991D01*
X21400800Y-187738009D01*
X21396236Y-187784348D01*
X21384511Y-187823000D01*
X21365470Y-187858624D01*
X21339846Y-187889846D01*
X21308624Y-187915470D01*
X21273000Y-187934511D01*
X21234348Y-187946236D01*
X21188009Y-187950800D01*
X20536991Y-187950800D01*
X20490652Y-187946236D01*
X20452000Y-187934511D01*
X20416376Y-187915470D01*
X20385154Y-187889846D01*
X20359530Y-187858624D01*
X20340489Y-187823000D01*
X20328764Y-187784348D01*
X20324200Y-187738009D01*
X20324200Y-186661991D01*
X20328764Y-186615652D01*
X20340489Y-186577000D01*
X20359530Y-186541376D01*
X20385154Y-186510154D01*
X20416376Y-186484530D01*
X20452000Y-186465489D01*
X20490652Y-186453764D01*
X20536991Y-186449200D01*
X21188009Y-186449200D01*
X21234348Y-186453764D01*
X21234348Y-186453764D01*
G37*
G36*
X22763300Y-184461895D02*
X22763902Y-184474147D01*
X22766448Y-184500000D01*
X22763902Y-184525853D01*
X22763300Y-184538105D01*
X22763300Y-184611949D01*
X22750263Y-184639514D01*
X22716670Y-184750255D01*
X22656239Y-184863314D01*
X22574911Y-184962411D01*
X22475814Y-185043739D01*
X22362758Y-185104168D01*
X22362755Y-185104169D01*
X22240079Y-185141383D01*
X22192271Y-185146091D01*
X22144465Y-185150800D01*
X21380535Y-185150800D01*
X21332729Y-185146091D01*
X21284921Y-185141383D01*
X21162245Y-185104169D01*
X21162242Y-185104168D01*
X21049186Y-185043739D01*
X20950089Y-184962411D01*
X20868761Y-184863314D01*
X20808330Y-184750255D01*
X20774737Y-184639514D01*
X20765360Y-184616875D01*
X20761700Y-184611398D01*
X20761700Y-184538105D01*
X20761098Y-184525853D01*
X20758552Y-184500000D01*
X20761098Y-184474147D01*
X20761700Y-184461895D01*
X20761700Y-183249200D01*
X22763300Y-183249200D01*
X22763300Y-184461895D01*
X22763300Y-184461895D01*
G37*
G36*
X27106357Y-182990071D02*
X27297500Y-183069245D01*
X27469524Y-183184188D01*
X27615812Y-183330476D01*
X27730755Y-183502500D01*
X27809929Y-183693643D01*
X27850290Y-183896554D01*
X27850290Y-184103446D01*
X27809929Y-184306357D01*
X27730755Y-184497500D01*
X27615812Y-184669524D01*
X27469524Y-184815812D01*
X27297500Y-184930755D01*
X27106357Y-185009929D01*
X26903446Y-185050290D01*
X26696554Y-185050290D01*
X26493643Y-185009929D01*
X26302500Y-184930755D01*
X26130476Y-184815812D01*
X25984188Y-184669524D01*
X25869245Y-184497500D01*
X25790071Y-184306357D01*
X25749710Y-184103446D01*
X25749710Y-183896554D01*
X25790071Y-183693643D01*
X25869245Y-183502500D01*
X25984188Y-183330476D01*
X26130476Y-183184188D01*
X26302500Y-183069245D01*
X26493643Y-182990071D01*
X26696554Y-182949710D01*
X26903446Y-182949710D01*
X27106357Y-182990071D01*
X27106357Y-182990071D01*
G37*
G36*
X24688793Y-177754013D02*
X24829978Y-177812494D01*
X24957047Y-177897399D01*
X25065101Y-178005453D01*
X25150006Y-178132522D01*
X25208487Y-178273707D01*
X25238300Y-178423589D01*
X25238300Y-178576411D01*
X25208487Y-178726293D01*
X25150006Y-178867478D01*
X25065101Y-178994547D01*
X24957047Y-179102601D01*
X24829978Y-179187506D01*
X24778775Y-179208715D01*
X24757164Y-179220266D01*
X24738222Y-179235812D01*
X24722676Y-179254754D01*
X24711125Y-179276364D01*
X24704012Y-179299814D01*
X24701610Y-179324200D01*
X24704012Y-179348586D01*
X24711125Y-179372035D01*
X24722676Y-179393646D01*
X24738222Y-179412588D01*
X24757164Y-179428134D01*
X24778774Y-179439685D01*
X24802224Y-179446798D01*
X24826610Y-179449200D01*
X25188300Y-179449200D01*
X25188300Y-182550800D01*
X24826610Y-182550800D01*
X24802224Y-182553202D01*
X24778775Y-182560315D01*
X24757164Y-182571866D01*
X24738222Y-182587412D01*
X24722676Y-182606354D01*
X24711125Y-182627965D01*
X24704012Y-182651414D01*
X24701610Y-182675800D01*
X24704012Y-182700186D01*
X24711125Y-182723635D01*
X24722676Y-182745246D01*
X24738222Y-182764188D01*
X24757164Y-182779734D01*
X24778775Y-182791285D01*
X24829978Y-182812494D01*
X24957047Y-182897399D01*
X25065101Y-183005453D01*
X25150006Y-183132522D01*
X25208487Y-183273707D01*
X25238300Y-183423589D01*
X25238300Y-183576411D01*
X25208487Y-183726293D01*
X25150006Y-183867478D01*
X25065101Y-183994547D01*
X24957047Y-184102601D01*
X24829978Y-184187506D01*
X24688793Y-184245987D01*
X24538911Y-184275800D01*
X24386089Y-184275800D01*
X24236207Y-184245987D01*
X24095022Y-184187506D01*
X23967953Y-184102601D01*
X23859899Y-183994547D01*
X23774994Y-183867478D01*
X23716513Y-183726293D01*
X23686700Y-183576411D01*
X23686700Y-183423589D01*
X23716513Y-183273707D01*
X23774994Y-183132522D01*
X23859899Y-183005453D01*
X23967953Y-182897399D01*
X24095022Y-182812494D01*
X24146225Y-182791285D01*
X24167836Y-182779734D01*
X24186778Y-182764188D01*
X24202324Y-182745246D01*
X24213875Y-182723636D01*
X24220988Y-182700186D01*
X24223390Y-182675800D01*
X24220988Y-182651414D01*
X24213875Y-182627965D01*
X24202324Y-182606354D01*
X24186778Y-182587412D01*
X24167836Y-182571866D01*
X24146226Y-182560315D01*
X24122776Y-182553202D01*
X24098390Y-182550800D01*
X23736700Y-182550800D01*
X23736700Y-179449200D01*
X24098390Y-179449200D01*
X24122776Y-179446798D01*
X24146225Y-179439685D01*
X24167836Y-179428134D01*
X24186778Y-179412588D01*
X24202324Y-179393646D01*
X24213875Y-179372035D01*
X24220988Y-179348586D01*
X24223390Y-179324200D01*
X24220988Y-179299814D01*
X24213875Y-179276365D01*
X24202324Y-179254754D01*
X24186778Y-179235812D01*
X24167836Y-179220266D01*
X24146225Y-179208715D01*
X24095022Y-179187506D01*
X23967953Y-179102601D01*
X23859899Y-178994547D01*
X23774994Y-178867478D01*
X23716513Y-178726293D01*
X23686700Y-178576411D01*
X23686700Y-178423589D01*
X23716513Y-178273707D01*
X23774994Y-178132522D01*
X23859899Y-178005453D01*
X23967953Y-177897399D01*
X24095022Y-177812494D01*
X24236207Y-177754013D01*
X24386089Y-177724200D01*
X24538911Y-177724200D01*
X24688793Y-177754013D01*
X24688793Y-177754013D01*
G37*
G36*
X30354416Y-182826131D02*
X30481952Y-182878958D01*
X30596737Y-182955655D01*
X30694345Y-183053263D01*
X30771042Y-183168048D01*
X30823869Y-183295584D01*
X30850800Y-183430976D01*
X30850800Y-183569024D01*
X30823869Y-183704416D01*
X30771042Y-183831952D01*
X30694345Y-183946737D01*
X30596737Y-184044345D01*
X30481952Y-184121042D01*
X30354416Y-184173869D01*
X30219024Y-184200800D01*
X30080976Y-184200800D01*
X29945584Y-184173869D01*
X29818048Y-184121042D01*
X29703263Y-184044345D01*
X29605655Y-183946737D01*
X29528958Y-183831952D01*
X29476131Y-183704416D01*
X29449200Y-183569024D01*
X29449200Y-183430976D01*
X29476131Y-183295584D01*
X29528958Y-183168048D01*
X29605655Y-183053263D01*
X29703263Y-182955655D01*
X29818048Y-182878958D01*
X29945584Y-182826131D01*
X30080976Y-182799200D01*
X30219024Y-182799200D01*
X30354416Y-182826131D01*
X30354416Y-182826131D01*
G37*
G36*
X35150800Y-180074200D02*
X35153202Y-180098586D01*
X35160315Y-180122035D01*
X35171866Y-180143646D01*
X35187412Y-180162588D01*
X35206354Y-180178134D01*
X35227965Y-180189685D01*
X35251414Y-180196798D01*
X35275800Y-180199200D01*
X36150800Y-180199200D01*
X36150800Y-183000800D01*
X35226651Y-183000800D01*
X35202265Y-183003202D01*
X35178816Y-183010315D01*
X35157205Y-183021866D01*
X35138263Y-183037412D01*
X35122717Y-183056354D01*
X35111166Y-183077965D01*
X35104053Y-183101414D01*
X35101651Y-183125800D01*
X35101651Y-183893862D01*
X35100066Y-183909956D01*
X35097160Y-183919535D01*
X35092444Y-183928359D01*
X35086095Y-183936095D01*
X35078359Y-183942444D01*
X35069535Y-183947160D01*
X35059956Y-183950066D01*
X35043862Y-183951651D01*
X34756138Y-183951651D01*
X34740044Y-183950066D01*
X34725844Y-183945758D01*
X34712082Y-183940058D01*
X34688049Y-183935279D01*
X34663544Y-183935279D01*
X34639511Y-183940060D01*
X34616872Y-183949439D01*
X34614835Y-183950800D01*
X32499200Y-183950800D01*
X32499200Y-183125800D01*
X32496798Y-183101414D01*
X32489685Y-183077965D01*
X32478134Y-183056354D01*
X32462588Y-183037412D01*
X32443646Y-183021866D01*
X32422035Y-183010315D01*
X32398586Y-183003202D01*
X32374200Y-183000800D01*
X31449200Y-183000800D01*
X31449200Y-180525800D01*
X32250800Y-180525800D01*
X32250800Y-181924200D01*
X32253202Y-181948586D01*
X32260315Y-181972035D01*
X32271866Y-181993646D01*
X32287412Y-182012588D01*
X32306354Y-182028134D01*
X32327965Y-182039685D01*
X32351414Y-182046798D01*
X32375800Y-182049200D01*
X34615602Y-182049200D01*
X34627965Y-182055808D01*
X34651414Y-182062921D01*
X34675800Y-182065323D01*
X34700186Y-182062921D01*
X34718657Y-182056313D01*
X34718687Y-182056413D01*
X34740044Y-182049934D01*
X34756138Y-182048349D01*
X34893862Y-182048349D01*
X34909956Y-182049934D01*
X34919535Y-182052840D01*
X34928359Y-182057556D01*
X34940871Y-182067825D01*
X35082175Y-182209129D01*
X35092444Y-182221641D01*
X35097160Y-182230465D01*
X35100848Y-182242620D01*
X35104582Y-182261397D01*
X35113960Y-182284036D01*
X35127573Y-182304411D01*
X35144900Y-182321738D01*
X35165275Y-182335352D01*
X35187914Y-182344729D01*
X35211947Y-182349510D01*
X35236451Y-182349510D01*
X35260485Y-182344730D01*
X35283124Y-182335352D01*
X35303499Y-182321739D01*
X35320826Y-182304412D01*
X35334440Y-182284037D01*
X35343817Y-182261398D01*
X35348598Y-182237365D01*
X35349200Y-182225112D01*
X35349200Y-180525800D01*
X35346798Y-180501414D01*
X35339685Y-180477965D01*
X35328134Y-180456354D01*
X35312588Y-180437412D01*
X35293646Y-180421866D01*
X35272035Y-180410315D01*
X35248586Y-180403202D01*
X35224200Y-180400800D01*
X32375800Y-180400800D01*
X32351414Y-180403202D01*
X32327965Y-180410315D01*
X32306354Y-180421866D01*
X32287412Y-180437412D01*
X32271866Y-180456354D01*
X32260315Y-180477965D01*
X32253202Y-180501414D01*
X32250800Y-180525800D01*
X31449200Y-180525800D01*
X31449200Y-180199200D01*
X32324200Y-180199200D01*
X32348586Y-180196798D01*
X32372035Y-180189685D01*
X32393646Y-180178134D01*
X32412588Y-180162588D01*
X32428134Y-180143646D01*
X32439685Y-180122035D01*
X32446798Y-180098586D01*
X32449200Y-180074200D01*
X32449200Y-179249200D01*
X35150800Y-179249200D01*
X35150800Y-180074200D01*
X35150800Y-180074200D01*
G37*
G36*
X22763300Y-182800800D02*
X20761700Y-182800800D01*
X20761700Y-181199200D01*
X22763300Y-181199200D01*
X22763300Y-182800800D01*
X22763300Y-182800800D01*
G37*
G36*
X27584348Y-181403764D02*
X27623000Y-181415489D01*
X27658624Y-181434530D01*
X27689846Y-181460154D01*
X27715470Y-181491376D01*
X27734511Y-181527000D01*
X27746236Y-181565652D01*
X27750800Y-181611991D01*
X27750800Y-182263009D01*
X27746236Y-182309348D01*
X27734511Y-182348000D01*
X27715470Y-182383624D01*
X27689846Y-182414846D01*
X27658624Y-182440470D01*
X27623000Y-182459511D01*
X27584348Y-182471236D01*
X27538009Y-182475800D01*
X26461991Y-182475800D01*
X26415652Y-182471236D01*
X26377000Y-182459511D01*
X26341376Y-182440470D01*
X26310154Y-182414846D01*
X26284530Y-182383624D01*
X26265489Y-182348000D01*
X26253764Y-182309348D01*
X26249200Y-182263009D01*
X26249200Y-181611991D01*
X26253764Y-181565652D01*
X26265489Y-181527000D01*
X26284530Y-181491376D01*
X26310154Y-181460154D01*
X26341376Y-181434530D01*
X26377000Y-181415489D01*
X26415652Y-181403764D01*
X26461991Y-181399200D01*
X27538009Y-181399200D01*
X27584348Y-181403764D01*
X27584348Y-181403764D01*
G37*
G36*
X38784348Y-181403764D02*
X38823000Y-181415489D01*
X38858624Y-181434530D01*
X38889846Y-181460154D01*
X38915470Y-181491376D01*
X38934511Y-181527000D01*
X38946236Y-181565652D01*
X38950800Y-181611991D01*
X38950800Y-182263009D01*
X38946236Y-182309348D01*
X38934511Y-182348000D01*
X38915470Y-182383624D01*
X38889846Y-182414846D01*
X38858624Y-182440470D01*
X38823000Y-182459511D01*
X38784348Y-182471236D01*
X38738009Y-182475800D01*
X37661991Y-182475800D01*
X37615652Y-182471236D01*
X37577000Y-182459511D01*
X37541376Y-182440470D01*
X37510154Y-182414846D01*
X37484530Y-182383624D01*
X37465489Y-182348000D01*
X37453764Y-182309348D01*
X37449200Y-182263009D01*
X37449200Y-181611991D01*
X37453764Y-181565652D01*
X37465489Y-181527000D01*
X37484530Y-181491376D01*
X37510154Y-181460154D01*
X37541376Y-181434530D01*
X37577000Y-181415489D01*
X37615652Y-181403764D01*
X37661991Y-181399200D01*
X38738009Y-181399200D01*
X38784348Y-181403764D01*
X38784348Y-181403764D01*
G37*
G36*
X22763300Y-180800800D02*
X20761700Y-180800800D01*
X20761700Y-179199200D01*
X22763300Y-179199200D01*
X22763300Y-180800800D01*
X22763300Y-180800800D01*
G37*
G36*
X38784348Y-179528764D02*
X38823000Y-179540489D01*
X38858624Y-179559530D01*
X38889846Y-179585154D01*
X38915470Y-179616376D01*
X38934511Y-179652000D01*
X38946236Y-179690652D01*
X38950800Y-179736991D01*
X38950800Y-180388009D01*
X38946236Y-180434348D01*
X38934511Y-180473000D01*
X38915470Y-180508624D01*
X38889846Y-180539846D01*
X38858624Y-180565470D01*
X38823000Y-180584511D01*
X38784348Y-180596236D01*
X38738009Y-180600800D01*
X37661991Y-180600800D01*
X37615652Y-180596236D01*
X37577000Y-180584511D01*
X37541376Y-180565470D01*
X37510154Y-180539846D01*
X37484530Y-180508624D01*
X37465489Y-180473000D01*
X37453764Y-180434348D01*
X37449200Y-180388009D01*
X37449200Y-179736991D01*
X37453764Y-179690652D01*
X37465489Y-179652000D01*
X37484530Y-179616376D01*
X37510154Y-179585154D01*
X37541376Y-179559530D01*
X37577000Y-179540489D01*
X37615652Y-179528764D01*
X37661991Y-179524200D01*
X38738009Y-179524200D01*
X38784348Y-179528764D01*
X38784348Y-179528764D01*
G37*
G36*
X27584348Y-179528764D02*
X27623000Y-179540489D01*
X27658624Y-179559530D01*
X27689846Y-179585154D01*
X27715470Y-179616376D01*
X27734511Y-179652000D01*
X27746236Y-179690652D01*
X27750800Y-179736991D01*
X27750800Y-180388009D01*
X27746236Y-180434348D01*
X27734511Y-180473000D01*
X27715470Y-180508624D01*
X27689846Y-180539846D01*
X27658624Y-180565470D01*
X27623000Y-180584511D01*
X27584348Y-180596236D01*
X27538009Y-180600800D01*
X26461991Y-180600800D01*
X26415652Y-180596236D01*
X26377000Y-180584511D01*
X26341376Y-180565470D01*
X26310154Y-180539846D01*
X26284530Y-180508624D01*
X26265489Y-180473000D01*
X26253764Y-180434348D01*
X26249200Y-180388009D01*
X26249200Y-179736991D01*
X26253764Y-179690652D01*
X26265489Y-179652000D01*
X26284530Y-179616376D01*
X26310154Y-179585154D01*
X26341376Y-179559530D01*
X26377000Y-179540489D01*
X26415652Y-179528764D01*
X26461991Y-179524200D01*
X27538009Y-179524200D01*
X27584348Y-179528764D01*
X27584348Y-179528764D01*
G37*
G36*
X39206357Y-177190071D02*
X39397500Y-177269245D01*
X39569524Y-177384188D01*
X39715812Y-177530476D01*
X39830755Y-177702500D01*
X39909929Y-177893643D01*
X39950290Y-178096554D01*
X39950290Y-178303446D01*
X39909929Y-178506357D01*
X39830755Y-178697500D01*
X39715812Y-178869524D01*
X39569524Y-179015812D01*
X39397500Y-179130755D01*
X39206357Y-179209929D01*
X39003446Y-179250290D01*
X38796554Y-179250290D01*
X38593643Y-179209929D01*
X38402500Y-179130755D01*
X38230476Y-179015812D01*
X38084188Y-178869524D01*
X37969245Y-178697500D01*
X37890071Y-178506357D01*
X37849710Y-178303446D01*
X37849710Y-178096554D01*
X37890071Y-177893643D01*
X37969245Y-177702500D01*
X38084188Y-177530476D01*
X38230476Y-177384188D01*
X38402500Y-177269245D01*
X38593643Y-177190071D01*
X38796554Y-177149710D01*
X39003446Y-177149710D01*
X39206357Y-177190071D01*
X39206357Y-177190071D01*
G37*
G36*
X30354416Y-177826131D02*
X30481952Y-177878958D01*
X30596737Y-177955655D01*
X30694345Y-178053263D01*
X30771042Y-178168048D01*
X30823869Y-178295584D01*
X30850800Y-178430976D01*
X30850800Y-178569024D01*
X30823869Y-178704416D01*
X30771042Y-178831952D01*
X30694345Y-178946737D01*
X30596737Y-179044345D01*
X30481952Y-179121042D01*
X30354416Y-179173869D01*
X30219024Y-179200800D01*
X30080976Y-179200800D01*
X29945584Y-179173869D01*
X29818048Y-179121042D01*
X29703263Y-179044345D01*
X29605655Y-178946737D01*
X29528958Y-178831952D01*
X29476131Y-178704416D01*
X29449200Y-178569024D01*
X29449200Y-178430976D01*
X29476131Y-178295584D01*
X29528958Y-178168048D01*
X29605655Y-178053263D01*
X29703263Y-177955655D01*
X29818048Y-177878958D01*
X29945584Y-177826131D01*
X30080976Y-177799200D01*
X30219024Y-177799200D01*
X30354416Y-177826131D01*
X30354416Y-177826131D01*
G37*
G36*
X27184348Y-177866264D02*
X27223000Y-177877989D01*
X27258624Y-177897030D01*
X27289846Y-177922654D01*
X27315470Y-177953876D01*
X27334511Y-177989500D01*
X27346236Y-178028152D01*
X27350800Y-178074491D01*
X27350800Y-178725509D01*
X27346236Y-178771848D01*
X27334511Y-178810500D01*
X27315470Y-178846124D01*
X27289846Y-178877346D01*
X27258624Y-178902970D01*
X27223000Y-178922011D01*
X27184348Y-178933736D01*
X27138009Y-178938300D01*
X26061991Y-178938300D01*
X26015652Y-178933736D01*
X25977000Y-178922011D01*
X25941376Y-178902970D01*
X25910154Y-178877346D01*
X25884530Y-178846124D01*
X25865489Y-178810500D01*
X25853764Y-178771848D01*
X25849200Y-178725509D01*
X25849200Y-178074491D01*
X25853764Y-178028152D01*
X25865489Y-177989500D01*
X25884530Y-177953876D01*
X25910154Y-177922654D01*
X25941376Y-177897030D01*
X25977000Y-177877989D01*
X26015652Y-177866264D01*
X26061991Y-177861700D01*
X27138009Y-177861700D01*
X27184348Y-177866264D01*
X27184348Y-177866264D01*
G37*
G36*
X22192271Y-176853909D02*
X22240079Y-176858617D01*
X22348069Y-176891376D01*
X22362758Y-176895832D01*
X22475814Y-176956261D01*
X22574911Y-177037589D01*
X22656239Y-177136686D01*
X22716670Y-177249745D01*
X22750263Y-177360486D01*
X22759640Y-177383125D01*
X22763300Y-177388602D01*
X22763300Y-177461895D01*
X22763902Y-177474147D01*
X22766448Y-177500000D01*
X22763902Y-177525853D01*
X22763300Y-177538105D01*
X22763300Y-178750800D01*
X20761700Y-178750800D01*
X20761700Y-177538105D01*
X20761098Y-177525853D01*
X20758552Y-177500000D01*
X20761098Y-177474147D01*
X20761700Y-177461895D01*
X20761700Y-177388051D01*
X20774737Y-177360486D01*
X20808330Y-177249745D01*
X20868761Y-177136686D01*
X20950089Y-177037589D01*
X21049186Y-176956261D01*
X21162242Y-176895832D01*
X21176931Y-176891376D01*
X21284921Y-176858617D01*
X21332729Y-176853909D01*
X21380535Y-176849200D01*
X22144465Y-176849200D01*
X22192271Y-176853909D01*
X22192271Y-176853909D01*
G37*
G36*
X37384348Y-177203764D02*
X37423000Y-177215489D01*
X37458624Y-177234530D01*
X37489846Y-177260154D01*
X37515470Y-177291376D01*
X37534511Y-177327000D01*
X37546236Y-177365652D01*
X37550800Y-177411991D01*
X37550800Y-178063009D01*
X37546236Y-178109348D01*
X37534511Y-178148000D01*
X37515470Y-178183624D01*
X37489846Y-178214846D01*
X37458624Y-178240470D01*
X37423000Y-178259511D01*
X37384348Y-178271236D01*
X37338009Y-178275800D01*
X36261991Y-178275800D01*
X36215652Y-178271236D01*
X36177000Y-178259511D01*
X36141376Y-178240470D01*
X36110154Y-178214846D01*
X36084530Y-178183624D01*
X36065489Y-178148000D01*
X36053764Y-178109348D01*
X36049200Y-178063009D01*
X36049200Y-177411991D01*
X36053764Y-177365652D01*
X36065489Y-177327000D01*
X36084530Y-177291376D01*
X36110154Y-177260154D01*
X36141376Y-177234530D01*
X36177000Y-177215489D01*
X36215652Y-177203764D01*
X36261991Y-177199200D01*
X37338009Y-177199200D01*
X37384348Y-177203764D01*
X37384348Y-177203764D01*
G37*
G36*
X29184348Y-176803764D02*
X29223000Y-176815489D01*
X29258624Y-176834530D01*
X29289846Y-176860154D01*
X29315470Y-176891376D01*
X29334511Y-176927000D01*
X29346236Y-176965652D01*
X29350800Y-177011991D01*
X29350800Y-177663009D01*
X29346236Y-177709348D01*
X29334511Y-177748000D01*
X29315470Y-177783624D01*
X29289846Y-177814846D01*
X29258624Y-177840470D01*
X29223000Y-177859511D01*
X29184348Y-177871236D01*
X29138009Y-177875800D01*
X28061991Y-177875800D01*
X28015652Y-177871236D01*
X27977000Y-177859511D01*
X27941376Y-177840470D01*
X27910154Y-177814846D01*
X27884530Y-177783624D01*
X27865489Y-177748000D01*
X27853764Y-177709348D01*
X27849200Y-177663009D01*
X27849200Y-177011991D01*
X27853764Y-176965652D01*
X27865489Y-176927000D01*
X27884530Y-176891376D01*
X27910154Y-176860154D01*
X27941376Y-176834530D01*
X27977000Y-176815489D01*
X28015652Y-176803764D01*
X28061991Y-176799200D01*
X29138009Y-176799200D01*
X29184348Y-176803764D01*
X29184348Y-176803764D01*
G37*
G36*
X34984348Y-176203764D02*
X35023000Y-176215489D01*
X35058624Y-176234530D01*
X35089846Y-176260154D01*
X35115470Y-176291376D01*
X35134511Y-176327000D01*
X35146236Y-176365652D01*
X35150800Y-176411991D01*
X35150800Y-177063009D01*
X35146236Y-177109348D01*
X35134511Y-177148000D01*
X35115470Y-177183624D01*
X35089846Y-177214846D01*
X35058624Y-177240470D01*
X35023000Y-177259511D01*
X34984348Y-177271236D01*
X34938009Y-177275800D01*
X33861991Y-177275800D01*
X33815652Y-177271236D01*
X33777000Y-177259511D01*
X33741376Y-177240470D01*
X33710154Y-177214846D01*
X33684530Y-177183624D01*
X33665489Y-177148000D01*
X33653764Y-177109348D01*
X33649200Y-177063009D01*
X33649200Y-176411991D01*
X33653764Y-176365652D01*
X33665489Y-176327000D01*
X33684530Y-176291376D01*
X33710154Y-176260154D01*
X33741376Y-176234530D01*
X33777000Y-176215489D01*
X33815652Y-176203764D01*
X33861991Y-176199200D01*
X34938009Y-176199200D01*
X34984348Y-176203764D01*
X34984348Y-176203764D01*
G37*
G36*
X32984348Y-176203764D02*
X33023000Y-176215489D01*
X33058624Y-176234530D01*
X33089846Y-176260154D01*
X33115470Y-176291376D01*
X33134511Y-176327000D01*
X33146236Y-176365652D01*
X33150800Y-176411991D01*
X33150800Y-177063009D01*
X33146236Y-177109348D01*
X33134511Y-177148000D01*
X33115470Y-177183624D01*
X33089846Y-177214846D01*
X33058624Y-177240470D01*
X33023000Y-177259511D01*
X32984348Y-177271236D01*
X32938009Y-177275800D01*
X31861991Y-177275800D01*
X31815652Y-177271236D01*
X31777000Y-177259511D01*
X31741376Y-177240470D01*
X31710154Y-177214846D01*
X31684530Y-177183624D01*
X31665489Y-177148000D01*
X31653764Y-177109348D01*
X31649200Y-177063009D01*
X31649200Y-176411991D01*
X31653764Y-176365652D01*
X31665489Y-176327000D01*
X31684530Y-176291376D01*
X31710154Y-176260154D01*
X31741376Y-176234530D01*
X31777000Y-176215489D01*
X31815652Y-176203764D01*
X31861991Y-176199200D01*
X32938009Y-176199200D01*
X32984348Y-176203764D01*
X32984348Y-176203764D01*
G37*
G36*
X30984348Y-176203764D02*
X31023000Y-176215489D01*
X31058624Y-176234530D01*
X31089846Y-176260154D01*
X31115470Y-176291376D01*
X31134511Y-176327000D01*
X31146236Y-176365652D01*
X31150800Y-176411991D01*
X31150800Y-177063009D01*
X31146236Y-177109348D01*
X31134511Y-177148000D01*
X31115470Y-177183624D01*
X31089846Y-177214846D01*
X31058624Y-177240470D01*
X31023000Y-177259511D01*
X30984348Y-177271236D01*
X30938009Y-177275800D01*
X29861991Y-177275800D01*
X29815652Y-177271236D01*
X29777000Y-177259511D01*
X29741376Y-177240470D01*
X29710154Y-177214846D01*
X29684530Y-177183624D01*
X29665489Y-177148000D01*
X29653764Y-177109348D01*
X29649200Y-177063009D01*
X29649200Y-176411991D01*
X29653764Y-176365652D01*
X29665489Y-176327000D01*
X29684530Y-176291376D01*
X29710154Y-176260154D01*
X29741376Y-176234530D01*
X29777000Y-176215489D01*
X29815652Y-176203764D01*
X29861991Y-176199200D01*
X30938009Y-176199200D01*
X30984348Y-176203764D01*
X30984348Y-176203764D01*
G37*
G36*
X27184348Y-175991264D02*
X27223000Y-176002989D01*
X27258624Y-176022030D01*
X27289846Y-176047654D01*
X27315470Y-176078876D01*
X27334511Y-176114500D01*
X27346236Y-176153152D01*
X27350800Y-176199491D01*
X27350800Y-176850509D01*
X27346236Y-176896848D01*
X27334511Y-176935500D01*
X27315470Y-176971124D01*
X27289846Y-177002346D01*
X27258624Y-177027970D01*
X27223000Y-177047011D01*
X27184348Y-177058736D01*
X27138009Y-177063300D01*
X26061991Y-177063300D01*
X26015652Y-177058736D01*
X25977000Y-177047011D01*
X25941376Y-177027970D01*
X25910154Y-177002346D01*
X25884530Y-176971124D01*
X25865489Y-176935500D01*
X25853764Y-176896848D01*
X25849200Y-176850509D01*
X25849200Y-176199491D01*
X25853764Y-176153152D01*
X25865489Y-176114500D01*
X25884530Y-176078876D01*
X25910154Y-176047654D01*
X25941376Y-176022030D01*
X25977000Y-176002989D01*
X26015652Y-175991264D01*
X26061991Y-175986700D01*
X27138009Y-175986700D01*
X27184348Y-175991264D01*
X27184348Y-175991264D01*
G37*
G36*
X39206357Y-174790071D02*
X39397500Y-174869245D01*
X39569524Y-174984188D01*
X39715812Y-175130476D01*
X39830755Y-175302500D01*
X39909929Y-175493643D01*
X39950290Y-175696554D01*
X39950290Y-175903446D01*
X39909929Y-176106357D01*
X39830755Y-176297500D01*
X39715812Y-176469524D01*
X39569524Y-176615812D01*
X39397500Y-176730755D01*
X39206357Y-176809929D01*
X39003446Y-176850290D01*
X38796554Y-176850290D01*
X38593643Y-176809929D01*
X38402500Y-176730755D01*
X38230476Y-176615812D01*
X38084188Y-176469524D01*
X37969245Y-176297500D01*
X37890071Y-176106357D01*
X37849710Y-175903446D01*
X37849710Y-175696554D01*
X37890071Y-175493643D01*
X37969245Y-175302500D01*
X38084188Y-175130476D01*
X38230476Y-174984188D01*
X38402500Y-174869245D01*
X38593643Y-174790071D01*
X38796554Y-174749710D01*
X39003446Y-174749710D01*
X39206357Y-174790071D01*
X39206357Y-174790071D01*
G37*
G36*
X37384348Y-175328764D02*
X37423000Y-175340489D01*
X37458624Y-175359530D01*
X37489846Y-175385154D01*
X37515470Y-175416376D01*
X37534511Y-175452000D01*
X37546236Y-175490652D01*
X37550800Y-175536991D01*
X37550800Y-176188009D01*
X37546236Y-176234348D01*
X37534511Y-176273000D01*
X37515470Y-176308624D01*
X37489846Y-176339846D01*
X37458624Y-176365470D01*
X37423000Y-176384511D01*
X37384348Y-176396236D01*
X37338009Y-176400800D01*
X36261991Y-176400800D01*
X36215652Y-176396236D01*
X36177000Y-176384511D01*
X36141376Y-176365470D01*
X36110154Y-176339846D01*
X36084530Y-176308624D01*
X36065489Y-176273000D01*
X36053764Y-176234348D01*
X36049200Y-176188009D01*
X36049200Y-175536991D01*
X36053764Y-175490652D01*
X36065489Y-175452000D01*
X36084530Y-175416376D01*
X36110154Y-175385154D01*
X36141376Y-175359530D01*
X36177000Y-175340489D01*
X36215652Y-175328764D01*
X36261991Y-175324200D01*
X37338009Y-175324200D01*
X37384348Y-175328764D01*
X37384348Y-175328764D01*
G37*
G36*
X29184348Y-174928764D02*
X29223000Y-174940489D01*
X29258624Y-174959530D01*
X29289846Y-174985154D01*
X29315470Y-175016376D01*
X29334511Y-175052000D01*
X29346236Y-175090652D01*
X29350800Y-175136991D01*
X29350800Y-175788009D01*
X29346236Y-175834348D01*
X29334511Y-175873000D01*
X29315470Y-175908624D01*
X29289846Y-175939846D01*
X29258624Y-175965470D01*
X29223000Y-175984511D01*
X29184348Y-175996236D01*
X29138009Y-176000800D01*
X28061991Y-176000800D01*
X28015652Y-175996236D01*
X27977000Y-175984511D01*
X27941376Y-175965470D01*
X27910154Y-175939846D01*
X27884530Y-175908624D01*
X27865489Y-175873000D01*
X27853764Y-175834348D01*
X27849200Y-175788009D01*
X27849200Y-175136991D01*
X27853764Y-175090652D01*
X27865489Y-175052000D01*
X27884530Y-175016376D01*
X27910154Y-174985154D01*
X27941376Y-174959530D01*
X27977000Y-174940489D01*
X28015652Y-174928764D01*
X28061991Y-174924200D01*
X29138009Y-174924200D01*
X29184348Y-174928764D01*
X29184348Y-174928764D01*
G37*
G36*
X32984348Y-174328764D02*
X33023000Y-174340489D01*
X33058624Y-174359530D01*
X33089846Y-174385154D01*
X33115470Y-174416376D01*
X33134511Y-174452000D01*
X33146236Y-174490652D01*
X33150800Y-174536991D01*
X33150800Y-175188009D01*
X33146236Y-175234348D01*
X33134511Y-175273000D01*
X33115470Y-175308624D01*
X33089846Y-175339846D01*
X33058624Y-175365470D01*
X33023000Y-175384511D01*
X32984348Y-175396236D01*
X32938009Y-175400800D01*
X31861991Y-175400800D01*
X31815652Y-175396236D01*
X31777000Y-175384511D01*
X31741376Y-175365470D01*
X31710154Y-175339846D01*
X31684530Y-175308624D01*
X31665489Y-175273000D01*
X31653764Y-175234348D01*
X31649200Y-175188009D01*
X31649200Y-174536991D01*
X31653764Y-174490652D01*
X31665489Y-174452000D01*
X31684530Y-174416376D01*
X31710154Y-174385154D01*
X31741376Y-174359530D01*
X31777000Y-174340489D01*
X31815652Y-174328764D01*
X31861991Y-174324200D01*
X32938009Y-174324200D01*
X32984348Y-174328764D01*
X32984348Y-174328764D01*
G37*
G36*
X30984348Y-174328764D02*
X31023000Y-174340489D01*
X31058624Y-174359530D01*
X31089846Y-174385154D01*
X31115470Y-174416376D01*
X31134511Y-174452000D01*
X31146236Y-174490652D01*
X31150800Y-174536991D01*
X31150800Y-175188009D01*
X31146236Y-175234348D01*
X31134511Y-175273000D01*
X31115470Y-175308624D01*
X31089846Y-175339846D01*
X31058624Y-175365470D01*
X31023000Y-175384511D01*
X30984348Y-175396236D01*
X30938009Y-175400800D01*
X29861991Y-175400800D01*
X29815652Y-175396236D01*
X29777000Y-175384511D01*
X29741376Y-175365470D01*
X29710154Y-175339846D01*
X29684530Y-175308624D01*
X29665489Y-175273000D01*
X29653764Y-175234348D01*
X29649200Y-175188009D01*
X29649200Y-174536991D01*
X29653764Y-174490652D01*
X29665489Y-174452000D01*
X29684530Y-174416376D01*
X29710154Y-174385154D01*
X29741376Y-174359530D01*
X29777000Y-174340489D01*
X29815652Y-174328764D01*
X29861991Y-174324200D01*
X30938009Y-174324200D01*
X30984348Y-174328764D01*
X30984348Y-174328764D01*
G37*
G36*
X34984348Y-174328764D02*
X35023000Y-174340489D01*
X35058624Y-174359530D01*
X35089846Y-174385154D01*
X35115470Y-174416376D01*
X35134511Y-174452000D01*
X35146236Y-174490652D01*
X35150800Y-174536991D01*
X35150800Y-175188009D01*
X35146236Y-175234348D01*
X35134511Y-175273000D01*
X35115470Y-175308624D01*
X35089846Y-175339846D01*
X35058624Y-175365470D01*
X35023000Y-175384511D01*
X34984348Y-175396236D01*
X34938009Y-175400800D01*
X33861991Y-175400800D01*
X33815652Y-175396236D01*
X33777000Y-175384511D01*
X33741376Y-175365470D01*
X33710154Y-175339846D01*
X33684530Y-175308624D01*
X33665489Y-175273000D01*
X33653764Y-175234348D01*
X33649200Y-175188009D01*
X33649200Y-174536991D01*
X33653764Y-174490652D01*
X33665489Y-174452000D01*
X33684530Y-174416376D01*
X33710154Y-174385154D01*
X33741376Y-174359530D01*
X33777000Y-174340489D01*
X33815652Y-174328764D01*
X33861991Y-174324200D01*
X34938009Y-174324200D01*
X34984348Y-174328764D01*
X34984348Y-174328764D01*
G37*
G36*
X27250800Y-175200800D02*
X25599200Y-175200800D01*
X25599200Y-174099200D01*
X27250800Y-174099200D01*
X27250800Y-175200800D01*
X27250800Y-175200800D01*
G37*
G36*
X22000800Y-175200800D02*
X20349200Y-175200800D01*
X20349200Y-174099200D01*
X22000800Y-174099200D01*
X22000800Y-175200800D01*
X22000800Y-175200800D01*
G37*
G36*
X38906357Y-172390071D02*
X39097500Y-172469245D01*
X39269524Y-172584188D01*
X39415812Y-172730476D01*
X39530755Y-172902500D01*
X39609929Y-173093643D01*
X39650290Y-173296554D01*
X39650290Y-173503446D01*
X39609929Y-173706357D01*
X39530755Y-173897500D01*
X39415812Y-174069524D01*
X39269524Y-174215812D01*
X39097500Y-174330755D01*
X38906357Y-174409929D01*
X38703446Y-174450290D01*
X38496554Y-174450290D01*
X38293643Y-174409929D01*
X38102500Y-174330755D01*
X37930476Y-174215812D01*
X37784188Y-174069524D01*
X37669245Y-173897500D01*
X37590071Y-173706357D01*
X37549710Y-173503446D01*
X37549710Y-173296554D01*
X37590071Y-173093643D01*
X37669245Y-172902500D01*
X37784188Y-172730476D01*
X37930476Y-172584188D01*
X38102500Y-172469245D01*
X38293643Y-172390071D01*
X38496554Y-172349710D01*
X38703446Y-172349710D01*
X38906357Y-172390071D01*
X38906357Y-172390071D01*
G37*
G36*
X35034348Y-172253764D02*
X35073000Y-172265489D01*
X35108624Y-172284530D01*
X35139846Y-172310154D01*
X35165470Y-172341376D01*
X35184511Y-172377000D01*
X35196236Y-172415652D01*
X35200800Y-172461991D01*
X35200800Y-173538009D01*
X35196236Y-173584348D01*
X35184511Y-173623000D01*
X35165470Y-173658624D01*
X35139846Y-173689846D01*
X35108624Y-173715470D01*
X35073000Y-173734511D01*
X35034348Y-173746236D01*
X34988009Y-173750800D01*
X34336991Y-173750800D01*
X34290652Y-173746236D01*
X34252000Y-173734511D01*
X34216376Y-173715470D01*
X34185154Y-173689846D01*
X34159530Y-173658624D01*
X34140489Y-173623000D01*
X34128764Y-173584348D01*
X34124200Y-173538009D01*
X34124200Y-172461991D01*
X34128764Y-172415652D01*
X34140489Y-172377000D01*
X34159530Y-172341376D01*
X34185154Y-172310154D01*
X34216376Y-172284530D01*
X34252000Y-172265489D01*
X34290652Y-172253764D01*
X34336991Y-172249200D01*
X34988009Y-172249200D01*
X35034348Y-172253764D01*
X35034348Y-172253764D01*
G37*
G36*
X36909348Y-172253764D02*
X36948000Y-172265489D01*
X36983624Y-172284530D01*
X37014846Y-172310154D01*
X37040470Y-172341376D01*
X37059511Y-172377000D01*
X37071236Y-172415652D01*
X37075800Y-172461991D01*
X37075800Y-173538009D01*
X37071236Y-173584348D01*
X37059511Y-173623000D01*
X37040470Y-173658624D01*
X37014846Y-173689846D01*
X36983624Y-173715470D01*
X36948000Y-173734511D01*
X36909348Y-173746236D01*
X36863009Y-173750800D01*
X36211991Y-173750800D01*
X36165652Y-173746236D01*
X36127000Y-173734511D01*
X36091376Y-173715470D01*
X36060154Y-173689846D01*
X36034530Y-173658624D01*
X36015489Y-173623000D01*
X36003764Y-173584348D01*
X35999200Y-173538009D01*
X35999200Y-172461991D01*
X36003764Y-172415652D01*
X36015489Y-172377000D01*
X36034530Y-172341376D01*
X36060154Y-172310154D01*
X36091376Y-172284530D01*
X36127000Y-172265489D01*
X36165652Y-172253764D01*
X36211991Y-172249200D01*
X36863009Y-172249200D01*
X36909348Y-172253764D01*
X36909348Y-172253764D01*
G37*
G36*
X22000800Y-173500800D02*
X20349200Y-173500800D01*
X20349200Y-172399200D01*
X22000800Y-172399200D01*
X22000800Y-173500800D01*
X22000800Y-173500800D01*
G37*
G36*
X27250800Y-173500800D02*
X25599200Y-173500800D01*
X25599200Y-172399200D01*
X27250800Y-172399200D01*
X27250800Y-173500800D01*
X27250800Y-173500800D01*
G37*
M02*
