G04 #@! TF.GenerationSoftware,KiCad,Pcbnew,(5.0.2)-1*
G04 #@! TF.CreationDate,2019-05-05T23:42:23+01:00*
G04 #@! TF.ProjectId,power-bank-upgrade,706f7765-722d-4626-916e-6b2d75706772,rev?*
G04 #@! TF.SameCoordinates,Original*
G04 #@! TF.FileFunction,Legend,Top*
G04 #@! TF.FilePolarity,Positive*
%FSLAX46Y46*%
G04 Gerber Fmt 4.6, Leading zero omitted, Abs format (unit mm)*
G04 Created by KiCad (PCBNEW (5.0.2)-1) date 05/05/2019 23:42:23*
%MOMM*%
%LPD*%
G01*
G04 APERTURE LIST*
%ADD10C,0.150000*%
%ADD11C,0.120000*%
G04 APERTURE END LIST*
D10*
G04 #@! TO.C,J2*
X20100000Y-187600000D02*
X28500000Y-187600000D01*
X20100000Y-174400000D02*
X28500000Y-174400000D01*
X20100000Y-187600000D02*
X20100000Y-174400000D01*
D11*
G04 #@! TO.C,C3*
X37541422Y-179490000D02*
X38058578Y-179490000D01*
X37541422Y-180910000D02*
X38058578Y-180910000D01*
G04 #@! TO.C,C4*
X37603922Y-181490000D02*
X38121078Y-181490000D01*
X37603922Y-182910000D02*
X38121078Y-182910000D01*
G04 #@! TO.C,GND*
D10*
X35238095Y-178300000D02*
X35142857Y-178252380D01*
X35000000Y-178252380D01*
X34857142Y-178300000D01*
X34761904Y-178395238D01*
X34714285Y-178490476D01*
X34666666Y-178680952D01*
X34666666Y-178823809D01*
X34714285Y-179014285D01*
X34761904Y-179109523D01*
X34857142Y-179204761D01*
X35000000Y-179252380D01*
X35095238Y-179252380D01*
X35238095Y-179204761D01*
X35285714Y-179157142D01*
X35285714Y-178823809D01*
X35095238Y-178823809D01*
X35714285Y-179252380D02*
X35714285Y-178252380D01*
X36285714Y-179252380D01*
X36285714Y-178252380D01*
X36761904Y-179252380D02*
X36761904Y-178252380D01*
X37000000Y-178252380D01*
X37142857Y-178300000D01*
X37238095Y-178395238D01*
X37285714Y-178490476D01*
X37333333Y-178680952D01*
X37333333Y-178823809D01*
X37285714Y-179014285D01*
X37238095Y-179109523D01*
X37142857Y-179204761D01*
X37000000Y-179252380D01*
X36761904Y-179252380D01*
G04 #@! TO.C,BATT*
X35080952Y-175828571D02*
X35223809Y-175876190D01*
X35271428Y-175923809D01*
X35319047Y-176019047D01*
X35319047Y-176161904D01*
X35271428Y-176257142D01*
X35223809Y-176304761D01*
X35128571Y-176352380D01*
X34747619Y-176352380D01*
X34747619Y-175352380D01*
X35080952Y-175352380D01*
X35176190Y-175400000D01*
X35223809Y-175447619D01*
X35271428Y-175542857D01*
X35271428Y-175638095D01*
X35223809Y-175733333D01*
X35176190Y-175780952D01*
X35080952Y-175828571D01*
X34747619Y-175828571D01*
X35700000Y-176066666D02*
X36176190Y-176066666D01*
X35604761Y-176352380D02*
X35938095Y-175352380D01*
X36271428Y-176352380D01*
X36461904Y-175352380D02*
X37033333Y-175352380D01*
X36747619Y-176352380D02*
X36747619Y-175352380D01*
X37223809Y-175352380D02*
X37795238Y-175352380D01*
X37509523Y-176352380D02*
X37509523Y-175352380D01*
G04 #@! TO.C,NTC*
X35033333Y-173852380D02*
X35033333Y-172852380D01*
X35604761Y-173852380D01*
X35604761Y-172852380D01*
X35938095Y-172852380D02*
X36509523Y-172852380D01*
X36223809Y-173852380D02*
X36223809Y-172852380D01*
X37414285Y-173757142D02*
X37366666Y-173804761D01*
X37223809Y-173852380D01*
X37128571Y-173852380D01*
X36985714Y-173804761D01*
X36890476Y-173709523D01*
X36842857Y-173614285D01*
X36795238Y-173423809D01*
X36795238Y-173280952D01*
X36842857Y-173090476D01*
X36890476Y-172995238D01*
X36985714Y-172900000D01*
X37128571Y-172852380D01*
X37223809Y-172852380D01*
X37366666Y-172900000D01*
X37414285Y-172947619D01*
G04 #@! TO.C,J2*
X21466666Y-188252380D02*
X21466666Y-188966666D01*
X21419047Y-189109523D01*
X21323809Y-189204761D01*
X21180952Y-189252380D01*
X21085714Y-189252380D01*
X21895238Y-188347619D02*
X21942857Y-188300000D01*
X22038095Y-188252380D01*
X22276190Y-188252380D01*
X22371428Y-188300000D01*
X22419047Y-188347619D01*
X22466666Y-188442857D01*
X22466666Y-188538095D01*
X22419047Y-188680952D01*
X21847619Y-189252380D01*
X22466666Y-189252380D01*
G04 #@! TO.C,C3*
X38233333Y-184257142D02*
X38185714Y-184304761D01*
X38042857Y-184352380D01*
X37947619Y-184352380D01*
X37804761Y-184304761D01*
X37709523Y-184209523D01*
X37661904Y-184114285D01*
X37614285Y-183923809D01*
X37614285Y-183780952D01*
X37661904Y-183590476D01*
X37709523Y-183495238D01*
X37804761Y-183400000D01*
X37947619Y-183352380D01*
X38042857Y-183352380D01*
X38185714Y-183400000D01*
X38233333Y-183447619D01*
X38566666Y-183352380D02*
X39185714Y-183352380D01*
X38852380Y-183733333D01*
X38995238Y-183733333D01*
X39090476Y-183780952D01*
X39138095Y-183828571D01*
X39185714Y-183923809D01*
X39185714Y-184161904D01*
X39138095Y-184257142D01*
X39090476Y-184304761D01*
X38995238Y-184352380D01*
X38709523Y-184352380D01*
X38614285Y-184304761D01*
X38566666Y-184257142D01*
G04 #@! TO.C,C4*
X38233333Y-185557142D02*
X38185714Y-185604761D01*
X38042857Y-185652380D01*
X37947619Y-185652380D01*
X37804761Y-185604761D01*
X37709523Y-185509523D01*
X37661904Y-185414285D01*
X37614285Y-185223809D01*
X37614285Y-185080952D01*
X37661904Y-184890476D01*
X37709523Y-184795238D01*
X37804761Y-184700000D01*
X37947619Y-184652380D01*
X38042857Y-184652380D01*
X38185714Y-184700000D01*
X38233333Y-184747619D01*
X39090476Y-184985714D02*
X39090476Y-185652380D01*
X38852380Y-184604761D02*
X38614285Y-185319047D01*
X39233333Y-185319047D01*
G04 #@! TD*
M02*
