G04 #@! TF.GenerationSoftware,KiCad,Pcbnew,(5.0.2)-1*
G04 #@! TF.CreationDate,2019-05-05T23:42:23+01:00*
G04 #@! TF.ProjectId,power-bank-upgrade,706f7765-722d-4626-916e-6b2d75706772,rev?*
G04 #@! TF.SameCoordinates,Original*
G04 #@! TF.FileFunction,Soldermask,Top*
G04 #@! TF.FilePolarity,Negative*
%FSLAX46Y46*%
G04 Gerber Fmt 4.6, Leading zero omitted, Abs format (unit mm)*
G04 Created by KiCad (PCBNEW (5.0.2)-1) date 05/05/2019 23:42:23*
%MOMM*%
%LPD*%
G01*
G04 APERTURE LIST*
%ADD10C,0.100000*%
G04 APERTURE END LIST*
D10*
G36*
X34300800Y-189550800D02*
X29199200Y-189550800D01*
X29199200Y-186949200D01*
X34300800Y-186949200D01*
X34300800Y-189550800D01*
X34300800Y-189550800D01*
G37*
G36*
X22192271Y-183853909D02*
X22240079Y-183858617D01*
X22362755Y-183895831D01*
X22362758Y-183895832D01*
X22475814Y-183956261D01*
X22574911Y-184037589D01*
X22656239Y-184136686D01*
X22716668Y-184249742D01*
X22716669Y-184249745D01*
X22753883Y-184372421D01*
X22766448Y-184500000D01*
X22753883Y-184627579D01*
X22716669Y-184750255D01*
X22716668Y-184750258D01*
X22656239Y-184863314D01*
X22574911Y-184962411D01*
X22475814Y-185043739D01*
X22362758Y-185104168D01*
X22362755Y-185104169D01*
X22240079Y-185141383D01*
X22192271Y-185146091D01*
X22144465Y-185150800D01*
X21380535Y-185150800D01*
X21332729Y-185146091D01*
X21284921Y-185141383D01*
X21162245Y-185104169D01*
X21162242Y-185104168D01*
X21049186Y-185043739D01*
X20950089Y-184962411D01*
X20868761Y-184863314D01*
X20808332Y-184750258D01*
X20808331Y-184750255D01*
X20771117Y-184627579D01*
X20758552Y-184500000D01*
X20771117Y-184372421D01*
X20808331Y-184249745D01*
X20808332Y-184249742D01*
X20868761Y-184136686D01*
X20950089Y-184037589D01*
X21049186Y-183956261D01*
X21162242Y-183895832D01*
X21162245Y-183895831D01*
X21284921Y-183858617D01*
X21332729Y-183853909D01*
X21380535Y-183849200D01*
X22144465Y-183849200D01*
X22192271Y-183853909D01*
X22192271Y-183853909D01*
G37*
G36*
X27106357Y-182990071D02*
X27297500Y-183069245D01*
X27469524Y-183184188D01*
X27615812Y-183330476D01*
X27730755Y-183502500D01*
X27809929Y-183693643D01*
X27850290Y-183896554D01*
X27850290Y-184103446D01*
X27809929Y-184306357D01*
X27730755Y-184497500D01*
X27615812Y-184669524D01*
X27469524Y-184815812D01*
X27297500Y-184930755D01*
X27106357Y-185009929D01*
X26903446Y-185050290D01*
X26696554Y-185050290D01*
X26493643Y-185009929D01*
X26302500Y-184930755D01*
X26130476Y-184815812D01*
X25984188Y-184669524D01*
X25869245Y-184497500D01*
X25790071Y-184306357D01*
X25749710Y-184103446D01*
X25749710Y-183896554D01*
X25790071Y-183693643D01*
X25869245Y-183502500D01*
X25984188Y-183330476D01*
X26130476Y-183184188D01*
X26302500Y-183069245D01*
X26493643Y-182990071D01*
X26696554Y-182949710D01*
X26903446Y-182949710D01*
X27106357Y-182990071D01*
X27106357Y-182990071D01*
G37*
G36*
X35450800Y-185000800D02*
X32549200Y-185000800D01*
X32549200Y-183999200D01*
X35450800Y-183999200D01*
X35450800Y-185000800D01*
X35450800Y-185000800D01*
G37*
G36*
X24688793Y-182754013D02*
X24829978Y-182812494D01*
X24957047Y-182897399D01*
X25065101Y-183005453D01*
X25150006Y-183132522D01*
X25208487Y-183273707D01*
X25238300Y-183423589D01*
X25238300Y-183576411D01*
X25208487Y-183726293D01*
X25150006Y-183867478D01*
X25065101Y-183994547D01*
X24957047Y-184102601D01*
X24829978Y-184187506D01*
X24688793Y-184245987D01*
X24538911Y-184275800D01*
X24386089Y-184275800D01*
X24236207Y-184245987D01*
X24095022Y-184187506D01*
X23967953Y-184102601D01*
X23859899Y-183994547D01*
X23774994Y-183867478D01*
X23716513Y-183726293D01*
X23686700Y-183576411D01*
X23686700Y-183423589D01*
X23716513Y-183273707D01*
X23774994Y-183132522D01*
X23859899Y-183005453D01*
X23967953Y-182897399D01*
X24095022Y-182812494D01*
X24236207Y-182754013D01*
X24386089Y-182724200D01*
X24538911Y-182724200D01*
X24688793Y-182754013D01*
X24688793Y-182754013D01*
G37*
G36*
X30354416Y-182826131D02*
X30481952Y-182878958D01*
X30596737Y-182955655D01*
X30694345Y-183053263D01*
X30771042Y-183168048D01*
X30823869Y-183295584D01*
X30850800Y-183430976D01*
X30850800Y-183569024D01*
X30823869Y-183704416D01*
X30771042Y-183831952D01*
X30694345Y-183946737D01*
X30596737Y-184044345D01*
X30481952Y-184121042D01*
X30354416Y-184173869D01*
X30219024Y-184200800D01*
X30080976Y-184200800D01*
X29945584Y-184173869D01*
X29818048Y-184121042D01*
X29703263Y-184044345D01*
X29605655Y-183946737D01*
X29528958Y-183831952D01*
X29476131Y-183704416D01*
X29449200Y-183569024D01*
X29449200Y-183430976D01*
X29476131Y-183295584D01*
X29528958Y-183168048D01*
X29605655Y-183053263D01*
X29703263Y-182955655D01*
X29818048Y-182878958D01*
X29945584Y-182826131D01*
X30080976Y-182799200D01*
X30219024Y-182799200D01*
X30354416Y-182826131D01*
X30354416Y-182826131D01*
G37*
G36*
X39171848Y-181453764D02*
X39210500Y-181465489D01*
X39246124Y-181484530D01*
X39277346Y-181510154D01*
X39302970Y-181541376D01*
X39322011Y-181577000D01*
X39333736Y-181615652D01*
X39338300Y-181661991D01*
X39338300Y-182738009D01*
X39333736Y-182784348D01*
X39322011Y-182823000D01*
X39302970Y-182858624D01*
X39277346Y-182889846D01*
X39246124Y-182915470D01*
X39210500Y-182934511D01*
X39171848Y-182946236D01*
X39125509Y-182950800D01*
X38474491Y-182950800D01*
X38428152Y-182946236D01*
X38389500Y-182934511D01*
X38353876Y-182915470D01*
X38322654Y-182889846D01*
X38297030Y-182858624D01*
X38277989Y-182823000D01*
X38266264Y-182784348D01*
X38261700Y-182738009D01*
X38261700Y-181661991D01*
X38266264Y-181615652D01*
X38277989Y-181577000D01*
X38297030Y-181541376D01*
X38322654Y-181510154D01*
X38353876Y-181484530D01*
X38389500Y-181465489D01*
X38428152Y-181453764D01*
X38474491Y-181449200D01*
X39125509Y-181449200D01*
X39171848Y-181453764D01*
X39171848Y-181453764D01*
G37*
G36*
X37296848Y-181453764D02*
X37335500Y-181465489D01*
X37371124Y-181484530D01*
X37402346Y-181510154D01*
X37427970Y-181541376D01*
X37447011Y-181577000D01*
X37458736Y-181615652D01*
X37463300Y-181661991D01*
X37463300Y-182738009D01*
X37458736Y-182784348D01*
X37447011Y-182823000D01*
X37427970Y-182858624D01*
X37402346Y-182889846D01*
X37371124Y-182915470D01*
X37335500Y-182934511D01*
X37296848Y-182946236D01*
X37250509Y-182950800D01*
X36599491Y-182950800D01*
X36553152Y-182946236D01*
X36514500Y-182934511D01*
X36478876Y-182915470D01*
X36447654Y-182889846D01*
X36422030Y-182858624D01*
X36402989Y-182823000D01*
X36391264Y-182784348D01*
X36386700Y-182738009D01*
X36386700Y-181661991D01*
X36391264Y-181615652D01*
X36402989Y-181577000D01*
X36422030Y-181541376D01*
X36447654Y-181510154D01*
X36478876Y-181484530D01*
X36514500Y-181465489D01*
X36553152Y-181453764D01*
X36599491Y-181449200D01*
X37250509Y-181449200D01*
X37296848Y-181453764D01*
X37296848Y-181453764D01*
G37*
G36*
X35450800Y-182500800D02*
X32549200Y-182500800D01*
X32549200Y-181499200D01*
X35450800Y-181499200D01*
X35450800Y-182500800D01*
X35450800Y-182500800D01*
G37*
G36*
X37234348Y-179453764D02*
X37273000Y-179465489D01*
X37308624Y-179484530D01*
X37339846Y-179510154D01*
X37365470Y-179541376D01*
X37384511Y-179577000D01*
X37396236Y-179615652D01*
X37400800Y-179661991D01*
X37400800Y-180738009D01*
X37396236Y-180784348D01*
X37384511Y-180823000D01*
X37365470Y-180858624D01*
X37339846Y-180889846D01*
X37308624Y-180915470D01*
X37273000Y-180934511D01*
X37234348Y-180946236D01*
X37188009Y-180950800D01*
X36536991Y-180950800D01*
X36490652Y-180946236D01*
X36452000Y-180934511D01*
X36416376Y-180915470D01*
X36385154Y-180889846D01*
X36359530Y-180858624D01*
X36340489Y-180823000D01*
X36328764Y-180784348D01*
X36324200Y-180738009D01*
X36324200Y-179661991D01*
X36328764Y-179615652D01*
X36340489Y-179577000D01*
X36359530Y-179541376D01*
X36385154Y-179510154D01*
X36416376Y-179484530D01*
X36452000Y-179465489D01*
X36490652Y-179453764D01*
X36536991Y-179449200D01*
X37188009Y-179449200D01*
X37234348Y-179453764D01*
X37234348Y-179453764D01*
G37*
G36*
X39206357Y-177190071D02*
X39397500Y-177269245D01*
X39569524Y-177384188D01*
X39715812Y-177530476D01*
X39830755Y-177702500D01*
X39909929Y-177893643D01*
X39950290Y-178096554D01*
X39950290Y-178303446D01*
X39909929Y-178506357D01*
X39830755Y-178697500D01*
X39715812Y-178869524D01*
X39569524Y-179015812D01*
X39397500Y-179130755D01*
X39206357Y-179209929D01*
X39151730Y-179220795D01*
X39128281Y-179227908D01*
X39106670Y-179239459D01*
X39087728Y-179255004D01*
X39072183Y-179273946D01*
X39060631Y-179295557D01*
X39053518Y-179319006D01*
X39051116Y-179343393D01*
X39053518Y-179367779D01*
X39060631Y-179391228D01*
X39072182Y-179412839D01*
X39087727Y-179431781D01*
X39106669Y-179447326D01*
X39128280Y-179458878D01*
X39139831Y-179463011D01*
X39148001Y-179465489D01*
X39183624Y-179484530D01*
X39214846Y-179510154D01*
X39240470Y-179541376D01*
X39259511Y-179577000D01*
X39271236Y-179615652D01*
X39275800Y-179661991D01*
X39275800Y-180738009D01*
X39271236Y-180784348D01*
X39259511Y-180823000D01*
X39240470Y-180858624D01*
X39214846Y-180889846D01*
X39183624Y-180915470D01*
X39148000Y-180934511D01*
X39109348Y-180946236D01*
X39063009Y-180950800D01*
X38411991Y-180950800D01*
X38365652Y-180946236D01*
X38327000Y-180934511D01*
X38291376Y-180915470D01*
X38260154Y-180889846D01*
X38234530Y-180858624D01*
X38215489Y-180823000D01*
X38203764Y-180784348D01*
X38199200Y-180738009D01*
X38199200Y-179661991D01*
X38203764Y-179615652D01*
X38215489Y-179577000D01*
X38234530Y-179541376D01*
X38260154Y-179510154D01*
X38291376Y-179484530D01*
X38327000Y-179465489D01*
X38365652Y-179453764D01*
X38411991Y-179449200D01*
X38542876Y-179449200D01*
X38567262Y-179446798D01*
X38590711Y-179439685D01*
X38612322Y-179428134D01*
X38631264Y-179412588D01*
X38646810Y-179393646D01*
X38658361Y-179372035D01*
X38665474Y-179348586D01*
X38667876Y-179324200D01*
X38665474Y-179299814D01*
X38658361Y-179276365D01*
X38646810Y-179254754D01*
X38631264Y-179235812D01*
X38612322Y-179220266D01*
X38590712Y-179208715D01*
X38402500Y-179130755D01*
X38230476Y-179015812D01*
X38084188Y-178869524D01*
X37969245Y-178697500D01*
X37890071Y-178506357D01*
X37849710Y-178303446D01*
X37849710Y-178096554D01*
X37890071Y-177893643D01*
X37969245Y-177702500D01*
X38084188Y-177530476D01*
X38230476Y-177384188D01*
X38402500Y-177269245D01*
X38593643Y-177190071D01*
X38796554Y-177149710D01*
X39003446Y-177149710D01*
X39206357Y-177190071D01*
X39206357Y-177190071D01*
G37*
G36*
X35450800Y-180500800D02*
X32549200Y-180500800D01*
X32549200Y-179499200D01*
X35450800Y-179499200D01*
X35450800Y-180500800D01*
X35450800Y-180500800D01*
G37*
G36*
X24688793Y-177754013D02*
X24829978Y-177812494D01*
X24957047Y-177897399D01*
X25065101Y-178005453D01*
X25150006Y-178132522D01*
X25208487Y-178273707D01*
X25238300Y-178423589D01*
X25238300Y-178576411D01*
X25208487Y-178726293D01*
X25150006Y-178867478D01*
X25065101Y-178994547D01*
X24957047Y-179102601D01*
X24829978Y-179187506D01*
X24688793Y-179245987D01*
X24538911Y-179275800D01*
X24386089Y-179275800D01*
X24236207Y-179245987D01*
X24095022Y-179187506D01*
X23967953Y-179102601D01*
X23859899Y-178994547D01*
X23774994Y-178867478D01*
X23716513Y-178726293D01*
X23686700Y-178576411D01*
X23686700Y-178423589D01*
X23716513Y-178273707D01*
X23774994Y-178132522D01*
X23859899Y-178005453D01*
X23967953Y-177897399D01*
X24095022Y-177812494D01*
X24236207Y-177754013D01*
X24386089Y-177724200D01*
X24538911Y-177724200D01*
X24688793Y-177754013D01*
X24688793Y-177754013D01*
G37*
G36*
X30354416Y-177826131D02*
X30481952Y-177878958D01*
X30596737Y-177955655D01*
X30694345Y-178053263D01*
X30771042Y-178168048D01*
X30823869Y-178295584D01*
X30850800Y-178430976D01*
X30850800Y-178569024D01*
X30823869Y-178704416D01*
X30771042Y-178831952D01*
X30694345Y-178946737D01*
X30596737Y-179044345D01*
X30481952Y-179121042D01*
X30354416Y-179173869D01*
X30219024Y-179200800D01*
X30080976Y-179200800D01*
X29945584Y-179173869D01*
X29818048Y-179121042D01*
X29703263Y-179044345D01*
X29605655Y-178946737D01*
X29528958Y-178831952D01*
X29476131Y-178704416D01*
X29449200Y-178569024D01*
X29449200Y-178430976D01*
X29476131Y-178295584D01*
X29528958Y-178168048D01*
X29605655Y-178053263D01*
X29703263Y-177955655D01*
X29818048Y-177878958D01*
X29945584Y-177826131D01*
X30080976Y-177799200D01*
X30219024Y-177799200D01*
X30354416Y-177826131D01*
X30354416Y-177826131D01*
G37*
G36*
X22192271Y-176853909D02*
X22240079Y-176858617D01*
X22362755Y-176895831D01*
X22362758Y-176895832D01*
X22475814Y-176956261D01*
X22574911Y-177037589D01*
X22656239Y-177136686D01*
X22716668Y-177249742D01*
X22716669Y-177249745D01*
X22753883Y-177372421D01*
X22766448Y-177500000D01*
X22753883Y-177627579D01*
X22731155Y-177702501D01*
X22716668Y-177750258D01*
X22656239Y-177863314D01*
X22574911Y-177962411D01*
X22475814Y-178043739D01*
X22362758Y-178104168D01*
X22362755Y-178104169D01*
X22240079Y-178141383D01*
X22192271Y-178146091D01*
X22144465Y-178150800D01*
X21380535Y-178150800D01*
X21332729Y-178146091D01*
X21284921Y-178141383D01*
X21162245Y-178104169D01*
X21162242Y-178104168D01*
X21049186Y-178043739D01*
X20950089Y-177962411D01*
X20868761Y-177863314D01*
X20808332Y-177750258D01*
X20793845Y-177702501D01*
X20771117Y-177627579D01*
X20758552Y-177500000D01*
X20771117Y-177372421D01*
X20808331Y-177249745D01*
X20808332Y-177249742D01*
X20868761Y-177136686D01*
X20950089Y-177037589D01*
X21049186Y-176956261D01*
X21162242Y-176895832D01*
X21162245Y-176895831D01*
X21284921Y-176858617D01*
X21332729Y-176853909D01*
X21380535Y-176849200D01*
X22144465Y-176849200D01*
X22192271Y-176853909D01*
X22192271Y-176853909D01*
G37*
G36*
X35450800Y-178000800D02*
X32549200Y-178000800D01*
X32549200Y-176999200D01*
X35450800Y-176999200D01*
X35450800Y-178000800D01*
X35450800Y-178000800D01*
G37*
G36*
X39206357Y-174790071D02*
X39397500Y-174869245D01*
X39569524Y-174984188D01*
X39715812Y-175130476D01*
X39830755Y-175302500D01*
X39909929Y-175493643D01*
X39950290Y-175696554D01*
X39950290Y-175903446D01*
X39909929Y-176106357D01*
X39830755Y-176297500D01*
X39715812Y-176469524D01*
X39569524Y-176615812D01*
X39397500Y-176730755D01*
X39206357Y-176809929D01*
X39003446Y-176850290D01*
X38796554Y-176850290D01*
X38593643Y-176809929D01*
X38402500Y-176730755D01*
X38230476Y-176615812D01*
X38084188Y-176469524D01*
X37969245Y-176297500D01*
X37890071Y-176106357D01*
X37849710Y-175903446D01*
X37849710Y-175696554D01*
X37890071Y-175493643D01*
X37969245Y-175302500D01*
X38084188Y-175130476D01*
X38230476Y-174984188D01*
X38402500Y-174869245D01*
X38593643Y-174790071D01*
X38796554Y-174749710D01*
X39003446Y-174749710D01*
X39206357Y-174790071D01*
X39206357Y-174790071D01*
G37*
G36*
X34300800Y-175050800D02*
X29199200Y-175050800D01*
X29199200Y-172449200D01*
X34300800Y-172449200D01*
X34300800Y-175050800D01*
X34300800Y-175050800D01*
G37*
G36*
X38906357Y-172390071D02*
X39097500Y-172469245D01*
X39269524Y-172584188D01*
X39415812Y-172730476D01*
X39530755Y-172902500D01*
X39609929Y-173093643D01*
X39650290Y-173296554D01*
X39650290Y-173503446D01*
X39609929Y-173706357D01*
X39530755Y-173897500D01*
X39415812Y-174069524D01*
X39269524Y-174215812D01*
X39097500Y-174330755D01*
X38906357Y-174409929D01*
X38703446Y-174450290D01*
X38496554Y-174450290D01*
X38293643Y-174409929D01*
X38102500Y-174330755D01*
X37930476Y-174215812D01*
X37784188Y-174069524D01*
X37669245Y-173897500D01*
X37590071Y-173706357D01*
X37549710Y-173503446D01*
X37549710Y-173296554D01*
X37590071Y-173093643D01*
X37669245Y-172902500D01*
X37784188Y-172730476D01*
X37930476Y-172584188D01*
X38102500Y-172469245D01*
X38293643Y-172390071D01*
X38496554Y-172349710D01*
X38703446Y-172349710D01*
X38906357Y-172390071D01*
X38906357Y-172390071D01*
G37*
M02*
