G04 #@! TF.GenerationSoftware,KiCad,Pcbnew,(5.0.2)-1*
G04 #@! TF.CreationDate,2019-05-05T23:42:23+01:00*
G04 #@! TF.ProjectId,power-bank-upgrade,706f7765-722d-4626-916e-6b2d75706772,rev?*
G04 #@! TF.SameCoordinates,Original*
G04 #@! TF.FileFunction,Copper,L1,Top*
G04 #@! TF.FilePolarity,Positive*
%FSLAX46Y46*%
G04 Gerber Fmt 4.6, Leading zero omitted, Abs format (unit mm)*
G04 Created by KiCad (PCBNEW (5.0.2)-1) date 05/05/2019 23:42:23*
%MOMM*%
%LPD*%
G01*
G04 APERTURE LIST*
G04 #@! TA.AperFunction,ComponentPad*
%ADD10C,1.998980*%
G04 #@! TD*
G04 #@! TA.AperFunction,SMDPad,CuDef*
%ADD11R,5.000000X2.500000*%
G04 #@! TD*
G04 #@! TA.AperFunction,SMDPad,CuDef*
%ADD12R,2.800000X0.900000*%
G04 #@! TD*
G04 #@! TA.AperFunction,Conductor*
%ADD13C,0.100000*%
G04 #@! TD*
G04 #@! TA.AperFunction,SMDPad,CuDef*
%ADD14C,0.975000*%
G04 #@! TD*
G04 #@! TA.AperFunction,ComponentPad*
%ADD15C,1.450000*%
G04 #@! TD*
G04 #@! TA.AperFunction,ComponentPad*
%ADD16O,1.900000X1.200000*%
G04 #@! TD*
G04 #@! TA.AperFunction,ViaPad*
%ADD17C,0.800000*%
G04 #@! TD*
G04 #@! TA.AperFunction,ViaPad*
%ADD18C,0.508000*%
G04 #@! TD*
G04 #@! TA.AperFunction,Conductor*
%ADD19C,0.152400*%
G04 #@! TD*
G04 #@! TA.AperFunction,Conductor*
%ADD20C,0.600000*%
G04 #@! TD*
G04 #@! TA.AperFunction,Conductor*
%ADD21C,0.304800*%
G04 #@! TD*
G04 #@! TA.AperFunction,Conductor*
%ADD22C,0.254000*%
G04 #@! TD*
G04 APERTURE END LIST*
D10*
G04 #@! TO.P,J6,1*
G04 #@! TO.N,Net-(J6-Pad1)*
X26800000Y-184000000D03*
G04 #@! TD*
G04 #@! TO.P,GND,1*
G04 #@! TO.N,GNDA*
X38900000Y-178200000D03*
G04 #@! TD*
G04 #@! TO.P,BATT,1*
G04 #@! TO.N,/VBATT*
X38900000Y-175800000D03*
G04 #@! TD*
G04 #@! TO.P,NTC,1*
G04 #@! TO.N,/NTC+*
X38600000Y-173400000D03*
G04 #@! TD*
D11*
G04 #@! TO.P,J2,5*
G04 #@! TO.N,GNDA*
X31750000Y-188250000D03*
D12*
G04 #@! TO.P,J2,1*
G04 #@! TO.N,Net-(C3-Pad1)*
X34000000Y-177500000D03*
G04 #@! TO.P,J2,2*
G04 #@! TO.N,Net-(J2-Pad2)*
X34000000Y-180000000D03*
G04 #@! TO.P,J2,3*
G04 #@! TO.N,Net-(J2-Pad3)*
X34000000Y-182000000D03*
G04 #@! TO.P,J2,4*
G04 #@! TO.N,GNDA*
X34000000Y-184500000D03*
D11*
G04 #@! TO.P,J2,5*
X31750000Y-173750000D03*
G04 #@! TD*
D13*
G04 #@! TO.N,Net-(C3-Pad1)*
G04 #@! TO.C,C3*
G36*
X37130142Y-179501174D02*
X37153803Y-179504684D01*
X37177007Y-179510496D01*
X37199529Y-179518554D01*
X37221153Y-179528782D01*
X37241670Y-179541079D01*
X37260883Y-179555329D01*
X37278607Y-179571393D01*
X37294671Y-179589117D01*
X37308921Y-179608330D01*
X37321218Y-179628847D01*
X37331446Y-179650471D01*
X37339504Y-179672993D01*
X37345316Y-179696197D01*
X37348826Y-179719858D01*
X37350000Y-179743750D01*
X37350000Y-180656250D01*
X37348826Y-180680142D01*
X37345316Y-180703803D01*
X37339504Y-180727007D01*
X37331446Y-180749529D01*
X37321218Y-180771153D01*
X37308921Y-180791670D01*
X37294671Y-180810883D01*
X37278607Y-180828607D01*
X37260883Y-180844671D01*
X37241670Y-180858921D01*
X37221153Y-180871218D01*
X37199529Y-180881446D01*
X37177007Y-180889504D01*
X37153803Y-180895316D01*
X37130142Y-180898826D01*
X37106250Y-180900000D01*
X36618750Y-180900000D01*
X36594858Y-180898826D01*
X36571197Y-180895316D01*
X36547993Y-180889504D01*
X36525471Y-180881446D01*
X36503847Y-180871218D01*
X36483330Y-180858921D01*
X36464117Y-180844671D01*
X36446393Y-180828607D01*
X36430329Y-180810883D01*
X36416079Y-180791670D01*
X36403782Y-180771153D01*
X36393554Y-180749529D01*
X36385496Y-180727007D01*
X36379684Y-180703803D01*
X36376174Y-180680142D01*
X36375000Y-180656250D01*
X36375000Y-179743750D01*
X36376174Y-179719858D01*
X36379684Y-179696197D01*
X36385496Y-179672993D01*
X36393554Y-179650471D01*
X36403782Y-179628847D01*
X36416079Y-179608330D01*
X36430329Y-179589117D01*
X36446393Y-179571393D01*
X36464117Y-179555329D01*
X36483330Y-179541079D01*
X36503847Y-179528782D01*
X36525471Y-179518554D01*
X36547993Y-179510496D01*
X36571197Y-179504684D01*
X36594858Y-179501174D01*
X36618750Y-179500000D01*
X37106250Y-179500000D01*
X37130142Y-179501174D01*
X37130142Y-179501174D01*
G37*
D14*
G04 #@! TD*
G04 #@! TO.P,C3,1*
G04 #@! TO.N,Net-(C3-Pad1)*
X36862500Y-180200000D03*
D13*
G04 #@! TO.N,GNDA*
G04 #@! TO.C,C3*
G36*
X39005142Y-179501174D02*
X39028803Y-179504684D01*
X39052007Y-179510496D01*
X39074529Y-179518554D01*
X39096153Y-179528782D01*
X39116670Y-179541079D01*
X39135883Y-179555329D01*
X39153607Y-179571393D01*
X39169671Y-179589117D01*
X39183921Y-179608330D01*
X39196218Y-179628847D01*
X39206446Y-179650471D01*
X39214504Y-179672993D01*
X39220316Y-179696197D01*
X39223826Y-179719858D01*
X39225000Y-179743750D01*
X39225000Y-180656250D01*
X39223826Y-180680142D01*
X39220316Y-180703803D01*
X39214504Y-180727007D01*
X39206446Y-180749529D01*
X39196218Y-180771153D01*
X39183921Y-180791670D01*
X39169671Y-180810883D01*
X39153607Y-180828607D01*
X39135883Y-180844671D01*
X39116670Y-180858921D01*
X39096153Y-180871218D01*
X39074529Y-180881446D01*
X39052007Y-180889504D01*
X39028803Y-180895316D01*
X39005142Y-180898826D01*
X38981250Y-180900000D01*
X38493750Y-180900000D01*
X38469858Y-180898826D01*
X38446197Y-180895316D01*
X38422993Y-180889504D01*
X38400471Y-180881446D01*
X38378847Y-180871218D01*
X38358330Y-180858921D01*
X38339117Y-180844671D01*
X38321393Y-180828607D01*
X38305329Y-180810883D01*
X38291079Y-180791670D01*
X38278782Y-180771153D01*
X38268554Y-180749529D01*
X38260496Y-180727007D01*
X38254684Y-180703803D01*
X38251174Y-180680142D01*
X38250000Y-180656250D01*
X38250000Y-179743750D01*
X38251174Y-179719858D01*
X38254684Y-179696197D01*
X38260496Y-179672993D01*
X38268554Y-179650471D01*
X38278782Y-179628847D01*
X38291079Y-179608330D01*
X38305329Y-179589117D01*
X38321393Y-179571393D01*
X38339117Y-179555329D01*
X38358330Y-179541079D01*
X38378847Y-179528782D01*
X38400471Y-179518554D01*
X38422993Y-179510496D01*
X38446197Y-179504684D01*
X38469858Y-179501174D01*
X38493750Y-179500000D01*
X38981250Y-179500000D01*
X39005142Y-179501174D01*
X39005142Y-179501174D01*
G37*
D14*
G04 #@! TD*
G04 #@! TO.P,C3,2*
G04 #@! TO.N,GNDA*
X38737500Y-180200000D03*
D13*
G04 #@! TO.N,Net-(C3-Pad1)*
G04 #@! TO.C,C4*
G36*
X37192642Y-181501174D02*
X37216303Y-181504684D01*
X37239507Y-181510496D01*
X37262029Y-181518554D01*
X37283653Y-181528782D01*
X37304170Y-181541079D01*
X37323383Y-181555329D01*
X37341107Y-181571393D01*
X37357171Y-181589117D01*
X37371421Y-181608330D01*
X37383718Y-181628847D01*
X37393946Y-181650471D01*
X37402004Y-181672993D01*
X37407816Y-181696197D01*
X37411326Y-181719858D01*
X37412500Y-181743750D01*
X37412500Y-182656250D01*
X37411326Y-182680142D01*
X37407816Y-182703803D01*
X37402004Y-182727007D01*
X37393946Y-182749529D01*
X37383718Y-182771153D01*
X37371421Y-182791670D01*
X37357171Y-182810883D01*
X37341107Y-182828607D01*
X37323383Y-182844671D01*
X37304170Y-182858921D01*
X37283653Y-182871218D01*
X37262029Y-182881446D01*
X37239507Y-182889504D01*
X37216303Y-182895316D01*
X37192642Y-182898826D01*
X37168750Y-182900000D01*
X36681250Y-182900000D01*
X36657358Y-182898826D01*
X36633697Y-182895316D01*
X36610493Y-182889504D01*
X36587971Y-182881446D01*
X36566347Y-182871218D01*
X36545830Y-182858921D01*
X36526617Y-182844671D01*
X36508893Y-182828607D01*
X36492829Y-182810883D01*
X36478579Y-182791670D01*
X36466282Y-182771153D01*
X36456054Y-182749529D01*
X36447996Y-182727007D01*
X36442184Y-182703803D01*
X36438674Y-182680142D01*
X36437500Y-182656250D01*
X36437500Y-181743750D01*
X36438674Y-181719858D01*
X36442184Y-181696197D01*
X36447996Y-181672993D01*
X36456054Y-181650471D01*
X36466282Y-181628847D01*
X36478579Y-181608330D01*
X36492829Y-181589117D01*
X36508893Y-181571393D01*
X36526617Y-181555329D01*
X36545830Y-181541079D01*
X36566347Y-181528782D01*
X36587971Y-181518554D01*
X36610493Y-181510496D01*
X36633697Y-181504684D01*
X36657358Y-181501174D01*
X36681250Y-181500000D01*
X37168750Y-181500000D01*
X37192642Y-181501174D01*
X37192642Y-181501174D01*
G37*
D14*
G04 #@! TD*
G04 #@! TO.P,C4,1*
G04 #@! TO.N,Net-(C3-Pad1)*
X36925000Y-182200000D03*
D13*
G04 #@! TO.N,GNDA*
G04 #@! TO.C,C4*
G36*
X39067642Y-181501174D02*
X39091303Y-181504684D01*
X39114507Y-181510496D01*
X39137029Y-181518554D01*
X39158653Y-181528782D01*
X39179170Y-181541079D01*
X39198383Y-181555329D01*
X39216107Y-181571393D01*
X39232171Y-181589117D01*
X39246421Y-181608330D01*
X39258718Y-181628847D01*
X39268946Y-181650471D01*
X39277004Y-181672993D01*
X39282816Y-181696197D01*
X39286326Y-181719858D01*
X39287500Y-181743750D01*
X39287500Y-182656250D01*
X39286326Y-182680142D01*
X39282816Y-182703803D01*
X39277004Y-182727007D01*
X39268946Y-182749529D01*
X39258718Y-182771153D01*
X39246421Y-182791670D01*
X39232171Y-182810883D01*
X39216107Y-182828607D01*
X39198383Y-182844671D01*
X39179170Y-182858921D01*
X39158653Y-182871218D01*
X39137029Y-182881446D01*
X39114507Y-182889504D01*
X39091303Y-182895316D01*
X39067642Y-182898826D01*
X39043750Y-182900000D01*
X38556250Y-182900000D01*
X38532358Y-182898826D01*
X38508697Y-182895316D01*
X38485493Y-182889504D01*
X38462971Y-182881446D01*
X38441347Y-182871218D01*
X38420830Y-182858921D01*
X38401617Y-182844671D01*
X38383893Y-182828607D01*
X38367829Y-182810883D01*
X38353579Y-182791670D01*
X38341282Y-182771153D01*
X38331054Y-182749529D01*
X38322996Y-182727007D01*
X38317184Y-182703803D01*
X38313674Y-182680142D01*
X38312500Y-182656250D01*
X38312500Y-181743750D01*
X38313674Y-181719858D01*
X38317184Y-181696197D01*
X38322996Y-181672993D01*
X38331054Y-181650471D01*
X38341282Y-181628847D01*
X38353579Y-181608330D01*
X38367829Y-181589117D01*
X38383893Y-181571393D01*
X38401617Y-181555329D01*
X38420830Y-181541079D01*
X38441347Y-181528782D01*
X38462971Y-181518554D01*
X38485493Y-181510496D01*
X38508697Y-181504684D01*
X38532358Y-181501174D01*
X38556250Y-181500000D01*
X39043750Y-181500000D01*
X39067642Y-181501174D01*
X39067642Y-181501174D01*
G37*
D14*
G04 #@! TD*
G04 #@! TO.P,C4,2*
G04 #@! TO.N,GNDA*
X38800000Y-182200000D03*
D15*
G04 #@! TO.P,J1,6*
G04 #@! TO.N,GNDA*
X24462500Y-183500000D03*
X24462500Y-178500000D03*
D16*
X21762500Y-184500000D03*
X21762500Y-177500000D03*
G04 #@! TD*
D17*
G04 #@! TO.N,VCC*
X23000000Y-185800000D03*
X26600000Y-186000000D03*
X33400000Y-175800000D03*
X30200000Y-186000000D03*
X33200000Y-186112079D03*
D18*
G04 #@! TO.N,GNDA*
X35600000Y-183600000D03*
D17*
X31400000Y-175800000D03*
X36800000Y-174800000D03*
X34428610Y-178520183D03*
D18*
G04 #@! TO.N,Net-(C3-Pad1)*
X34800000Y-181000000D03*
X34100000Y-181000000D03*
X33400000Y-181000000D03*
D17*
G04 #@! TO.N,Net-(D2-Pad1)*
X24000000Y-185800000D03*
D18*
X36182840Y-184255184D03*
D17*
G04 #@! TO.N,Net-(D3-Pad1)*
X27593870Y-185980032D03*
D18*
X36883891Y-183800000D03*
D17*
G04 #@! TO.N,Net-(D4-Pad1)*
X31400000Y-186000000D03*
D18*
X37218837Y-184586617D03*
D17*
G04 #@! TO.N,Net-(J2-Pad2)*
X30386856Y-180971390D03*
G04 #@! TO.N,Net-(J2-Pad3)*
X29067202Y-180061709D03*
D18*
G04 #@! TO.N,Net-(J6-Pad1)*
X29200000Y-181600000D03*
G04 #@! TD*
D19*
G04 #@! TO.N,GNDA*
X34000000Y-184500000D02*
X34950000Y-184500000D01*
D20*
X38737500Y-182137500D02*
X38800000Y-182200000D01*
X38737500Y-180200000D02*
X38737500Y-182137500D01*
X34700000Y-184500000D02*
X35600000Y-183600000D01*
X34000000Y-184500000D02*
X34700000Y-184500000D01*
X31400000Y-174100000D02*
X31750000Y-173750000D01*
X31400000Y-175800000D02*
X31400000Y-174100000D01*
X38737500Y-178362500D02*
X38900000Y-178200000D01*
X38737500Y-180200000D02*
X38737500Y-178362500D01*
G04 #@! TO.N,Net-(C3-Pad1)*
X33400000Y-181000000D02*
X34800000Y-181000000D01*
X35725000Y-181000000D02*
X36925000Y-182200000D01*
X34800000Y-181000000D02*
X35725000Y-181000000D01*
X36925000Y-180262500D02*
X36862500Y-180200000D01*
X36925000Y-182200000D02*
X36925000Y-180262500D01*
X34962500Y-177500000D02*
X34000000Y-177500000D01*
X36862500Y-179400000D02*
X34962500Y-177500000D01*
X36862500Y-180200000D02*
X36862500Y-179400000D01*
D19*
G04 #@! TO.N,Net-(D2-Pad1)*
X36182840Y-184614394D02*
X35618633Y-185178601D01*
X24399999Y-185400001D02*
X24000000Y-185800000D01*
X35618633Y-185178601D02*
X32459994Y-185178601D01*
X32459994Y-185178601D02*
X32410504Y-185228091D01*
X32410504Y-185228091D02*
X24571909Y-185228091D01*
X36182840Y-184255184D02*
X36182840Y-184614394D01*
X24571909Y-185228091D02*
X24399999Y-185400001D01*
G04 #@! TO.N,Net-(D3-Pad1)*
X36883891Y-183800000D02*
X37314262Y-183800000D01*
X35973558Y-186740680D02*
X28354518Y-186740680D01*
X37314262Y-183800000D02*
X37882601Y-184368339D01*
X37882601Y-184368339D02*
X37882601Y-184831637D01*
X37882601Y-184831637D02*
X35973558Y-186740680D01*
X27993869Y-186380031D02*
X27593870Y-185980032D01*
X28354518Y-186740680D02*
X27993869Y-186380031D01*
G04 #@! TO.N,Net-(D4-Pad1)*
X31765685Y-186000000D02*
X31200000Y-186000000D01*
X32069661Y-186000000D02*
X31765685Y-186000000D01*
X32586250Y-185483411D02*
X32069661Y-186000000D01*
X37218837Y-184586617D02*
X36322043Y-185483411D01*
X36322043Y-185483411D02*
X32586250Y-185483411D01*
G04 #@! TO.N,Net-(J2-Pad2)*
X30952541Y-180971390D02*
X30386856Y-180971390D01*
X31923931Y-180000000D02*
X30952541Y-180971390D01*
X34000000Y-180000000D02*
X31923931Y-180000000D01*
G04 #@! TO.N,Net-(J2-Pad3)*
X34000000Y-182000000D02*
X30439808Y-182000000D01*
X29067202Y-180627394D02*
X29067202Y-180061709D01*
X30439808Y-182000000D02*
X29067202Y-180627394D01*
D21*
G04 #@! TO.N,Net-(J6-Pad1)*
X27799489Y-183000511D02*
X29200000Y-181600000D01*
X26800000Y-184000000D02*
X27799489Y-183000511D01*
G04 #@! TD*
D22*
G04 #@! TO.N,GNDA*
G36*
X37429677Y-172618015D02*
X37219510Y-173125404D01*
X37219510Y-173674596D01*
X37429677Y-174181985D01*
X37818015Y-174570323D01*
X38072117Y-174675575D01*
X37729677Y-175018015D01*
X37519510Y-175525404D01*
X37519510Y-176074596D01*
X37729677Y-176581985D01*
X38118015Y-176970323D01*
X38625404Y-177180490D01*
X39174596Y-177180490D01*
X39544001Y-177027478D01*
X39544000Y-189544000D01*
X20456000Y-189544000D01*
X20456000Y-185644649D01*
X22219000Y-185644649D01*
X22219000Y-185955351D01*
X22337900Y-186242401D01*
X22557599Y-186462100D01*
X22844649Y-186581000D01*
X23155351Y-186581000D01*
X23442401Y-186462100D01*
X23500000Y-186404501D01*
X23557599Y-186462100D01*
X23844649Y-186581000D01*
X24155351Y-186581000D01*
X24442401Y-186462100D01*
X24662100Y-186242401D01*
X24781000Y-185955351D01*
X24781000Y-185685291D01*
X25885008Y-185685291D01*
X25819000Y-185844649D01*
X25819000Y-186155351D01*
X25937900Y-186442401D01*
X26157599Y-186662100D01*
X26444649Y-186781000D01*
X26755351Y-186781000D01*
X27042401Y-186662100D01*
X27106919Y-186597582D01*
X27151469Y-186642132D01*
X27438519Y-186761032D01*
X27728292Y-186761032D01*
X27999386Y-187032126D01*
X28024895Y-187070303D01*
X28176127Y-187171353D01*
X28354518Y-187206837D01*
X28399548Y-187197880D01*
X35928528Y-187197880D01*
X35973558Y-187206837D01*
X36018588Y-187197880D01*
X36151949Y-187171353D01*
X36303181Y-187070303D01*
X36328690Y-187032126D01*
X38174047Y-185186769D01*
X38212224Y-185161260D01*
X38313274Y-185010028D01*
X38339801Y-184876667D01*
X38348758Y-184831637D01*
X38339801Y-184786607D01*
X38339801Y-184413369D01*
X38348758Y-184368339D01*
X38313274Y-184189948D01*
X38237731Y-184076890D01*
X38212224Y-184038716D01*
X38174050Y-184013209D01*
X37669394Y-183508554D01*
X37643885Y-183470377D01*
X37492653Y-183369327D01*
X37359292Y-183342800D01*
X37316131Y-183334215D01*
X37253519Y-183271603D01*
X37410688Y-183240340D01*
X37615793Y-183103293D01*
X37752840Y-182898188D01*
X37800964Y-182656250D01*
X37800964Y-181743750D01*
X37752840Y-181501812D01*
X37615793Y-181296707D01*
X37606000Y-181290164D01*
X37606000Y-181024412D01*
X37690340Y-180898188D01*
X37738464Y-180656250D01*
X37738464Y-179743750D01*
X37690340Y-179501812D01*
X37553293Y-179296707D01*
X37533689Y-179283608D01*
X37503987Y-179134287D01*
X37353473Y-178909027D01*
X37296614Y-178871035D01*
X35788464Y-177362886D01*
X35788464Y-177050000D01*
X35758894Y-176901341D01*
X35674686Y-176775314D01*
X35548659Y-176691106D01*
X35400000Y-176661536D01*
X32600000Y-176661536D01*
X32451341Y-176691106D01*
X32325314Y-176775314D01*
X32241106Y-176901341D01*
X32211536Y-177050000D01*
X32211536Y-177950000D01*
X32241106Y-178098659D01*
X32325314Y-178224686D01*
X32451341Y-178308894D01*
X32600000Y-178338464D01*
X34837886Y-178338464D01*
X36029114Y-179529693D01*
X35986536Y-179743750D01*
X35986536Y-180357682D01*
X35792069Y-180319000D01*
X35792065Y-180319000D01*
X35788464Y-180318284D01*
X35788464Y-179550000D01*
X35758894Y-179401341D01*
X35674686Y-179275314D01*
X35548659Y-179191106D01*
X35400000Y-179161536D01*
X32600000Y-179161536D01*
X32451341Y-179191106D01*
X32325314Y-179275314D01*
X32241106Y-179401341D01*
X32212968Y-179542800D01*
X31968961Y-179542800D01*
X31923931Y-179533843D01*
X31878901Y-179542800D01*
X31745540Y-179569327D01*
X31594308Y-179670377D01*
X31568801Y-179708551D01*
X30898660Y-180378693D01*
X30829257Y-180309290D01*
X30542207Y-180190390D01*
X30231505Y-180190390D01*
X29944455Y-180309290D01*
X29724756Y-180528989D01*
X29692719Y-180606333D01*
X29659899Y-180573513D01*
X29729302Y-180504110D01*
X29848202Y-180217060D01*
X29848202Y-179906358D01*
X29729302Y-179619308D01*
X29509603Y-179399609D01*
X29222553Y-179280709D01*
X28911851Y-179280709D01*
X28624801Y-179399609D01*
X28405102Y-179619308D01*
X28286202Y-179906358D01*
X28286202Y-180217060D01*
X28405102Y-180504110D01*
X28619086Y-180718094D01*
X28633681Y-180791464D01*
X28636529Y-180805784D01*
X28737579Y-180957017D01*
X28775756Y-180982526D01*
X28850626Y-181057396D01*
X28840302Y-181061673D01*
X28661673Y-181240302D01*
X28565000Y-181473691D01*
X28565000Y-181480658D01*
X27459466Y-182586194D01*
X27459463Y-182586196D01*
X27323182Y-182722477D01*
X27074596Y-182619510D01*
X26525404Y-182619510D01*
X26018015Y-182829677D01*
X25629677Y-183218015D01*
X25419510Y-183725404D01*
X25419510Y-184274596D01*
X25625082Y-184770891D01*
X24616933Y-184770891D01*
X24571908Y-184761935D01*
X24526883Y-184770891D01*
X24526879Y-184770891D01*
X24393518Y-184797418D01*
X24242286Y-184898468D01*
X24216775Y-184936647D01*
X24134422Y-185019000D01*
X23844649Y-185019000D01*
X23557599Y-185137900D01*
X23500000Y-185195499D01*
X23442401Y-185137900D01*
X23155351Y-185019000D01*
X22844649Y-185019000D01*
X22557599Y-185137900D01*
X22337900Y-185357599D01*
X22219000Y-185644649D01*
X20456000Y-185644649D01*
X20456000Y-178294921D01*
X29119000Y-178294921D01*
X29119000Y-178705079D01*
X29275961Y-179084014D01*
X29565986Y-179374039D01*
X29944921Y-179531000D01*
X30355079Y-179531000D01*
X30734014Y-179374039D01*
X31024039Y-179084014D01*
X31181000Y-178705079D01*
X31181000Y-178294921D01*
X31024039Y-177915986D01*
X30734014Y-177625961D01*
X30355079Y-177469000D01*
X29944921Y-177469000D01*
X29565986Y-177625961D01*
X29275961Y-177915986D01*
X29119000Y-178294921D01*
X20456000Y-178294921D01*
X20456000Y-175644649D01*
X32619000Y-175644649D01*
X32619000Y-175955351D01*
X32737900Y-176242401D01*
X32957599Y-176462100D01*
X33244649Y-176581000D01*
X33555351Y-176581000D01*
X33842401Y-176462100D01*
X34062100Y-176242401D01*
X34181000Y-175955351D01*
X34181000Y-175644649D01*
X34062100Y-175357599D01*
X33842401Y-175137900D01*
X33555351Y-175019000D01*
X33244649Y-175019000D01*
X32957599Y-175137900D01*
X32737900Y-175357599D01*
X32619000Y-175644649D01*
X20456000Y-175644649D01*
X20456000Y-172456000D01*
X37591692Y-172456000D01*
X37429677Y-172618015D01*
X37429677Y-172618015D01*
G37*
X37429677Y-172618015D02*
X37219510Y-173125404D01*
X37219510Y-173674596D01*
X37429677Y-174181985D01*
X37818015Y-174570323D01*
X38072117Y-174675575D01*
X37729677Y-175018015D01*
X37519510Y-175525404D01*
X37519510Y-176074596D01*
X37729677Y-176581985D01*
X38118015Y-176970323D01*
X38625404Y-177180490D01*
X39174596Y-177180490D01*
X39544001Y-177027478D01*
X39544000Y-189544000D01*
X20456000Y-189544000D01*
X20456000Y-185644649D01*
X22219000Y-185644649D01*
X22219000Y-185955351D01*
X22337900Y-186242401D01*
X22557599Y-186462100D01*
X22844649Y-186581000D01*
X23155351Y-186581000D01*
X23442401Y-186462100D01*
X23500000Y-186404501D01*
X23557599Y-186462100D01*
X23844649Y-186581000D01*
X24155351Y-186581000D01*
X24442401Y-186462100D01*
X24662100Y-186242401D01*
X24781000Y-185955351D01*
X24781000Y-185685291D01*
X25885008Y-185685291D01*
X25819000Y-185844649D01*
X25819000Y-186155351D01*
X25937900Y-186442401D01*
X26157599Y-186662100D01*
X26444649Y-186781000D01*
X26755351Y-186781000D01*
X27042401Y-186662100D01*
X27106919Y-186597582D01*
X27151469Y-186642132D01*
X27438519Y-186761032D01*
X27728292Y-186761032D01*
X27999386Y-187032126D01*
X28024895Y-187070303D01*
X28176127Y-187171353D01*
X28354518Y-187206837D01*
X28399548Y-187197880D01*
X35928528Y-187197880D01*
X35973558Y-187206837D01*
X36018588Y-187197880D01*
X36151949Y-187171353D01*
X36303181Y-187070303D01*
X36328690Y-187032126D01*
X38174047Y-185186769D01*
X38212224Y-185161260D01*
X38313274Y-185010028D01*
X38339801Y-184876667D01*
X38348758Y-184831637D01*
X38339801Y-184786607D01*
X38339801Y-184413369D01*
X38348758Y-184368339D01*
X38313274Y-184189948D01*
X38237731Y-184076890D01*
X38212224Y-184038716D01*
X38174050Y-184013209D01*
X37669394Y-183508554D01*
X37643885Y-183470377D01*
X37492653Y-183369327D01*
X37359292Y-183342800D01*
X37316131Y-183334215D01*
X37253519Y-183271603D01*
X37410688Y-183240340D01*
X37615793Y-183103293D01*
X37752840Y-182898188D01*
X37800964Y-182656250D01*
X37800964Y-181743750D01*
X37752840Y-181501812D01*
X37615793Y-181296707D01*
X37606000Y-181290164D01*
X37606000Y-181024412D01*
X37690340Y-180898188D01*
X37738464Y-180656250D01*
X37738464Y-179743750D01*
X37690340Y-179501812D01*
X37553293Y-179296707D01*
X37533689Y-179283608D01*
X37503987Y-179134287D01*
X37353473Y-178909027D01*
X37296614Y-178871035D01*
X35788464Y-177362886D01*
X35788464Y-177050000D01*
X35758894Y-176901341D01*
X35674686Y-176775314D01*
X35548659Y-176691106D01*
X35400000Y-176661536D01*
X32600000Y-176661536D01*
X32451341Y-176691106D01*
X32325314Y-176775314D01*
X32241106Y-176901341D01*
X32211536Y-177050000D01*
X32211536Y-177950000D01*
X32241106Y-178098659D01*
X32325314Y-178224686D01*
X32451341Y-178308894D01*
X32600000Y-178338464D01*
X34837886Y-178338464D01*
X36029114Y-179529693D01*
X35986536Y-179743750D01*
X35986536Y-180357682D01*
X35792069Y-180319000D01*
X35792065Y-180319000D01*
X35788464Y-180318284D01*
X35788464Y-179550000D01*
X35758894Y-179401341D01*
X35674686Y-179275314D01*
X35548659Y-179191106D01*
X35400000Y-179161536D01*
X32600000Y-179161536D01*
X32451341Y-179191106D01*
X32325314Y-179275314D01*
X32241106Y-179401341D01*
X32212968Y-179542800D01*
X31968961Y-179542800D01*
X31923931Y-179533843D01*
X31878901Y-179542800D01*
X31745540Y-179569327D01*
X31594308Y-179670377D01*
X31568801Y-179708551D01*
X30898660Y-180378693D01*
X30829257Y-180309290D01*
X30542207Y-180190390D01*
X30231505Y-180190390D01*
X29944455Y-180309290D01*
X29724756Y-180528989D01*
X29692719Y-180606333D01*
X29659899Y-180573513D01*
X29729302Y-180504110D01*
X29848202Y-180217060D01*
X29848202Y-179906358D01*
X29729302Y-179619308D01*
X29509603Y-179399609D01*
X29222553Y-179280709D01*
X28911851Y-179280709D01*
X28624801Y-179399609D01*
X28405102Y-179619308D01*
X28286202Y-179906358D01*
X28286202Y-180217060D01*
X28405102Y-180504110D01*
X28619086Y-180718094D01*
X28633681Y-180791464D01*
X28636529Y-180805784D01*
X28737579Y-180957017D01*
X28775756Y-180982526D01*
X28850626Y-181057396D01*
X28840302Y-181061673D01*
X28661673Y-181240302D01*
X28565000Y-181473691D01*
X28565000Y-181480658D01*
X27459466Y-182586194D01*
X27459463Y-182586196D01*
X27323182Y-182722477D01*
X27074596Y-182619510D01*
X26525404Y-182619510D01*
X26018015Y-182829677D01*
X25629677Y-183218015D01*
X25419510Y-183725404D01*
X25419510Y-184274596D01*
X25625082Y-184770891D01*
X24616933Y-184770891D01*
X24571908Y-184761935D01*
X24526883Y-184770891D01*
X24526879Y-184770891D01*
X24393518Y-184797418D01*
X24242286Y-184898468D01*
X24216775Y-184936647D01*
X24134422Y-185019000D01*
X23844649Y-185019000D01*
X23557599Y-185137900D01*
X23500000Y-185195499D01*
X23442401Y-185137900D01*
X23155351Y-185019000D01*
X22844649Y-185019000D01*
X22557599Y-185137900D01*
X22337900Y-185357599D01*
X22219000Y-185644649D01*
X20456000Y-185644649D01*
X20456000Y-178294921D01*
X29119000Y-178294921D01*
X29119000Y-178705079D01*
X29275961Y-179084014D01*
X29565986Y-179374039D01*
X29944921Y-179531000D01*
X30355079Y-179531000D01*
X30734014Y-179374039D01*
X31024039Y-179084014D01*
X31181000Y-178705079D01*
X31181000Y-178294921D01*
X31024039Y-177915986D01*
X30734014Y-177625961D01*
X30355079Y-177469000D01*
X29944921Y-177469000D01*
X29565986Y-177625961D01*
X29275961Y-177915986D01*
X29119000Y-178294921D01*
X20456000Y-178294921D01*
X20456000Y-175644649D01*
X32619000Y-175644649D01*
X32619000Y-175955351D01*
X32737900Y-176242401D01*
X32957599Y-176462100D01*
X33244649Y-176581000D01*
X33555351Y-176581000D01*
X33842401Y-176462100D01*
X34062100Y-176242401D01*
X34181000Y-175955351D01*
X34181000Y-175644649D01*
X34062100Y-175357599D01*
X33842401Y-175137900D01*
X33555351Y-175019000D01*
X33244649Y-175019000D01*
X32957599Y-175137900D01*
X32737900Y-175357599D01*
X32619000Y-175644649D01*
X20456000Y-175644649D01*
X20456000Y-172456000D01*
X37591692Y-172456000D01*
X37429677Y-172618015D01*
G36*
X30084678Y-182291449D02*
X30110185Y-182329623D01*
X30148359Y-182355130D01*
X30261417Y-182430673D01*
X30439807Y-182466157D01*
X30484837Y-182457200D01*
X32212968Y-182457200D01*
X32241106Y-182598659D01*
X32325314Y-182724686D01*
X32451341Y-182808894D01*
X32600000Y-182838464D01*
X35400000Y-182838464D01*
X35548659Y-182808894D01*
X35674686Y-182724686D01*
X35758894Y-182598659D01*
X35788464Y-182450000D01*
X35788464Y-182026542D01*
X36049036Y-182287115D01*
X36049036Y-182656250D01*
X36097160Y-182898188D01*
X36234207Y-183103293D01*
X36439312Y-183240340D01*
X36531450Y-183258667D01*
X36524193Y-183261673D01*
X36345564Y-183440302D01*
X36271054Y-183620184D01*
X36056531Y-183620184D01*
X35823142Y-183716857D01*
X35644513Y-183895486D01*
X35547840Y-184128875D01*
X35547840Y-184381493D01*
X35612664Y-184537992D01*
X35429255Y-184721401D01*
X32505022Y-184721401D01*
X32459993Y-184712444D01*
X32414965Y-184721401D01*
X32414964Y-184721401D01*
X32281603Y-184747928D01*
X32247236Y-184770891D01*
X27974918Y-184770891D01*
X28180490Y-184274596D01*
X28180490Y-183725404D01*
X28077523Y-183476818D01*
X28213804Y-183340537D01*
X28213806Y-183340534D01*
X28259419Y-183294921D01*
X29119000Y-183294921D01*
X29119000Y-183705079D01*
X29275961Y-184084014D01*
X29565986Y-184374039D01*
X29944921Y-184531000D01*
X30355079Y-184531000D01*
X30734014Y-184374039D01*
X31024039Y-184084014D01*
X31181000Y-183705079D01*
X31181000Y-183294921D01*
X31024039Y-182915986D01*
X30734014Y-182625961D01*
X30355079Y-182469000D01*
X29944921Y-182469000D01*
X29565986Y-182625961D01*
X29275961Y-182915986D01*
X29119000Y-183294921D01*
X28259419Y-183294921D01*
X29319342Y-182235000D01*
X29326309Y-182235000D01*
X29559698Y-182138327D01*
X29738327Y-181959698D01*
X29742603Y-181949374D01*
X30084678Y-182291449D01*
X30084678Y-182291449D01*
G37*
X30084678Y-182291449D02*
X30110185Y-182329623D01*
X30148359Y-182355130D01*
X30261417Y-182430673D01*
X30439807Y-182466157D01*
X30484837Y-182457200D01*
X32212968Y-182457200D01*
X32241106Y-182598659D01*
X32325314Y-182724686D01*
X32451341Y-182808894D01*
X32600000Y-182838464D01*
X35400000Y-182838464D01*
X35548659Y-182808894D01*
X35674686Y-182724686D01*
X35758894Y-182598659D01*
X35788464Y-182450000D01*
X35788464Y-182026542D01*
X36049036Y-182287115D01*
X36049036Y-182656250D01*
X36097160Y-182898188D01*
X36234207Y-183103293D01*
X36439312Y-183240340D01*
X36531450Y-183258667D01*
X36524193Y-183261673D01*
X36345564Y-183440302D01*
X36271054Y-183620184D01*
X36056531Y-183620184D01*
X35823142Y-183716857D01*
X35644513Y-183895486D01*
X35547840Y-184128875D01*
X35547840Y-184381493D01*
X35612664Y-184537992D01*
X35429255Y-184721401D01*
X32505022Y-184721401D01*
X32459993Y-184712444D01*
X32414965Y-184721401D01*
X32414964Y-184721401D01*
X32281603Y-184747928D01*
X32247236Y-184770891D01*
X27974918Y-184770891D01*
X28180490Y-184274596D01*
X28180490Y-183725404D01*
X28077523Y-183476818D01*
X28213804Y-183340537D01*
X28213806Y-183340534D01*
X28259419Y-183294921D01*
X29119000Y-183294921D01*
X29119000Y-183705079D01*
X29275961Y-184084014D01*
X29565986Y-184374039D01*
X29944921Y-184531000D01*
X30355079Y-184531000D01*
X30734014Y-184374039D01*
X31024039Y-184084014D01*
X31181000Y-183705079D01*
X31181000Y-183294921D01*
X31024039Y-182915986D01*
X30734014Y-182625961D01*
X30355079Y-182469000D01*
X29944921Y-182469000D01*
X29565986Y-182625961D01*
X29275961Y-182915986D01*
X29119000Y-183294921D01*
X28259419Y-183294921D01*
X29319342Y-182235000D01*
X29326309Y-182235000D01*
X29559698Y-182138327D01*
X29738327Y-181959698D01*
X29742603Y-181949374D01*
X30084678Y-182291449D01*
G04 #@! TD*
M02*
