G04 #@! TF.GenerationSoftware,KiCad,Pcbnew,(5.0.2)-1*
G04 #@! TF.CreationDate,2019-05-05T23:42:23+01:00*
G04 #@! TF.ProjectId,power-bank-upgrade,706f7765-722d-4626-916e-6b2d75706772,rev?*
G04 #@! TF.SameCoordinates,Original*
G04 #@! TF.FileFunction,Copper,L3,Inr*
G04 #@! TF.FilePolarity,Positive*
%FSLAX46Y46*%
G04 Gerber Fmt 4.6, Leading zero omitted, Abs format (unit mm)*
G04 Created by KiCad (PCBNEW (5.0.2)-1) date 05/05/2019 23:42:23*
%MOMM*%
%LPD*%
G01*
G04 APERTURE LIST*
G04 #@! TA.AperFunction,ViaPad*
%ADD10C,1.998980*%
G04 #@! TD*
G04 #@! TA.AperFunction,ViaPad*
%ADD11C,1.450000*%
G04 #@! TD*
G04 #@! TA.AperFunction,ViaPad*
%ADD12O,1.900000X1.200000*%
G04 #@! TD*
G04 #@! TA.AperFunction,ViaPad*
%ADD13C,0.800000*%
G04 #@! TD*
G04 #@! TA.AperFunction,ViaPad*
%ADD14C,0.508000*%
G04 #@! TD*
G04 #@! TA.AperFunction,Conductor*
%ADD15C,0.254000*%
G04 #@! TD*
G04 APERTURE END LIST*
D10*
G04 #@! TO.N,Net-(J6-Pad1)*
G04 #@! TO.C,J6*
X26800000Y-184000000D03*
G04 #@! TD*
G04 #@! TO.N,GNDA*
G04 #@! TO.C,GND*
X38900000Y-178200000D03*
G04 #@! TD*
G04 #@! TO.N,/VBATT*
G04 #@! TO.C,BATT*
X38900000Y-175800000D03*
G04 #@! TD*
G04 #@! TO.N,/NTC+*
G04 #@! TO.C,NTC*
X38600000Y-173400000D03*
G04 #@! TD*
D11*
G04 #@! TO.N,GNDA*
G04 #@! TO.C,J1*
X24462500Y-183500000D03*
X24462500Y-178500000D03*
D12*
X21762500Y-184500000D03*
X21762500Y-177500000D03*
G04 #@! TD*
D13*
G04 #@! TO.N,VCC*
X23000000Y-185800000D03*
X26600000Y-186000000D03*
X33400000Y-175800000D03*
X30200000Y-186000000D03*
X33200000Y-186112079D03*
D14*
G04 #@! TO.N,GNDA*
X35600000Y-183600000D03*
D13*
X31400000Y-175800000D03*
X36800000Y-174800000D03*
X34428610Y-178520183D03*
D14*
G04 #@! TO.N,Net-(C3-Pad1)*
X34800000Y-181000000D03*
X34100000Y-181000000D03*
X33400000Y-181000000D03*
D13*
G04 #@! TO.N,Net-(D2-Pad1)*
X24000000Y-185800000D03*
D14*
X36182840Y-184255184D03*
D13*
G04 #@! TO.N,Net-(D3-Pad1)*
X27593870Y-185980032D03*
D14*
X36883891Y-183800000D03*
D13*
G04 #@! TO.N,Net-(D4-Pad1)*
X31400000Y-186000000D03*
D14*
X37218837Y-184586617D03*
D13*
G04 #@! TO.N,Net-(J2-Pad2)*
X30386856Y-180971390D03*
G04 #@! TO.N,Net-(J2-Pad3)*
X29067202Y-180061709D03*
D14*
G04 #@! TO.N,Net-(J6-Pad1)*
X29200000Y-181600000D03*
G04 #@! TD*
D15*
G04 #@! TO.N,VCC*
G36*
X37429677Y-172618015D02*
X37219510Y-173125404D01*
X37219510Y-173674596D01*
X37429677Y-174181985D01*
X37818015Y-174570323D01*
X38072117Y-174675575D01*
X37729677Y-175018015D01*
X37519510Y-175525404D01*
X37519510Y-176074596D01*
X37729677Y-176581985D01*
X38118015Y-176970323D01*
X38189662Y-177000000D01*
X38118015Y-177029677D01*
X37729677Y-177418015D01*
X37519510Y-177925404D01*
X37519510Y-178474596D01*
X37729677Y-178981985D01*
X38118015Y-179370323D01*
X38625404Y-179580490D01*
X39174596Y-179580490D01*
X39544001Y-179427478D01*
X39544000Y-189544000D01*
X20456000Y-189544000D01*
X20456000Y-185644649D01*
X23219000Y-185644649D01*
X23219000Y-185955351D01*
X23337900Y-186242401D01*
X23557599Y-186462100D01*
X23844649Y-186581000D01*
X24155351Y-186581000D01*
X24442401Y-186462100D01*
X24662100Y-186242401D01*
X24781000Y-185955351D01*
X24781000Y-185644649D01*
X24662100Y-185357599D01*
X24442401Y-185137900D01*
X24155351Y-185019000D01*
X23844649Y-185019000D01*
X23557599Y-185137900D01*
X23337900Y-185357599D01*
X23219000Y-185644649D01*
X20456000Y-185644649D01*
X20456000Y-184719785D01*
X20488419Y-184882767D01*
X20705239Y-185207261D01*
X21029733Y-185424081D01*
X21315884Y-185481000D01*
X22209116Y-185481000D01*
X22495267Y-185424081D01*
X22819761Y-185207261D01*
X23036581Y-184882767D01*
X23112718Y-184500000D01*
X23036581Y-184117233D01*
X22819761Y-183792739D01*
X22495267Y-183575919D01*
X22209116Y-183519000D01*
X21315884Y-183519000D01*
X21029733Y-183575919D01*
X20705239Y-183792739D01*
X20488419Y-184117233D01*
X20456000Y-184280215D01*
X20456000Y-183280003D01*
X23356500Y-183280003D01*
X23356500Y-183719997D01*
X23524878Y-184126499D01*
X23836001Y-184437622D01*
X24242503Y-184606000D01*
X24682497Y-184606000D01*
X25088999Y-184437622D01*
X25400122Y-184126499D01*
X25419510Y-184079692D01*
X25419510Y-184274596D01*
X25629677Y-184781985D01*
X26018015Y-185170323D01*
X26525404Y-185380490D01*
X27074596Y-185380490D01*
X27099033Y-185370368D01*
X26931770Y-185537631D01*
X26812870Y-185824681D01*
X26812870Y-186135383D01*
X26931770Y-186422433D01*
X27151469Y-186642132D01*
X27438519Y-186761032D01*
X27749221Y-186761032D01*
X28036271Y-186642132D01*
X28255970Y-186422433D01*
X28374870Y-186135383D01*
X28374870Y-185844649D01*
X30619000Y-185844649D01*
X30619000Y-186155351D01*
X30737900Y-186442401D01*
X30957599Y-186662100D01*
X31244649Y-186781000D01*
X31555351Y-186781000D01*
X31842401Y-186662100D01*
X32062100Y-186442401D01*
X32181000Y-186155351D01*
X32181000Y-185844649D01*
X32062100Y-185557599D01*
X31842401Y-185337900D01*
X31555351Y-185219000D01*
X31244649Y-185219000D01*
X30957599Y-185337900D01*
X30737900Y-185557599D01*
X30619000Y-185844649D01*
X28374870Y-185844649D01*
X28374870Y-185824681D01*
X28255970Y-185537631D01*
X28036271Y-185317932D01*
X27749221Y-185199032D01*
X27512675Y-185199032D01*
X27581985Y-185170323D01*
X27970323Y-184781985D01*
X28180490Y-184274596D01*
X28180490Y-183725404D01*
X28002179Y-183294921D01*
X29119000Y-183294921D01*
X29119000Y-183705079D01*
X29275961Y-184084014D01*
X29565986Y-184374039D01*
X29944921Y-184531000D01*
X30355079Y-184531000D01*
X30734014Y-184374039D01*
X31024039Y-184084014D01*
X31181000Y-183705079D01*
X31181000Y-183473691D01*
X34965000Y-183473691D01*
X34965000Y-183726309D01*
X35061673Y-183959698D01*
X35240302Y-184138327D01*
X35473691Y-184235000D01*
X35547840Y-184235000D01*
X35547840Y-184381493D01*
X35644513Y-184614882D01*
X35823142Y-184793511D01*
X36056531Y-184890184D01*
X36309149Y-184890184D01*
X36542538Y-184793511D01*
X36595344Y-184740705D01*
X36680510Y-184946315D01*
X36859139Y-185124944D01*
X37092528Y-185221617D01*
X37345146Y-185221617D01*
X37578535Y-185124944D01*
X37757164Y-184946315D01*
X37853837Y-184712926D01*
X37853837Y-184460308D01*
X37757164Y-184226919D01*
X37578535Y-184048290D01*
X37484499Y-184009339D01*
X37518891Y-183926309D01*
X37518891Y-183673691D01*
X37422218Y-183440302D01*
X37243589Y-183261673D01*
X37010200Y-183165000D01*
X36757582Y-183165000D01*
X36524193Y-183261673D01*
X36345564Y-183440302D01*
X36271054Y-183620184D01*
X36235000Y-183620184D01*
X36235000Y-183473691D01*
X36138327Y-183240302D01*
X35959698Y-183061673D01*
X35726309Y-182965000D01*
X35473691Y-182965000D01*
X35240302Y-183061673D01*
X35061673Y-183240302D01*
X34965000Y-183473691D01*
X31181000Y-183473691D01*
X31181000Y-183294921D01*
X31024039Y-182915986D01*
X30734014Y-182625961D01*
X30355079Y-182469000D01*
X29944921Y-182469000D01*
X29565986Y-182625961D01*
X29275961Y-182915986D01*
X29119000Y-183294921D01*
X28002179Y-183294921D01*
X27970323Y-183218015D01*
X27581985Y-182829677D01*
X27074596Y-182619510D01*
X26525404Y-182619510D01*
X26018015Y-182829677D01*
X25629677Y-183218015D01*
X25568500Y-183365710D01*
X25568500Y-183280003D01*
X25400122Y-182873501D01*
X25088999Y-182562378D01*
X24682497Y-182394000D01*
X24242503Y-182394000D01*
X23836001Y-182562378D01*
X23524878Y-182873501D01*
X23356500Y-183280003D01*
X20456000Y-183280003D01*
X20456000Y-181473691D01*
X28565000Y-181473691D01*
X28565000Y-181726309D01*
X28661673Y-181959698D01*
X28840302Y-182138327D01*
X29073691Y-182235000D01*
X29326309Y-182235000D01*
X29559698Y-182138327D01*
X29738327Y-181959698D01*
X29835000Y-181726309D01*
X29835000Y-181524035D01*
X29944455Y-181633490D01*
X30231505Y-181752390D01*
X30542207Y-181752390D01*
X30829257Y-181633490D01*
X31048956Y-181413791D01*
X31167856Y-181126741D01*
X31167856Y-180873691D01*
X32765000Y-180873691D01*
X32765000Y-181126309D01*
X32861673Y-181359698D01*
X33040302Y-181538327D01*
X33273691Y-181635000D01*
X33526309Y-181635000D01*
X33750000Y-181542344D01*
X33973691Y-181635000D01*
X34226309Y-181635000D01*
X34450000Y-181542344D01*
X34673691Y-181635000D01*
X34926309Y-181635000D01*
X35159698Y-181538327D01*
X35338327Y-181359698D01*
X35435000Y-181126309D01*
X35435000Y-180873691D01*
X35338327Y-180640302D01*
X35159698Y-180461673D01*
X34926309Y-180365000D01*
X34673691Y-180365000D01*
X34450000Y-180457656D01*
X34226309Y-180365000D01*
X33973691Y-180365000D01*
X33750000Y-180457656D01*
X33526309Y-180365000D01*
X33273691Y-180365000D01*
X33040302Y-180461673D01*
X32861673Y-180640302D01*
X32765000Y-180873691D01*
X31167856Y-180873691D01*
X31167856Y-180816039D01*
X31048956Y-180528989D01*
X30829257Y-180309290D01*
X30542207Y-180190390D01*
X30231505Y-180190390D01*
X29944455Y-180309290D01*
X29724756Y-180528989D01*
X29605856Y-180816039D01*
X29605856Y-181107831D01*
X29559698Y-181061673D01*
X29326309Y-180965000D01*
X29073691Y-180965000D01*
X28840302Y-181061673D01*
X28661673Y-181240302D01*
X28565000Y-181473691D01*
X20456000Y-181473691D01*
X20456000Y-179906358D01*
X28286202Y-179906358D01*
X28286202Y-180217060D01*
X28405102Y-180504110D01*
X28624801Y-180723809D01*
X28911851Y-180842709D01*
X29222553Y-180842709D01*
X29509603Y-180723809D01*
X29729302Y-180504110D01*
X29848202Y-180217060D01*
X29848202Y-179906358D01*
X29729302Y-179619308D01*
X29509603Y-179399609D01*
X29222553Y-179280709D01*
X28911851Y-179280709D01*
X28624801Y-179399609D01*
X28405102Y-179619308D01*
X28286202Y-179906358D01*
X20456000Y-179906358D01*
X20456000Y-177719785D01*
X20488419Y-177882767D01*
X20705239Y-178207261D01*
X21029733Y-178424081D01*
X21315884Y-178481000D01*
X22209116Y-178481000D01*
X22495267Y-178424081D01*
X22710894Y-178280003D01*
X23356500Y-178280003D01*
X23356500Y-178719997D01*
X23524878Y-179126499D01*
X23836001Y-179437622D01*
X24242503Y-179606000D01*
X24682497Y-179606000D01*
X25088999Y-179437622D01*
X25400122Y-179126499D01*
X25568500Y-178719997D01*
X25568500Y-178294921D01*
X29119000Y-178294921D01*
X29119000Y-178705079D01*
X29275961Y-179084014D01*
X29565986Y-179374039D01*
X29944921Y-179531000D01*
X30355079Y-179531000D01*
X30734014Y-179374039D01*
X31024039Y-179084014D01*
X31181000Y-178705079D01*
X31181000Y-178364832D01*
X33647610Y-178364832D01*
X33647610Y-178675534D01*
X33766510Y-178962584D01*
X33986209Y-179182283D01*
X34273259Y-179301183D01*
X34583961Y-179301183D01*
X34871011Y-179182283D01*
X35090710Y-178962584D01*
X35209610Y-178675534D01*
X35209610Y-178364832D01*
X35090710Y-178077782D01*
X34871011Y-177858083D01*
X34583961Y-177739183D01*
X34273259Y-177739183D01*
X33986209Y-177858083D01*
X33766510Y-178077782D01*
X33647610Y-178364832D01*
X31181000Y-178364832D01*
X31181000Y-178294921D01*
X31024039Y-177915986D01*
X30734014Y-177625961D01*
X30355079Y-177469000D01*
X29944921Y-177469000D01*
X29565986Y-177625961D01*
X29275961Y-177915986D01*
X29119000Y-178294921D01*
X25568500Y-178294921D01*
X25568500Y-178280003D01*
X25400122Y-177873501D01*
X25088999Y-177562378D01*
X24682497Y-177394000D01*
X24242503Y-177394000D01*
X23836001Y-177562378D01*
X23524878Y-177873501D01*
X23356500Y-178280003D01*
X22710894Y-178280003D01*
X22819761Y-178207261D01*
X23036581Y-177882767D01*
X23112718Y-177500000D01*
X23036581Y-177117233D01*
X22819761Y-176792739D01*
X22495267Y-176575919D01*
X22209116Y-176519000D01*
X21315884Y-176519000D01*
X21029733Y-176575919D01*
X20705239Y-176792739D01*
X20488419Y-177117233D01*
X20456000Y-177280215D01*
X20456000Y-175644649D01*
X30619000Y-175644649D01*
X30619000Y-175955351D01*
X30737900Y-176242401D01*
X30957599Y-176462100D01*
X31244649Y-176581000D01*
X31555351Y-176581000D01*
X31842401Y-176462100D01*
X32062100Y-176242401D01*
X32181000Y-175955351D01*
X32181000Y-175644649D01*
X32062100Y-175357599D01*
X31842401Y-175137900D01*
X31555351Y-175019000D01*
X31244649Y-175019000D01*
X30957599Y-175137900D01*
X30737900Y-175357599D01*
X30619000Y-175644649D01*
X20456000Y-175644649D01*
X20456000Y-174644649D01*
X36019000Y-174644649D01*
X36019000Y-174955351D01*
X36137900Y-175242401D01*
X36357599Y-175462100D01*
X36644649Y-175581000D01*
X36955351Y-175581000D01*
X37242401Y-175462100D01*
X37462100Y-175242401D01*
X37581000Y-174955351D01*
X37581000Y-174644649D01*
X37462100Y-174357599D01*
X37242401Y-174137900D01*
X36955351Y-174019000D01*
X36644649Y-174019000D01*
X36357599Y-174137900D01*
X36137900Y-174357599D01*
X36019000Y-174644649D01*
X20456000Y-174644649D01*
X20456000Y-172456000D01*
X37591692Y-172456000D01*
X37429677Y-172618015D01*
X37429677Y-172618015D01*
G37*
X37429677Y-172618015D02*
X37219510Y-173125404D01*
X37219510Y-173674596D01*
X37429677Y-174181985D01*
X37818015Y-174570323D01*
X38072117Y-174675575D01*
X37729677Y-175018015D01*
X37519510Y-175525404D01*
X37519510Y-176074596D01*
X37729677Y-176581985D01*
X38118015Y-176970323D01*
X38189662Y-177000000D01*
X38118015Y-177029677D01*
X37729677Y-177418015D01*
X37519510Y-177925404D01*
X37519510Y-178474596D01*
X37729677Y-178981985D01*
X38118015Y-179370323D01*
X38625404Y-179580490D01*
X39174596Y-179580490D01*
X39544001Y-179427478D01*
X39544000Y-189544000D01*
X20456000Y-189544000D01*
X20456000Y-185644649D01*
X23219000Y-185644649D01*
X23219000Y-185955351D01*
X23337900Y-186242401D01*
X23557599Y-186462100D01*
X23844649Y-186581000D01*
X24155351Y-186581000D01*
X24442401Y-186462100D01*
X24662100Y-186242401D01*
X24781000Y-185955351D01*
X24781000Y-185644649D01*
X24662100Y-185357599D01*
X24442401Y-185137900D01*
X24155351Y-185019000D01*
X23844649Y-185019000D01*
X23557599Y-185137900D01*
X23337900Y-185357599D01*
X23219000Y-185644649D01*
X20456000Y-185644649D01*
X20456000Y-184719785D01*
X20488419Y-184882767D01*
X20705239Y-185207261D01*
X21029733Y-185424081D01*
X21315884Y-185481000D01*
X22209116Y-185481000D01*
X22495267Y-185424081D01*
X22819761Y-185207261D01*
X23036581Y-184882767D01*
X23112718Y-184500000D01*
X23036581Y-184117233D01*
X22819761Y-183792739D01*
X22495267Y-183575919D01*
X22209116Y-183519000D01*
X21315884Y-183519000D01*
X21029733Y-183575919D01*
X20705239Y-183792739D01*
X20488419Y-184117233D01*
X20456000Y-184280215D01*
X20456000Y-183280003D01*
X23356500Y-183280003D01*
X23356500Y-183719997D01*
X23524878Y-184126499D01*
X23836001Y-184437622D01*
X24242503Y-184606000D01*
X24682497Y-184606000D01*
X25088999Y-184437622D01*
X25400122Y-184126499D01*
X25419510Y-184079692D01*
X25419510Y-184274596D01*
X25629677Y-184781985D01*
X26018015Y-185170323D01*
X26525404Y-185380490D01*
X27074596Y-185380490D01*
X27099033Y-185370368D01*
X26931770Y-185537631D01*
X26812870Y-185824681D01*
X26812870Y-186135383D01*
X26931770Y-186422433D01*
X27151469Y-186642132D01*
X27438519Y-186761032D01*
X27749221Y-186761032D01*
X28036271Y-186642132D01*
X28255970Y-186422433D01*
X28374870Y-186135383D01*
X28374870Y-185844649D01*
X30619000Y-185844649D01*
X30619000Y-186155351D01*
X30737900Y-186442401D01*
X30957599Y-186662100D01*
X31244649Y-186781000D01*
X31555351Y-186781000D01*
X31842401Y-186662100D01*
X32062100Y-186442401D01*
X32181000Y-186155351D01*
X32181000Y-185844649D01*
X32062100Y-185557599D01*
X31842401Y-185337900D01*
X31555351Y-185219000D01*
X31244649Y-185219000D01*
X30957599Y-185337900D01*
X30737900Y-185557599D01*
X30619000Y-185844649D01*
X28374870Y-185844649D01*
X28374870Y-185824681D01*
X28255970Y-185537631D01*
X28036271Y-185317932D01*
X27749221Y-185199032D01*
X27512675Y-185199032D01*
X27581985Y-185170323D01*
X27970323Y-184781985D01*
X28180490Y-184274596D01*
X28180490Y-183725404D01*
X28002179Y-183294921D01*
X29119000Y-183294921D01*
X29119000Y-183705079D01*
X29275961Y-184084014D01*
X29565986Y-184374039D01*
X29944921Y-184531000D01*
X30355079Y-184531000D01*
X30734014Y-184374039D01*
X31024039Y-184084014D01*
X31181000Y-183705079D01*
X31181000Y-183473691D01*
X34965000Y-183473691D01*
X34965000Y-183726309D01*
X35061673Y-183959698D01*
X35240302Y-184138327D01*
X35473691Y-184235000D01*
X35547840Y-184235000D01*
X35547840Y-184381493D01*
X35644513Y-184614882D01*
X35823142Y-184793511D01*
X36056531Y-184890184D01*
X36309149Y-184890184D01*
X36542538Y-184793511D01*
X36595344Y-184740705D01*
X36680510Y-184946315D01*
X36859139Y-185124944D01*
X37092528Y-185221617D01*
X37345146Y-185221617D01*
X37578535Y-185124944D01*
X37757164Y-184946315D01*
X37853837Y-184712926D01*
X37853837Y-184460308D01*
X37757164Y-184226919D01*
X37578535Y-184048290D01*
X37484499Y-184009339D01*
X37518891Y-183926309D01*
X37518891Y-183673691D01*
X37422218Y-183440302D01*
X37243589Y-183261673D01*
X37010200Y-183165000D01*
X36757582Y-183165000D01*
X36524193Y-183261673D01*
X36345564Y-183440302D01*
X36271054Y-183620184D01*
X36235000Y-183620184D01*
X36235000Y-183473691D01*
X36138327Y-183240302D01*
X35959698Y-183061673D01*
X35726309Y-182965000D01*
X35473691Y-182965000D01*
X35240302Y-183061673D01*
X35061673Y-183240302D01*
X34965000Y-183473691D01*
X31181000Y-183473691D01*
X31181000Y-183294921D01*
X31024039Y-182915986D01*
X30734014Y-182625961D01*
X30355079Y-182469000D01*
X29944921Y-182469000D01*
X29565986Y-182625961D01*
X29275961Y-182915986D01*
X29119000Y-183294921D01*
X28002179Y-183294921D01*
X27970323Y-183218015D01*
X27581985Y-182829677D01*
X27074596Y-182619510D01*
X26525404Y-182619510D01*
X26018015Y-182829677D01*
X25629677Y-183218015D01*
X25568500Y-183365710D01*
X25568500Y-183280003D01*
X25400122Y-182873501D01*
X25088999Y-182562378D01*
X24682497Y-182394000D01*
X24242503Y-182394000D01*
X23836001Y-182562378D01*
X23524878Y-182873501D01*
X23356500Y-183280003D01*
X20456000Y-183280003D01*
X20456000Y-181473691D01*
X28565000Y-181473691D01*
X28565000Y-181726309D01*
X28661673Y-181959698D01*
X28840302Y-182138327D01*
X29073691Y-182235000D01*
X29326309Y-182235000D01*
X29559698Y-182138327D01*
X29738327Y-181959698D01*
X29835000Y-181726309D01*
X29835000Y-181524035D01*
X29944455Y-181633490D01*
X30231505Y-181752390D01*
X30542207Y-181752390D01*
X30829257Y-181633490D01*
X31048956Y-181413791D01*
X31167856Y-181126741D01*
X31167856Y-180873691D01*
X32765000Y-180873691D01*
X32765000Y-181126309D01*
X32861673Y-181359698D01*
X33040302Y-181538327D01*
X33273691Y-181635000D01*
X33526309Y-181635000D01*
X33750000Y-181542344D01*
X33973691Y-181635000D01*
X34226309Y-181635000D01*
X34450000Y-181542344D01*
X34673691Y-181635000D01*
X34926309Y-181635000D01*
X35159698Y-181538327D01*
X35338327Y-181359698D01*
X35435000Y-181126309D01*
X35435000Y-180873691D01*
X35338327Y-180640302D01*
X35159698Y-180461673D01*
X34926309Y-180365000D01*
X34673691Y-180365000D01*
X34450000Y-180457656D01*
X34226309Y-180365000D01*
X33973691Y-180365000D01*
X33750000Y-180457656D01*
X33526309Y-180365000D01*
X33273691Y-180365000D01*
X33040302Y-180461673D01*
X32861673Y-180640302D01*
X32765000Y-180873691D01*
X31167856Y-180873691D01*
X31167856Y-180816039D01*
X31048956Y-180528989D01*
X30829257Y-180309290D01*
X30542207Y-180190390D01*
X30231505Y-180190390D01*
X29944455Y-180309290D01*
X29724756Y-180528989D01*
X29605856Y-180816039D01*
X29605856Y-181107831D01*
X29559698Y-181061673D01*
X29326309Y-180965000D01*
X29073691Y-180965000D01*
X28840302Y-181061673D01*
X28661673Y-181240302D01*
X28565000Y-181473691D01*
X20456000Y-181473691D01*
X20456000Y-179906358D01*
X28286202Y-179906358D01*
X28286202Y-180217060D01*
X28405102Y-180504110D01*
X28624801Y-180723809D01*
X28911851Y-180842709D01*
X29222553Y-180842709D01*
X29509603Y-180723809D01*
X29729302Y-180504110D01*
X29848202Y-180217060D01*
X29848202Y-179906358D01*
X29729302Y-179619308D01*
X29509603Y-179399609D01*
X29222553Y-179280709D01*
X28911851Y-179280709D01*
X28624801Y-179399609D01*
X28405102Y-179619308D01*
X28286202Y-179906358D01*
X20456000Y-179906358D01*
X20456000Y-177719785D01*
X20488419Y-177882767D01*
X20705239Y-178207261D01*
X21029733Y-178424081D01*
X21315884Y-178481000D01*
X22209116Y-178481000D01*
X22495267Y-178424081D01*
X22710894Y-178280003D01*
X23356500Y-178280003D01*
X23356500Y-178719997D01*
X23524878Y-179126499D01*
X23836001Y-179437622D01*
X24242503Y-179606000D01*
X24682497Y-179606000D01*
X25088999Y-179437622D01*
X25400122Y-179126499D01*
X25568500Y-178719997D01*
X25568500Y-178294921D01*
X29119000Y-178294921D01*
X29119000Y-178705079D01*
X29275961Y-179084014D01*
X29565986Y-179374039D01*
X29944921Y-179531000D01*
X30355079Y-179531000D01*
X30734014Y-179374039D01*
X31024039Y-179084014D01*
X31181000Y-178705079D01*
X31181000Y-178364832D01*
X33647610Y-178364832D01*
X33647610Y-178675534D01*
X33766510Y-178962584D01*
X33986209Y-179182283D01*
X34273259Y-179301183D01*
X34583961Y-179301183D01*
X34871011Y-179182283D01*
X35090710Y-178962584D01*
X35209610Y-178675534D01*
X35209610Y-178364832D01*
X35090710Y-178077782D01*
X34871011Y-177858083D01*
X34583961Y-177739183D01*
X34273259Y-177739183D01*
X33986209Y-177858083D01*
X33766510Y-178077782D01*
X33647610Y-178364832D01*
X31181000Y-178364832D01*
X31181000Y-178294921D01*
X31024039Y-177915986D01*
X30734014Y-177625961D01*
X30355079Y-177469000D01*
X29944921Y-177469000D01*
X29565986Y-177625961D01*
X29275961Y-177915986D01*
X29119000Y-178294921D01*
X25568500Y-178294921D01*
X25568500Y-178280003D01*
X25400122Y-177873501D01*
X25088999Y-177562378D01*
X24682497Y-177394000D01*
X24242503Y-177394000D01*
X23836001Y-177562378D01*
X23524878Y-177873501D01*
X23356500Y-178280003D01*
X22710894Y-178280003D01*
X22819761Y-178207261D01*
X23036581Y-177882767D01*
X23112718Y-177500000D01*
X23036581Y-177117233D01*
X22819761Y-176792739D01*
X22495267Y-176575919D01*
X22209116Y-176519000D01*
X21315884Y-176519000D01*
X21029733Y-176575919D01*
X20705239Y-176792739D01*
X20488419Y-177117233D01*
X20456000Y-177280215D01*
X20456000Y-175644649D01*
X30619000Y-175644649D01*
X30619000Y-175955351D01*
X30737900Y-176242401D01*
X30957599Y-176462100D01*
X31244649Y-176581000D01*
X31555351Y-176581000D01*
X31842401Y-176462100D01*
X32062100Y-176242401D01*
X32181000Y-175955351D01*
X32181000Y-175644649D01*
X32062100Y-175357599D01*
X31842401Y-175137900D01*
X31555351Y-175019000D01*
X31244649Y-175019000D01*
X30957599Y-175137900D01*
X30737900Y-175357599D01*
X30619000Y-175644649D01*
X20456000Y-175644649D01*
X20456000Y-174644649D01*
X36019000Y-174644649D01*
X36019000Y-174955351D01*
X36137900Y-175242401D01*
X36357599Y-175462100D01*
X36644649Y-175581000D01*
X36955351Y-175581000D01*
X37242401Y-175462100D01*
X37462100Y-175242401D01*
X37581000Y-174955351D01*
X37581000Y-174644649D01*
X37462100Y-174357599D01*
X37242401Y-174137900D01*
X36955351Y-174019000D01*
X36644649Y-174019000D01*
X36357599Y-174137900D01*
X36137900Y-174357599D01*
X36019000Y-174644649D01*
X20456000Y-174644649D01*
X20456000Y-172456000D01*
X37591692Y-172456000D01*
X37429677Y-172618015D01*
G04 #@! TD*
M02*
