G04 #@! TF.GenerationSoftware,KiCad,Pcbnew,(5.0.2)-1*
G04 #@! TF.CreationDate,2019-05-05T23:42:23+01:00*
G04 #@! TF.ProjectId,power-bank-upgrade,706f7765-722d-4626-916e-6b2d75706772,rev?*
G04 #@! TF.SameCoordinates,Original*
G04 #@! TF.FileFunction,Copper,L4,Bot*
G04 #@! TF.FilePolarity,Positive*
%FSLAX46Y46*%
G04 Gerber Fmt 4.6, Leading zero omitted, Abs format (unit mm)*
G04 Created by KiCad (PCBNEW (5.0.2)-1) date 05/05/2019 23:42:23*
%MOMM*%
%LPD*%
G01*
G04 APERTURE LIST*
G04 #@! TA.AperFunction,SMDPad,CuDef*
%ADD10R,0.980000X3.700000*%
G04 #@! TD*
G04 #@! TA.AperFunction,ComponentPad*
%ADD11C,1.998980*%
G04 #@! TD*
G04 #@! TA.AperFunction,Conductor*
%ADD12C,0.100000*%
G04 #@! TD*
G04 #@! TA.AperFunction,SMDPad,CuDef*
%ADD13C,0.975000*%
G04 #@! TD*
G04 #@! TA.AperFunction,SMDPad,CuDef*
%ADD14R,0.900000X1.000000*%
G04 #@! TD*
G04 #@! TA.AperFunction,SMDPad,CuDef*
%ADD15R,1.550000X1.000000*%
G04 #@! TD*
G04 #@! TA.AperFunction,SMDPad,CuDef*
%ADD16R,1.900000X1.500000*%
G04 #@! TD*
G04 #@! TA.AperFunction,ComponentPad*
%ADD17C,1.450000*%
G04 #@! TD*
G04 #@! TA.AperFunction,SMDPad,CuDef*
%ADD18R,1.350000X0.400000*%
G04 #@! TD*
G04 #@! TA.AperFunction,ComponentPad*
%ADD19O,1.900000X1.200000*%
G04 #@! TD*
G04 #@! TA.AperFunction,SMDPad,CuDef*
%ADD20R,1.900000X1.200000*%
G04 #@! TD*
G04 #@! TA.AperFunction,SMDPad,CuDef*
%ADD21R,0.300000X1.800000*%
G04 #@! TD*
G04 #@! TA.AperFunction,SMDPad,CuDef*
%ADD22R,0.700000X0.300000*%
G04 #@! TD*
G04 #@! TA.AperFunction,SMDPad,CuDef*
%ADD23R,0.700000X0.200000*%
G04 #@! TD*
G04 #@! TA.AperFunction,SMDPad,CuDef*
%ADD24R,0.200000X1.050000*%
G04 #@! TD*
G04 #@! TA.AperFunction,SMDPad,CuDef*
%ADD25C,0.300000*%
G04 #@! TD*
G04 #@! TA.AperFunction,ViaPad*
%ADD26C,0.800000*%
G04 #@! TD*
G04 #@! TA.AperFunction,ViaPad*
%ADD27C,0.508000*%
G04 #@! TD*
G04 #@! TA.AperFunction,Conductor*
%ADD28C,0.152400*%
G04 #@! TD*
G04 #@! TA.AperFunction,Conductor*
%ADD29C,0.300000*%
G04 #@! TD*
G04 #@! TA.AperFunction,Conductor*
%ADD30C,0.250000*%
G04 #@! TD*
G04 #@! TA.AperFunction,Conductor*
%ADD31C,0.304800*%
G04 #@! TD*
G04 #@! TA.AperFunction,Conductor*
%ADD32C,0.600000*%
G04 #@! TD*
G04 #@! TA.AperFunction,Conductor*
%ADD33C,0.254000*%
G04 #@! TD*
G04 APERTURE END LIST*
D10*
G04 #@! TO.P,L1,1*
G04 #@! TO.N,Net-(L1-Pad1)*
X36015000Y-186900000D03*
G04 #@! TO.P,L1,2*
G04 #@! TO.N,Net-(L1-Pad2)*
X38385000Y-186900000D03*
G04 #@! TD*
D11*
G04 #@! TO.P,J6,1*
G04 #@! TO.N,Net-(J6-Pad1)*
X26800000Y-184000000D03*
G04 #@! TD*
D12*
G04 #@! TO.N,Net-(D5-Pad2)*
G04 #@! TO.C,R9*
G36*
X32330142Y-186501174D02*
X32353803Y-186504684D01*
X32377007Y-186510496D01*
X32399529Y-186518554D01*
X32421153Y-186528782D01*
X32441670Y-186541079D01*
X32460883Y-186555329D01*
X32478607Y-186571393D01*
X32494671Y-186589117D01*
X32508921Y-186608330D01*
X32521218Y-186628847D01*
X32531446Y-186650471D01*
X32539504Y-186672993D01*
X32545316Y-186696197D01*
X32548826Y-186719858D01*
X32550000Y-186743750D01*
X32550000Y-187656250D01*
X32548826Y-187680142D01*
X32545316Y-187703803D01*
X32539504Y-187727007D01*
X32531446Y-187749529D01*
X32521218Y-187771153D01*
X32508921Y-187791670D01*
X32494671Y-187810883D01*
X32478607Y-187828607D01*
X32460883Y-187844671D01*
X32441670Y-187858921D01*
X32421153Y-187871218D01*
X32399529Y-187881446D01*
X32377007Y-187889504D01*
X32353803Y-187895316D01*
X32330142Y-187898826D01*
X32306250Y-187900000D01*
X31818750Y-187900000D01*
X31794858Y-187898826D01*
X31771197Y-187895316D01*
X31747993Y-187889504D01*
X31725471Y-187881446D01*
X31703847Y-187871218D01*
X31683330Y-187858921D01*
X31664117Y-187844671D01*
X31646393Y-187828607D01*
X31630329Y-187810883D01*
X31616079Y-187791670D01*
X31603782Y-187771153D01*
X31593554Y-187749529D01*
X31585496Y-187727007D01*
X31579684Y-187703803D01*
X31576174Y-187680142D01*
X31575000Y-187656250D01*
X31575000Y-186743750D01*
X31576174Y-186719858D01*
X31579684Y-186696197D01*
X31585496Y-186672993D01*
X31593554Y-186650471D01*
X31603782Y-186628847D01*
X31616079Y-186608330D01*
X31630329Y-186589117D01*
X31646393Y-186571393D01*
X31664117Y-186555329D01*
X31683330Y-186541079D01*
X31703847Y-186528782D01*
X31725471Y-186518554D01*
X31747993Y-186510496D01*
X31771197Y-186504684D01*
X31794858Y-186501174D01*
X31818750Y-186500000D01*
X32306250Y-186500000D01*
X32330142Y-186501174D01*
X32330142Y-186501174D01*
G37*
D13*
G04 #@! TD*
G04 #@! TO.P,R9,2*
G04 #@! TO.N,Net-(D5-Pad2)*
X32062500Y-187200000D03*
D12*
G04 #@! TO.N,VCC*
G04 #@! TO.C,R9*
G36*
X34205142Y-186501174D02*
X34228803Y-186504684D01*
X34252007Y-186510496D01*
X34274529Y-186518554D01*
X34296153Y-186528782D01*
X34316670Y-186541079D01*
X34335883Y-186555329D01*
X34353607Y-186571393D01*
X34369671Y-186589117D01*
X34383921Y-186608330D01*
X34396218Y-186628847D01*
X34406446Y-186650471D01*
X34414504Y-186672993D01*
X34420316Y-186696197D01*
X34423826Y-186719858D01*
X34425000Y-186743750D01*
X34425000Y-187656250D01*
X34423826Y-187680142D01*
X34420316Y-187703803D01*
X34414504Y-187727007D01*
X34406446Y-187749529D01*
X34396218Y-187771153D01*
X34383921Y-187791670D01*
X34369671Y-187810883D01*
X34353607Y-187828607D01*
X34335883Y-187844671D01*
X34316670Y-187858921D01*
X34296153Y-187871218D01*
X34274529Y-187881446D01*
X34252007Y-187889504D01*
X34228803Y-187895316D01*
X34205142Y-187898826D01*
X34181250Y-187900000D01*
X33693750Y-187900000D01*
X33669858Y-187898826D01*
X33646197Y-187895316D01*
X33622993Y-187889504D01*
X33600471Y-187881446D01*
X33578847Y-187871218D01*
X33558330Y-187858921D01*
X33539117Y-187844671D01*
X33521393Y-187828607D01*
X33505329Y-187810883D01*
X33491079Y-187791670D01*
X33478782Y-187771153D01*
X33468554Y-187749529D01*
X33460496Y-187727007D01*
X33454684Y-187703803D01*
X33451174Y-187680142D01*
X33450000Y-187656250D01*
X33450000Y-186743750D01*
X33451174Y-186719858D01*
X33454684Y-186696197D01*
X33460496Y-186672993D01*
X33468554Y-186650471D01*
X33478782Y-186628847D01*
X33491079Y-186608330D01*
X33505329Y-186589117D01*
X33521393Y-186571393D01*
X33539117Y-186555329D01*
X33558330Y-186541079D01*
X33578847Y-186528782D01*
X33600471Y-186518554D01*
X33622993Y-186510496D01*
X33646197Y-186504684D01*
X33669858Y-186501174D01*
X33693750Y-186500000D01*
X34181250Y-186500000D01*
X34205142Y-186501174D01*
X34205142Y-186501174D01*
G37*
D13*
G04 #@! TD*
G04 #@! TO.P,R9,1*
G04 #@! TO.N,VCC*
X33937500Y-187200000D03*
D14*
G04 #@! TO.P,D2,2*
G04 #@! TO.N,Net-(D2-Pad2)*
X20700000Y-189000000D03*
G04 #@! TO.P,D2,1*
G04 #@! TO.N,Net-(D2-Pad1)*
X23100000Y-189000000D03*
G04 #@! TD*
G04 #@! TO.P,D3,1*
G04 #@! TO.N,Net-(D3-Pad1)*
X26900000Y-189000000D03*
G04 #@! TO.P,D3,2*
G04 #@! TO.N,Net-(D3-Pad2)*
X24500000Y-189000000D03*
G04 #@! TD*
G04 #@! TO.P,D5,2*
G04 #@! TO.N,Net-(D5-Pad2)*
X32100000Y-189000000D03*
G04 #@! TO.P,D5,1*
G04 #@! TO.N,Net-(D5-Pad1)*
X34500000Y-189000000D03*
G04 #@! TD*
G04 #@! TO.P,D4,1*
G04 #@! TO.N,Net-(D4-Pad1)*
X30700000Y-189000000D03*
G04 #@! TO.P,D4,2*
G04 #@! TO.N,Net-(D4-Pad2)*
X28300000Y-189000000D03*
G04 #@! TD*
D11*
G04 #@! TO.P,GND,1*
G04 #@! TO.N,GNDA*
X38900000Y-178200000D03*
G04 #@! TD*
G04 #@! TO.P,BATT,1*
G04 #@! TO.N,/VBATT*
X38900000Y-175800000D03*
G04 #@! TD*
G04 #@! TO.P,NTC,1*
G04 #@! TO.N,/NTC+*
X38600000Y-173400000D03*
G04 #@! TD*
D15*
G04 #@! TO.P,SW1,1*
G04 #@! TO.N,GNDA*
X21175000Y-172950000D03*
X26425000Y-172950000D03*
G04 #@! TO.P,SW1,2*
G04 #@! TO.N,Net-(SW1-Pad2)*
X26425000Y-174650000D03*
X21175000Y-174650000D03*
G04 #@! TD*
D12*
G04 #@! TO.N,VCC*
G04 #@! TO.C,C1*
G36*
X34880142Y-176251174D02*
X34903803Y-176254684D01*
X34927007Y-176260496D01*
X34949529Y-176268554D01*
X34971153Y-176278782D01*
X34991670Y-176291079D01*
X35010883Y-176305329D01*
X35028607Y-176321393D01*
X35044671Y-176339117D01*
X35058921Y-176358330D01*
X35071218Y-176378847D01*
X35081446Y-176400471D01*
X35089504Y-176422993D01*
X35095316Y-176446197D01*
X35098826Y-176469858D01*
X35100000Y-176493750D01*
X35100000Y-176981250D01*
X35098826Y-177005142D01*
X35095316Y-177028803D01*
X35089504Y-177052007D01*
X35081446Y-177074529D01*
X35071218Y-177096153D01*
X35058921Y-177116670D01*
X35044671Y-177135883D01*
X35028607Y-177153607D01*
X35010883Y-177169671D01*
X34991670Y-177183921D01*
X34971153Y-177196218D01*
X34949529Y-177206446D01*
X34927007Y-177214504D01*
X34903803Y-177220316D01*
X34880142Y-177223826D01*
X34856250Y-177225000D01*
X33943750Y-177225000D01*
X33919858Y-177223826D01*
X33896197Y-177220316D01*
X33872993Y-177214504D01*
X33850471Y-177206446D01*
X33828847Y-177196218D01*
X33808330Y-177183921D01*
X33789117Y-177169671D01*
X33771393Y-177153607D01*
X33755329Y-177135883D01*
X33741079Y-177116670D01*
X33728782Y-177096153D01*
X33718554Y-177074529D01*
X33710496Y-177052007D01*
X33704684Y-177028803D01*
X33701174Y-177005142D01*
X33700000Y-176981250D01*
X33700000Y-176493750D01*
X33701174Y-176469858D01*
X33704684Y-176446197D01*
X33710496Y-176422993D01*
X33718554Y-176400471D01*
X33728782Y-176378847D01*
X33741079Y-176358330D01*
X33755329Y-176339117D01*
X33771393Y-176321393D01*
X33789117Y-176305329D01*
X33808330Y-176291079D01*
X33828847Y-176278782D01*
X33850471Y-176268554D01*
X33872993Y-176260496D01*
X33896197Y-176254684D01*
X33919858Y-176251174D01*
X33943750Y-176250000D01*
X34856250Y-176250000D01*
X34880142Y-176251174D01*
X34880142Y-176251174D01*
G37*
D13*
G04 #@! TD*
G04 #@! TO.P,C1,1*
G04 #@! TO.N,VCC*
X34400000Y-176737500D03*
D12*
G04 #@! TO.N,GNDA*
G04 #@! TO.C,C1*
G36*
X34880142Y-174376174D02*
X34903803Y-174379684D01*
X34927007Y-174385496D01*
X34949529Y-174393554D01*
X34971153Y-174403782D01*
X34991670Y-174416079D01*
X35010883Y-174430329D01*
X35028607Y-174446393D01*
X35044671Y-174464117D01*
X35058921Y-174483330D01*
X35071218Y-174503847D01*
X35081446Y-174525471D01*
X35089504Y-174547993D01*
X35095316Y-174571197D01*
X35098826Y-174594858D01*
X35100000Y-174618750D01*
X35100000Y-175106250D01*
X35098826Y-175130142D01*
X35095316Y-175153803D01*
X35089504Y-175177007D01*
X35081446Y-175199529D01*
X35071218Y-175221153D01*
X35058921Y-175241670D01*
X35044671Y-175260883D01*
X35028607Y-175278607D01*
X35010883Y-175294671D01*
X34991670Y-175308921D01*
X34971153Y-175321218D01*
X34949529Y-175331446D01*
X34927007Y-175339504D01*
X34903803Y-175345316D01*
X34880142Y-175348826D01*
X34856250Y-175350000D01*
X33943750Y-175350000D01*
X33919858Y-175348826D01*
X33896197Y-175345316D01*
X33872993Y-175339504D01*
X33850471Y-175331446D01*
X33828847Y-175321218D01*
X33808330Y-175308921D01*
X33789117Y-175294671D01*
X33771393Y-175278607D01*
X33755329Y-175260883D01*
X33741079Y-175241670D01*
X33728782Y-175221153D01*
X33718554Y-175199529D01*
X33710496Y-175177007D01*
X33704684Y-175153803D01*
X33701174Y-175130142D01*
X33700000Y-175106250D01*
X33700000Y-174618750D01*
X33701174Y-174594858D01*
X33704684Y-174571197D01*
X33710496Y-174547993D01*
X33718554Y-174525471D01*
X33728782Y-174503847D01*
X33741079Y-174483330D01*
X33755329Y-174464117D01*
X33771393Y-174446393D01*
X33789117Y-174430329D01*
X33808330Y-174416079D01*
X33828847Y-174403782D01*
X33850471Y-174393554D01*
X33872993Y-174385496D01*
X33896197Y-174379684D01*
X33919858Y-174376174D01*
X33943750Y-174375000D01*
X34856250Y-174375000D01*
X34880142Y-174376174D01*
X34880142Y-174376174D01*
G37*
D13*
G04 #@! TD*
G04 #@! TO.P,C1,2*
G04 #@! TO.N,GNDA*
X34400000Y-174862500D03*
D12*
G04 #@! TO.N,GNDA*
G04 #@! TO.C,C2*
G36*
X27480142Y-179576174D02*
X27503803Y-179579684D01*
X27527007Y-179585496D01*
X27549529Y-179593554D01*
X27571153Y-179603782D01*
X27591670Y-179616079D01*
X27610883Y-179630329D01*
X27628607Y-179646393D01*
X27644671Y-179664117D01*
X27658921Y-179683330D01*
X27671218Y-179703847D01*
X27681446Y-179725471D01*
X27689504Y-179747993D01*
X27695316Y-179771197D01*
X27698826Y-179794858D01*
X27700000Y-179818750D01*
X27700000Y-180306250D01*
X27698826Y-180330142D01*
X27695316Y-180353803D01*
X27689504Y-180377007D01*
X27681446Y-180399529D01*
X27671218Y-180421153D01*
X27658921Y-180441670D01*
X27644671Y-180460883D01*
X27628607Y-180478607D01*
X27610883Y-180494671D01*
X27591670Y-180508921D01*
X27571153Y-180521218D01*
X27549529Y-180531446D01*
X27527007Y-180539504D01*
X27503803Y-180545316D01*
X27480142Y-180548826D01*
X27456250Y-180550000D01*
X26543750Y-180550000D01*
X26519858Y-180548826D01*
X26496197Y-180545316D01*
X26472993Y-180539504D01*
X26450471Y-180531446D01*
X26428847Y-180521218D01*
X26408330Y-180508921D01*
X26389117Y-180494671D01*
X26371393Y-180478607D01*
X26355329Y-180460883D01*
X26341079Y-180441670D01*
X26328782Y-180421153D01*
X26318554Y-180399529D01*
X26310496Y-180377007D01*
X26304684Y-180353803D01*
X26301174Y-180330142D01*
X26300000Y-180306250D01*
X26300000Y-179818750D01*
X26301174Y-179794858D01*
X26304684Y-179771197D01*
X26310496Y-179747993D01*
X26318554Y-179725471D01*
X26328782Y-179703847D01*
X26341079Y-179683330D01*
X26355329Y-179664117D01*
X26371393Y-179646393D01*
X26389117Y-179630329D01*
X26408330Y-179616079D01*
X26428847Y-179603782D01*
X26450471Y-179593554D01*
X26472993Y-179585496D01*
X26496197Y-179579684D01*
X26519858Y-179576174D01*
X26543750Y-179575000D01*
X27456250Y-179575000D01*
X27480142Y-179576174D01*
X27480142Y-179576174D01*
G37*
D13*
G04 #@! TD*
G04 #@! TO.P,C2,2*
G04 #@! TO.N,GNDA*
X27000000Y-180062500D03*
D12*
G04 #@! TO.N,Net-(C2-Pad1)*
G04 #@! TO.C,C2*
G36*
X27480142Y-181451174D02*
X27503803Y-181454684D01*
X27527007Y-181460496D01*
X27549529Y-181468554D01*
X27571153Y-181478782D01*
X27591670Y-181491079D01*
X27610883Y-181505329D01*
X27628607Y-181521393D01*
X27644671Y-181539117D01*
X27658921Y-181558330D01*
X27671218Y-181578847D01*
X27681446Y-181600471D01*
X27689504Y-181622993D01*
X27695316Y-181646197D01*
X27698826Y-181669858D01*
X27700000Y-181693750D01*
X27700000Y-182181250D01*
X27698826Y-182205142D01*
X27695316Y-182228803D01*
X27689504Y-182252007D01*
X27681446Y-182274529D01*
X27671218Y-182296153D01*
X27658921Y-182316670D01*
X27644671Y-182335883D01*
X27628607Y-182353607D01*
X27610883Y-182369671D01*
X27591670Y-182383921D01*
X27571153Y-182396218D01*
X27549529Y-182406446D01*
X27527007Y-182414504D01*
X27503803Y-182420316D01*
X27480142Y-182423826D01*
X27456250Y-182425000D01*
X26543750Y-182425000D01*
X26519858Y-182423826D01*
X26496197Y-182420316D01*
X26472993Y-182414504D01*
X26450471Y-182406446D01*
X26428847Y-182396218D01*
X26408330Y-182383921D01*
X26389117Y-182369671D01*
X26371393Y-182353607D01*
X26355329Y-182335883D01*
X26341079Y-182316670D01*
X26328782Y-182296153D01*
X26318554Y-182274529D01*
X26310496Y-182252007D01*
X26304684Y-182228803D01*
X26301174Y-182205142D01*
X26300000Y-182181250D01*
X26300000Y-181693750D01*
X26301174Y-181669858D01*
X26304684Y-181646197D01*
X26310496Y-181622993D01*
X26318554Y-181600471D01*
X26328782Y-181578847D01*
X26341079Y-181558330D01*
X26355329Y-181539117D01*
X26371393Y-181521393D01*
X26389117Y-181505329D01*
X26408330Y-181491079D01*
X26428847Y-181478782D01*
X26450471Y-181468554D01*
X26472993Y-181460496D01*
X26496197Y-181454684D01*
X26519858Y-181451174D01*
X26543750Y-181450000D01*
X27456250Y-181450000D01*
X27480142Y-181451174D01*
X27480142Y-181451174D01*
G37*
D13*
G04 #@! TD*
G04 #@! TO.P,C2,1*
G04 #@! TO.N,Net-(C2-Pad1)*
X27000000Y-181937500D03*
D12*
G04 #@! TO.N,GNDA*
G04 #@! TO.C,C5*
G36*
X29080142Y-174976174D02*
X29103803Y-174979684D01*
X29127007Y-174985496D01*
X29149529Y-174993554D01*
X29171153Y-175003782D01*
X29191670Y-175016079D01*
X29210883Y-175030329D01*
X29228607Y-175046393D01*
X29244671Y-175064117D01*
X29258921Y-175083330D01*
X29271218Y-175103847D01*
X29281446Y-175125471D01*
X29289504Y-175147993D01*
X29295316Y-175171197D01*
X29298826Y-175194858D01*
X29300000Y-175218750D01*
X29300000Y-175706250D01*
X29298826Y-175730142D01*
X29295316Y-175753803D01*
X29289504Y-175777007D01*
X29281446Y-175799529D01*
X29271218Y-175821153D01*
X29258921Y-175841670D01*
X29244671Y-175860883D01*
X29228607Y-175878607D01*
X29210883Y-175894671D01*
X29191670Y-175908921D01*
X29171153Y-175921218D01*
X29149529Y-175931446D01*
X29127007Y-175939504D01*
X29103803Y-175945316D01*
X29080142Y-175948826D01*
X29056250Y-175950000D01*
X28143750Y-175950000D01*
X28119858Y-175948826D01*
X28096197Y-175945316D01*
X28072993Y-175939504D01*
X28050471Y-175931446D01*
X28028847Y-175921218D01*
X28008330Y-175908921D01*
X27989117Y-175894671D01*
X27971393Y-175878607D01*
X27955329Y-175860883D01*
X27941079Y-175841670D01*
X27928782Y-175821153D01*
X27918554Y-175799529D01*
X27910496Y-175777007D01*
X27904684Y-175753803D01*
X27901174Y-175730142D01*
X27900000Y-175706250D01*
X27900000Y-175218750D01*
X27901174Y-175194858D01*
X27904684Y-175171197D01*
X27910496Y-175147993D01*
X27918554Y-175125471D01*
X27928782Y-175103847D01*
X27941079Y-175083330D01*
X27955329Y-175064117D01*
X27971393Y-175046393D01*
X27989117Y-175030329D01*
X28008330Y-175016079D01*
X28028847Y-175003782D01*
X28050471Y-174993554D01*
X28072993Y-174985496D01*
X28096197Y-174979684D01*
X28119858Y-174976174D01*
X28143750Y-174975000D01*
X29056250Y-174975000D01*
X29080142Y-174976174D01*
X29080142Y-174976174D01*
G37*
D13*
G04 #@! TD*
G04 #@! TO.P,C5,2*
G04 #@! TO.N,GNDA*
X28600000Y-175462500D03*
D12*
G04 #@! TO.N,Net-(C5-Pad1)*
G04 #@! TO.C,C5*
G36*
X29080142Y-176851174D02*
X29103803Y-176854684D01*
X29127007Y-176860496D01*
X29149529Y-176868554D01*
X29171153Y-176878782D01*
X29191670Y-176891079D01*
X29210883Y-176905329D01*
X29228607Y-176921393D01*
X29244671Y-176939117D01*
X29258921Y-176958330D01*
X29271218Y-176978847D01*
X29281446Y-177000471D01*
X29289504Y-177022993D01*
X29295316Y-177046197D01*
X29298826Y-177069858D01*
X29300000Y-177093750D01*
X29300000Y-177581250D01*
X29298826Y-177605142D01*
X29295316Y-177628803D01*
X29289504Y-177652007D01*
X29281446Y-177674529D01*
X29271218Y-177696153D01*
X29258921Y-177716670D01*
X29244671Y-177735883D01*
X29228607Y-177753607D01*
X29210883Y-177769671D01*
X29191670Y-177783921D01*
X29171153Y-177796218D01*
X29149529Y-177806446D01*
X29127007Y-177814504D01*
X29103803Y-177820316D01*
X29080142Y-177823826D01*
X29056250Y-177825000D01*
X28143750Y-177825000D01*
X28119858Y-177823826D01*
X28096197Y-177820316D01*
X28072993Y-177814504D01*
X28050471Y-177806446D01*
X28028847Y-177796218D01*
X28008330Y-177783921D01*
X27989117Y-177769671D01*
X27971393Y-177753607D01*
X27955329Y-177735883D01*
X27941079Y-177716670D01*
X27928782Y-177696153D01*
X27918554Y-177674529D01*
X27910496Y-177652007D01*
X27904684Y-177628803D01*
X27901174Y-177605142D01*
X27900000Y-177581250D01*
X27900000Y-177093750D01*
X27901174Y-177069858D01*
X27904684Y-177046197D01*
X27910496Y-177022993D01*
X27918554Y-177000471D01*
X27928782Y-176978847D01*
X27941079Y-176958330D01*
X27955329Y-176939117D01*
X27971393Y-176921393D01*
X27989117Y-176905329D01*
X28008330Y-176891079D01*
X28028847Y-176878782D01*
X28050471Y-176868554D01*
X28072993Y-176860496D01*
X28096197Y-176854684D01*
X28119858Y-176851174D01*
X28143750Y-176850000D01*
X29056250Y-176850000D01*
X29080142Y-176851174D01*
X29080142Y-176851174D01*
G37*
D13*
G04 #@! TD*
G04 #@! TO.P,C5,1*
G04 #@! TO.N,Net-(C5-Pad1)*
X28600000Y-177337500D03*
D12*
G04 #@! TO.N,GNDA*
G04 #@! TO.C,C6*
G36*
X37280142Y-175376174D02*
X37303803Y-175379684D01*
X37327007Y-175385496D01*
X37349529Y-175393554D01*
X37371153Y-175403782D01*
X37391670Y-175416079D01*
X37410883Y-175430329D01*
X37428607Y-175446393D01*
X37444671Y-175464117D01*
X37458921Y-175483330D01*
X37471218Y-175503847D01*
X37481446Y-175525471D01*
X37489504Y-175547993D01*
X37495316Y-175571197D01*
X37498826Y-175594858D01*
X37500000Y-175618750D01*
X37500000Y-176106250D01*
X37498826Y-176130142D01*
X37495316Y-176153803D01*
X37489504Y-176177007D01*
X37481446Y-176199529D01*
X37471218Y-176221153D01*
X37458921Y-176241670D01*
X37444671Y-176260883D01*
X37428607Y-176278607D01*
X37410883Y-176294671D01*
X37391670Y-176308921D01*
X37371153Y-176321218D01*
X37349529Y-176331446D01*
X37327007Y-176339504D01*
X37303803Y-176345316D01*
X37280142Y-176348826D01*
X37256250Y-176350000D01*
X36343750Y-176350000D01*
X36319858Y-176348826D01*
X36296197Y-176345316D01*
X36272993Y-176339504D01*
X36250471Y-176331446D01*
X36228847Y-176321218D01*
X36208330Y-176308921D01*
X36189117Y-176294671D01*
X36171393Y-176278607D01*
X36155329Y-176260883D01*
X36141079Y-176241670D01*
X36128782Y-176221153D01*
X36118554Y-176199529D01*
X36110496Y-176177007D01*
X36104684Y-176153803D01*
X36101174Y-176130142D01*
X36100000Y-176106250D01*
X36100000Y-175618750D01*
X36101174Y-175594858D01*
X36104684Y-175571197D01*
X36110496Y-175547993D01*
X36118554Y-175525471D01*
X36128782Y-175503847D01*
X36141079Y-175483330D01*
X36155329Y-175464117D01*
X36171393Y-175446393D01*
X36189117Y-175430329D01*
X36208330Y-175416079D01*
X36228847Y-175403782D01*
X36250471Y-175393554D01*
X36272993Y-175385496D01*
X36296197Y-175379684D01*
X36319858Y-175376174D01*
X36343750Y-175375000D01*
X37256250Y-175375000D01*
X37280142Y-175376174D01*
X37280142Y-175376174D01*
G37*
D13*
G04 #@! TD*
G04 #@! TO.P,C6,2*
G04 #@! TO.N,GNDA*
X36800000Y-175862500D03*
D12*
G04 #@! TO.N,/VBATT*
G04 #@! TO.C,C6*
G36*
X37280142Y-177251174D02*
X37303803Y-177254684D01*
X37327007Y-177260496D01*
X37349529Y-177268554D01*
X37371153Y-177278782D01*
X37391670Y-177291079D01*
X37410883Y-177305329D01*
X37428607Y-177321393D01*
X37444671Y-177339117D01*
X37458921Y-177358330D01*
X37471218Y-177378847D01*
X37481446Y-177400471D01*
X37489504Y-177422993D01*
X37495316Y-177446197D01*
X37498826Y-177469858D01*
X37500000Y-177493750D01*
X37500000Y-177981250D01*
X37498826Y-178005142D01*
X37495316Y-178028803D01*
X37489504Y-178052007D01*
X37481446Y-178074529D01*
X37471218Y-178096153D01*
X37458921Y-178116670D01*
X37444671Y-178135883D01*
X37428607Y-178153607D01*
X37410883Y-178169671D01*
X37391670Y-178183921D01*
X37371153Y-178196218D01*
X37349529Y-178206446D01*
X37327007Y-178214504D01*
X37303803Y-178220316D01*
X37280142Y-178223826D01*
X37256250Y-178225000D01*
X36343750Y-178225000D01*
X36319858Y-178223826D01*
X36296197Y-178220316D01*
X36272993Y-178214504D01*
X36250471Y-178206446D01*
X36228847Y-178196218D01*
X36208330Y-178183921D01*
X36189117Y-178169671D01*
X36171393Y-178153607D01*
X36155329Y-178135883D01*
X36141079Y-178116670D01*
X36128782Y-178096153D01*
X36118554Y-178074529D01*
X36110496Y-178052007D01*
X36104684Y-178028803D01*
X36101174Y-178005142D01*
X36100000Y-177981250D01*
X36100000Y-177493750D01*
X36101174Y-177469858D01*
X36104684Y-177446197D01*
X36110496Y-177422993D01*
X36118554Y-177400471D01*
X36128782Y-177378847D01*
X36141079Y-177358330D01*
X36155329Y-177339117D01*
X36171393Y-177321393D01*
X36189117Y-177305329D01*
X36208330Y-177291079D01*
X36228847Y-177278782D01*
X36250471Y-177268554D01*
X36272993Y-177260496D01*
X36296197Y-177254684D01*
X36319858Y-177251174D01*
X36343750Y-177250000D01*
X37256250Y-177250000D01*
X37280142Y-177251174D01*
X37280142Y-177251174D01*
G37*
D13*
G04 #@! TD*
G04 #@! TO.P,C6,1*
G04 #@! TO.N,/VBATT*
X36800000Y-177737500D03*
D16*
G04 #@! TO.P,J1,6*
G04 #@! TO.N,GNDA*
X21762500Y-180000000D03*
D17*
X24462500Y-183500000D03*
D18*
G04 #@! TO.P,J1,2*
G04 #@! TO.N,Net-(J1-Pad2)*
X24462500Y-181650000D03*
G04 #@! TO.P,J1,1*
G04 #@! TO.N,Net-(C2-Pad1)*
X24462500Y-182300000D03*
G04 #@! TO.P,J1,5*
G04 #@! TO.N,GNDA*
X24462500Y-179700000D03*
G04 #@! TO.P,J1,4*
G04 #@! TO.N,Net-(J1-Pad4)*
X24462500Y-180350000D03*
G04 #@! TO.P,J1,3*
G04 #@! TO.N,Net-(J1-Pad3)*
X24462500Y-181000000D03*
D17*
G04 #@! TO.P,J1,6*
G04 #@! TO.N,GNDA*
X24462500Y-178500000D03*
D16*
X21762500Y-182000000D03*
D19*
X21762500Y-184500000D03*
X21762500Y-177500000D03*
D20*
X21762500Y-178100000D03*
X21762500Y-183900000D03*
G04 #@! TD*
D12*
G04 #@! TO.N,GNDA*
G04 #@! TO.C,R1*
G36*
X27080142Y-176038674D02*
X27103803Y-176042184D01*
X27127007Y-176047996D01*
X27149529Y-176056054D01*
X27171153Y-176066282D01*
X27191670Y-176078579D01*
X27210883Y-176092829D01*
X27228607Y-176108893D01*
X27244671Y-176126617D01*
X27258921Y-176145830D01*
X27271218Y-176166347D01*
X27281446Y-176187971D01*
X27289504Y-176210493D01*
X27295316Y-176233697D01*
X27298826Y-176257358D01*
X27300000Y-176281250D01*
X27300000Y-176768750D01*
X27298826Y-176792642D01*
X27295316Y-176816303D01*
X27289504Y-176839507D01*
X27281446Y-176862029D01*
X27271218Y-176883653D01*
X27258921Y-176904170D01*
X27244671Y-176923383D01*
X27228607Y-176941107D01*
X27210883Y-176957171D01*
X27191670Y-176971421D01*
X27171153Y-176983718D01*
X27149529Y-176993946D01*
X27127007Y-177002004D01*
X27103803Y-177007816D01*
X27080142Y-177011326D01*
X27056250Y-177012500D01*
X26143750Y-177012500D01*
X26119858Y-177011326D01*
X26096197Y-177007816D01*
X26072993Y-177002004D01*
X26050471Y-176993946D01*
X26028847Y-176983718D01*
X26008330Y-176971421D01*
X25989117Y-176957171D01*
X25971393Y-176941107D01*
X25955329Y-176923383D01*
X25941079Y-176904170D01*
X25928782Y-176883653D01*
X25918554Y-176862029D01*
X25910496Y-176839507D01*
X25904684Y-176816303D01*
X25901174Y-176792642D01*
X25900000Y-176768750D01*
X25900000Y-176281250D01*
X25901174Y-176257358D01*
X25904684Y-176233697D01*
X25910496Y-176210493D01*
X25918554Y-176187971D01*
X25928782Y-176166347D01*
X25941079Y-176145830D01*
X25955329Y-176126617D01*
X25971393Y-176108893D01*
X25989117Y-176092829D01*
X26008330Y-176078579D01*
X26028847Y-176066282D01*
X26050471Y-176056054D01*
X26072993Y-176047996D01*
X26096197Y-176042184D01*
X26119858Y-176038674D01*
X26143750Y-176037500D01*
X27056250Y-176037500D01*
X27080142Y-176038674D01*
X27080142Y-176038674D01*
G37*
D13*
G04 #@! TD*
G04 #@! TO.P,R1,2*
G04 #@! TO.N,GNDA*
X26600000Y-176525000D03*
D12*
G04 #@! TO.N,Net-(R1-Pad1)*
G04 #@! TO.C,R1*
G36*
X27080142Y-177913674D02*
X27103803Y-177917184D01*
X27127007Y-177922996D01*
X27149529Y-177931054D01*
X27171153Y-177941282D01*
X27191670Y-177953579D01*
X27210883Y-177967829D01*
X27228607Y-177983893D01*
X27244671Y-178001617D01*
X27258921Y-178020830D01*
X27271218Y-178041347D01*
X27281446Y-178062971D01*
X27289504Y-178085493D01*
X27295316Y-178108697D01*
X27298826Y-178132358D01*
X27300000Y-178156250D01*
X27300000Y-178643750D01*
X27298826Y-178667642D01*
X27295316Y-178691303D01*
X27289504Y-178714507D01*
X27281446Y-178737029D01*
X27271218Y-178758653D01*
X27258921Y-178779170D01*
X27244671Y-178798383D01*
X27228607Y-178816107D01*
X27210883Y-178832171D01*
X27191670Y-178846421D01*
X27171153Y-178858718D01*
X27149529Y-178868946D01*
X27127007Y-178877004D01*
X27103803Y-178882816D01*
X27080142Y-178886326D01*
X27056250Y-178887500D01*
X26143750Y-178887500D01*
X26119858Y-178886326D01*
X26096197Y-178882816D01*
X26072993Y-178877004D01*
X26050471Y-178868946D01*
X26028847Y-178858718D01*
X26008330Y-178846421D01*
X25989117Y-178832171D01*
X25971393Y-178816107D01*
X25955329Y-178798383D01*
X25941079Y-178779170D01*
X25928782Y-178758653D01*
X25918554Y-178737029D01*
X25910496Y-178714507D01*
X25904684Y-178691303D01*
X25901174Y-178667642D01*
X25900000Y-178643750D01*
X25900000Y-178156250D01*
X25901174Y-178132358D01*
X25904684Y-178108697D01*
X25910496Y-178085493D01*
X25918554Y-178062971D01*
X25928782Y-178041347D01*
X25941079Y-178020830D01*
X25955329Y-178001617D01*
X25971393Y-177983893D01*
X25989117Y-177967829D01*
X26008330Y-177953579D01*
X26028847Y-177941282D01*
X26050471Y-177931054D01*
X26072993Y-177922996D01*
X26096197Y-177917184D01*
X26119858Y-177913674D01*
X26143750Y-177912500D01*
X27056250Y-177912500D01*
X27080142Y-177913674D01*
X27080142Y-177913674D01*
G37*
D13*
G04 #@! TD*
G04 #@! TO.P,R1,1*
G04 #@! TO.N,Net-(R1-Pad1)*
X26600000Y-178400000D03*
D12*
G04 #@! TO.N,Net-(R2-Pad1)*
G04 #@! TO.C,R2*
G36*
X32880142Y-176251174D02*
X32903803Y-176254684D01*
X32927007Y-176260496D01*
X32949529Y-176268554D01*
X32971153Y-176278782D01*
X32991670Y-176291079D01*
X33010883Y-176305329D01*
X33028607Y-176321393D01*
X33044671Y-176339117D01*
X33058921Y-176358330D01*
X33071218Y-176378847D01*
X33081446Y-176400471D01*
X33089504Y-176422993D01*
X33095316Y-176446197D01*
X33098826Y-176469858D01*
X33100000Y-176493750D01*
X33100000Y-176981250D01*
X33098826Y-177005142D01*
X33095316Y-177028803D01*
X33089504Y-177052007D01*
X33081446Y-177074529D01*
X33071218Y-177096153D01*
X33058921Y-177116670D01*
X33044671Y-177135883D01*
X33028607Y-177153607D01*
X33010883Y-177169671D01*
X32991670Y-177183921D01*
X32971153Y-177196218D01*
X32949529Y-177206446D01*
X32927007Y-177214504D01*
X32903803Y-177220316D01*
X32880142Y-177223826D01*
X32856250Y-177225000D01*
X31943750Y-177225000D01*
X31919858Y-177223826D01*
X31896197Y-177220316D01*
X31872993Y-177214504D01*
X31850471Y-177206446D01*
X31828847Y-177196218D01*
X31808330Y-177183921D01*
X31789117Y-177169671D01*
X31771393Y-177153607D01*
X31755329Y-177135883D01*
X31741079Y-177116670D01*
X31728782Y-177096153D01*
X31718554Y-177074529D01*
X31710496Y-177052007D01*
X31704684Y-177028803D01*
X31701174Y-177005142D01*
X31700000Y-176981250D01*
X31700000Y-176493750D01*
X31701174Y-176469858D01*
X31704684Y-176446197D01*
X31710496Y-176422993D01*
X31718554Y-176400471D01*
X31728782Y-176378847D01*
X31741079Y-176358330D01*
X31755329Y-176339117D01*
X31771393Y-176321393D01*
X31789117Y-176305329D01*
X31808330Y-176291079D01*
X31828847Y-176278782D01*
X31850471Y-176268554D01*
X31872993Y-176260496D01*
X31896197Y-176254684D01*
X31919858Y-176251174D01*
X31943750Y-176250000D01*
X32856250Y-176250000D01*
X32880142Y-176251174D01*
X32880142Y-176251174D01*
G37*
D13*
G04 #@! TD*
G04 #@! TO.P,R2,1*
G04 #@! TO.N,Net-(R2-Pad1)*
X32400000Y-176737500D03*
D12*
G04 #@! TO.N,GNDA*
G04 #@! TO.C,R2*
G36*
X32880142Y-174376174D02*
X32903803Y-174379684D01*
X32927007Y-174385496D01*
X32949529Y-174393554D01*
X32971153Y-174403782D01*
X32991670Y-174416079D01*
X33010883Y-174430329D01*
X33028607Y-174446393D01*
X33044671Y-174464117D01*
X33058921Y-174483330D01*
X33071218Y-174503847D01*
X33081446Y-174525471D01*
X33089504Y-174547993D01*
X33095316Y-174571197D01*
X33098826Y-174594858D01*
X33100000Y-174618750D01*
X33100000Y-175106250D01*
X33098826Y-175130142D01*
X33095316Y-175153803D01*
X33089504Y-175177007D01*
X33081446Y-175199529D01*
X33071218Y-175221153D01*
X33058921Y-175241670D01*
X33044671Y-175260883D01*
X33028607Y-175278607D01*
X33010883Y-175294671D01*
X32991670Y-175308921D01*
X32971153Y-175321218D01*
X32949529Y-175331446D01*
X32927007Y-175339504D01*
X32903803Y-175345316D01*
X32880142Y-175348826D01*
X32856250Y-175350000D01*
X31943750Y-175350000D01*
X31919858Y-175348826D01*
X31896197Y-175345316D01*
X31872993Y-175339504D01*
X31850471Y-175331446D01*
X31828847Y-175321218D01*
X31808330Y-175308921D01*
X31789117Y-175294671D01*
X31771393Y-175278607D01*
X31755329Y-175260883D01*
X31741079Y-175241670D01*
X31728782Y-175221153D01*
X31718554Y-175199529D01*
X31710496Y-175177007D01*
X31704684Y-175153803D01*
X31701174Y-175130142D01*
X31700000Y-175106250D01*
X31700000Y-174618750D01*
X31701174Y-174594858D01*
X31704684Y-174571197D01*
X31710496Y-174547993D01*
X31718554Y-174525471D01*
X31728782Y-174503847D01*
X31741079Y-174483330D01*
X31755329Y-174464117D01*
X31771393Y-174446393D01*
X31789117Y-174430329D01*
X31808330Y-174416079D01*
X31828847Y-174403782D01*
X31850471Y-174393554D01*
X31872993Y-174385496D01*
X31896197Y-174379684D01*
X31919858Y-174376174D01*
X31943750Y-174375000D01*
X32856250Y-174375000D01*
X32880142Y-174376174D01*
X32880142Y-174376174D01*
G37*
D13*
G04 #@! TD*
G04 #@! TO.P,R2,2*
G04 #@! TO.N,GNDA*
X32400000Y-174862500D03*
D12*
G04 #@! TO.N,Net-(R3-Pad1)*
G04 #@! TO.C,R3*
G36*
X30880142Y-176251174D02*
X30903803Y-176254684D01*
X30927007Y-176260496D01*
X30949529Y-176268554D01*
X30971153Y-176278782D01*
X30991670Y-176291079D01*
X31010883Y-176305329D01*
X31028607Y-176321393D01*
X31044671Y-176339117D01*
X31058921Y-176358330D01*
X31071218Y-176378847D01*
X31081446Y-176400471D01*
X31089504Y-176422993D01*
X31095316Y-176446197D01*
X31098826Y-176469858D01*
X31100000Y-176493750D01*
X31100000Y-176981250D01*
X31098826Y-177005142D01*
X31095316Y-177028803D01*
X31089504Y-177052007D01*
X31081446Y-177074529D01*
X31071218Y-177096153D01*
X31058921Y-177116670D01*
X31044671Y-177135883D01*
X31028607Y-177153607D01*
X31010883Y-177169671D01*
X30991670Y-177183921D01*
X30971153Y-177196218D01*
X30949529Y-177206446D01*
X30927007Y-177214504D01*
X30903803Y-177220316D01*
X30880142Y-177223826D01*
X30856250Y-177225000D01*
X29943750Y-177225000D01*
X29919858Y-177223826D01*
X29896197Y-177220316D01*
X29872993Y-177214504D01*
X29850471Y-177206446D01*
X29828847Y-177196218D01*
X29808330Y-177183921D01*
X29789117Y-177169671D01*
X29771393Y-177153607D01*
X29755329Y-177135883D01*
X29741079Y-177116670D01*
X29728782Y-177096153D01*
X29718554Y-177074529D01*
X29710496Y-177052007D01*
X29704684Y-177028803D01*
X29701174Y-177005142D01*
X29700000Y-176981250D01*
X29700000Y-176493750D01*
X29701174Y-176469858D01*
X29704684Y-176446197D01*
X29710496Y-176422993D01*
X29718554Y-176400471D01*
X29728782Y-176378847D01*
X29741079Y-176358330D01*
X29755329Y-176339117D01*
X29771393Y-176321393D01*
X29789117Y-176305329D01*
X29808330Y-176291079D01*
X29828847Y-176278782D01*
X29850471Y-176268554D01*
X29872993Y-176260496D01*
X29896197Y-176254684D01*
X29919858Y-176251174D01*
X29943750Y-176250000D01*
X30856250Y-176250000D01*
X30880142Y-176251174D01*
X30880142Y-176251174D01*
G37*
D13*
G04 #@! TD*
G04 #@! TO.P,R3,1*
G04 #@! TO.N,Net-(R3-Pad1)*
X30400000Y-176737500D03*
D12*
G04 #@! TO.N,GNDA*
G04 #@! TO.C,R3*
G36*
X30880142Y-174376174D02*
X30903803Y-174379684D01*
X30927007Y-174385496D01*
X30949529Y-174393554D01*
X30971153Y-174403782D01*
X30991670Y-174416079D01*
X31010883Y-174430329D01*
X31028607Y-174446393D01*
X31044671Y-174464117D01*
X31058921Y-174483330D01*
X31071218Y-174503847D01*
X31081446Y-174525471D01*
X31089504Y-174547993D01*
X31095316Y-174571197D01*
X31098826Y-174594858D01*
X31100000Y-174618750D01*
X31100000Y-175106250D01*
X31098826Y-175130142D01*
X31095316Y-175153803D01*
X31089504Y-175177007D01*
X31081446Y-175199529D01*
X31071218Y-175221153D01*
X31058921Y-175241670D01*
X31044671Y-175260883D01*
X31028607Y-175278607D01*
X31010883Y-175294671D01*
X30991670Y-175308921D01*
X30971153Y-175321218D01*
X30949529Y-175331446D01*
X30927007Y-175339504D01*
X30903803Y-175345316D01*
X30880142Y-175348826D01*
X30856250Y-175350000D01*
X29943750Y-175350000D01*
X29919858Y-175348826D01*
X29896197Y-175345316D01*
X29872993Y-175339504D01*
X29850471Y-175331446D01*
X29828847Y-175321218D01*
X29808330Y-175308921D01*
X29789117Y-175294671D01*
X29771393Y-175278607D01*
X29755329Y-175260883D01*
X29741079Y-175241670D01*
X29728782Y-175221153D01*
X29718554Y-175199529D01*
X29710496Y-175177007D01*
X29704684Y-175153803D01*
X29701174Y-175130142D01*
X29700000Y-175106250D01*
X29700000Y-174618750D01*
X29701174Y-174594858D01*
X29704684Y-174571197D01*
X29710496Y-174547993D01*
X29718554Y-174525471D01*
X29728782Y-174503847D01*
X29741079Y-174483330D01*
X29755329Y-174464117D01*
X29771393Y-174446393D01*
X29789117Y-174430329D01*
X29808330Y-174416079D01*
X29828847Y-174403782D01*
X29850471Y-174393554D01*
X29872993Y-174385496D01*
X29896197Y-174379684D01*
X29919858Y-174376174D01*
X29943750Y-174375000D01*
X30856250Y-174375000D01*
X30880142Y-174376174D01*
X30880142Y-174376174D01*
G37*
D13*
G04 #@! TD*
G04 #@! TO.P,R3,2*
G04 #@! TO.N,GNDA*
X30400000Y-174862500D03*
D12*
G04 #@! TO.N,Net-(L1-Pad2)*
G04 #@! TO.C,R4*
G36*
X38680142Y-181451174D02*
X38703803Y-181454684D01*
X38727007Y-181460496D01*
X38749529Y-181468554D01*
X38771153Y-181478782D01*
X38791670Y-181491079D01*
X38810883Y-181505329D01*
X38828607Y-181521393D01*
X38844671Y-181539117D01*
X38858921Y-181558330D01*
X38871218Y-181578847D01*
X38881446Y-181600471D01*
X38889504Y-181622993D01*
X38895316Y-181646197D01*
X38898826Y-181669858D01*
X38900000Y-181693750D01*
X38900000Y-182181250D01*
X38898826Y-182205142D01*
X38895316Y-182228803D01*
X38889504Y-182252007D01*
X38881446Y-182274529D01*
X38871218Y-182296153D01*
X38858921Y-182316670D01*
X38844671Y-182335883D01*
X38828607Y-182353607D01*
X38810883Y-182369671D01*
X38791670Y-182383921D01*
X38771153Y-182396218D01*
X38749529Y-182406446D01*
X38727007Y-182414504D01*
X38703803Y-182420316D01*
X38680142Y-182423826D01*
X38656250Y-182425000D01*
X37743750Y-182425000D01*
X37719858Y-182423826D01*
X37696197Y-182420316D01*
X37672993Y-182414504D01*
X37650471Y-182406446D01*
X37628847Y-182396218D01*
X37608330Y-182383921D01*
X37589117Y-182369671D01*
X37571393Y-182353607D01*
X37555329Y-182335883D01*
X37541079Y-182316670D01*
X37528782Y-182296153D01*
X37518554Y-182274529D01*
X37510496Y-182252007D01*
X37504684Y-182228803D01*
X37501174Y-182205142D01*
X37500000Y-182181250D01*
X37500000Y-181693750D01*
X37501174Y-181669858D01*
X37504684Y-181646197D01*
X37510496Y-181622993D01*
X37518554Y-181600471D01*
X37528782Y-181578847D01*
X37541079Y-181558330D01*
X37555329Y-181539117D01*
X37571393Y-181521393D01*
X37589117Y-181505329D01*
X37608330Y-181491079D01*
X37628847Y-181478782D01*
X37650471Y-181468554D01*
X37672993Y-181460496D01*
X37696197Y-181454684D01*
X37719858Y-181451174D01*
X37743750Y-181450000D01*
X38656250Y-181450000D01*
X38680142Y-181451174D01*
X38680142Y-181451174D01*
G37*
D13*
G04 #@! TD*
G04 #@! TO.P,R4,2*
G04 #@! TO.N,Net-(L1-Pad2)*
X38200000Y-181937500D03*
D12*
G04 #@! TO.N,/VBATT*
G04 #@! TO.C,R4*
G36*
X38680142Y-179576174D02*
X38703803Y-179579684D01*
X38727007Y-179585496D01*
X38749529Y-179593554D01*
X38771153Y-179603782D01*
X38791670Y-179616079D01*
X38810883Y-179630329D01*
X38828607Y-179646393D01*
X38844671Y-179664117D01*
X38858921Y-179683330D01*
X38871218Y-179703847D01*
X38881446Y-179725471D01*
X38889504Y-179747993D01*
X38895316Y-179771197D01*
X38898826Y-179794858D01*
X38900000Y-179818750D01*
X38900000Y-180306250D01*
X38898826Y-180330142D01*
X38895316Y-180353803D01*
X38889504Y-180377007D01*
X38881446Y-180399529D01*
X38871218Y-180421153D01*
X38858921Y-180441670D01*
X38844671Y-180460883D01*
X38828607Y-180478607D01*
X38810883Y-180494671D01*
X38791670Y-180508921D01*
X38771153Y-180521218D01*
X38749529Y-180531446D01*
X38727007Y-180539504D01*
X38703803Y-180545316D01*
X38680142Y-180548826D01*
X38656250Y-180550000D01*
X37743750Y-180550000D01*
X37719858Y-180548826D01*
X37696197Y-180545316D01*
X37672993Y-180539504D01*
X37650471Y-180531446D01*
X37628847Y-180521218D01*
X37608330Y-180508921D01*
X37589117Y-180494671D01*
X37571393Y-180478607D01*
X37555329Y-180460883D01*
X37541079Y-180441670D01*
X37528782Y-180421153D01*
X37518554Y-180399529D01*
X37510496Y-180377007D01*
X37504684Y-180353803D01*
X37501174Y-180330142D01*
X37500000Y-180306250D01*
X37500000Y-179818750D01*
X37501174Y-179794858D01*
X37504684Y-179771197D01*
X37510496Y-179747993D01*
X37518554Y-179725471D01*
X37528782Y-179703847D01*
X37541079Y-179683330D01*
X37555329Y-179664117D01*
X37571393Y-179646393D01*
X37589117Y-179630329D01*
X37608330Y-179616079D01*
X37628847Y-179603782D01*
X37650471Y-179593554D01*
X37672993Y-179585496D01*
X37696197Y-179579684D01*
X37719858Y-179576174D01*
X37743750Y-179575000D01*
X38656250Y-179575000D01*
X38680142Y-179576174D01*
X38680142Y-179576174D01*
G37*
D13*
G04 #@! TD*
G04 #@! TO.P,R4,1*
G04 #@! TO.N,/VBATT*
X38200000Y-180062500D03*
D12*
G04 #@! TO.N,VCC*
G04 #@! TO.C,R6*
G36*
X23005142Y-186501174D02*
X23028803Y-186504684D01*
X23052007Y-186510496D01*
X23074529Y-186518554D01*
X23096153Y-186528782D01*
X23116670Y-186541079D01*
X23135883Y-186555329D01*
X23153607Y-186571393D01*
X23169671Y-186589117D01*
X23183921Y-186608330D01*
X23196218Y-186628847D01*
X23206446Y-186650471D01*
X23214504Y-186672993D01*
X23220316Y-186696197D01*
X23223826Y-186719858D01*
X23225000Y-186743750D01*
X23225000Y-187656250D01*
X23223826Y-187680142D01*
X23220316Y-187703803D01*
X23214504Y-187727007D01*
X23206446Y-187749529D01*
X23196218Y-187771153D01*
X23183921Y-187791670D01*
X23169671Y-187810883D01*
X23153607Y-187828607D01*
X23135883Y-187844671D01*
X23116670Y-187858921D01*
X23096153Y-187871218D01*
X23074529Y-187881446D01*
X23052007Y-187889504D01*
X23028803Y-187895316D01*
X23005142Y-187898826D01*
X22981250Y-187900000D01*
X22493750Y-187900000D01*
X22469858Y-187898826D01*
X22446197Y-187895316D01*
X22422993Y-187889504D01*
X22400471Y-187881446D01*
X22378847Y-187871218D01*
X22358330Y-187858921D01*
X22339117Y-187844671D01*
X22321393Y-187828607D01*
X22305329Y-187810883D01*
X22291079Y-187791670D01*
X22278782Y-187771153D01*
X22268554Y-187749529D01*
X22260496Y-187727007D01*
X22254684Y-187703803D01*
X22251174Y-187680142D01*
X22250000Y-187656250D01*
X22250000Y-186743750D01*
X22251174Y-186719858D01*
X22254684Y-186696197D01*
X22260496Y-186672993D01*
X22268554Y-186650471D01*
X22278782Y-186628847D01*
X22291079Y-186608330D01*
X22305329Y-186589117D01*
X22321393Y-186571393D01*
X22339117Y-186555329D01*
X22358330Y-186541079D01*
X22378847Y-186528782D01*
X22400471Y-186518554D01*
X22422993Y-186510496D01*
X22446197Y-186504684D01*
X22469858Y-186501174D01*
X22493750Y-186500000D01*
X22981250Y-186500000D01*
X23005142Y-186501174D01*
X23005142Y-186501174D01*
G37*
D13*
G04 #@! TD*
G04 #@! TO.P,R6,1*
G04 #@! TO.N,VCC*
X22737500Y-187200000D03*
D12*
G04 #@! TO.N,Net-(D2-Pad2)*
G04 #@! TO.C,R6*
G36*
X21130142Y-186501174D02*
X21153803Y-186504684D01*
X21177007Y-186510496D01*
X21199529Y-186518554D01*
X21221153Y-186528782D01*
X21241670Y-186541079D01*
X21260883Y-186555329D01*
X21278607Y-186571393D01*
X21294671Y-186589117D01*
X21308921Y-186608330D01*
X21321218Y-186628847D01*
X21331446Y-186650471D01*
X21339504Y-186672993D01*
X21345316Y-186696197D01*
X21348826Y-186719858D01*
X21350000Y-186743750D01*
X21350000Y-187656250D01*
X21348826Y-187680142D01*
X21345316Y-187703803D01*
X21339504Y-187727007D01*
X21331446Y-187749529D01*
X21321218Y-187771153D01*
X21308921Y-187791670D01*
X21294671Y-187810883D01*
X21278607Y-187828607D01*
X21260883Y-187844671D01*
X21241670Y-187858921D01*
X21221153Y-187871218D01*
X21199529Y-187881446D01*
X21177007Y-187889504D01*
X21153803Y-187895316D01*
X21130142Y-187898826D01*
X21106250Y-187900000D01*
X20618750Y-187900000D01*
X20594858Y-187898826D01*
X20571197Y-187895316D01*
X20547993Y-187889504D01*
X20525471Y-187881446D01*
X20503847Y-187871218D01*
X20483330Y-187858921D01*
X20464117Y-187844671D01*
X20446393Y-187828607D01*
X20430329Y-187810883D01*
X20416079Y-187791670D01*
X20403782Y-187771153D01*
X20393554Y-187749529D01*
X20385496Y-187727007D01*
X20379684Y-187703803D01*
X20376174Y-187680142D01*
X20375000Y-187656250D01*
X20375000Y-186743750D01*
X20376174Y-186719858D01*
X20379684Y-186696197D01*
X20385496Y-186672993D01*
X20393554Y-186650471D01*
X20403782Y-186628847D01*
X20416079Y-186608330D01*
X20430329Y-186589117D01*
X20446393Y-186571393D01*
X20464117Y-186555329D01*
X20483330Y-186541079D01*
X20503847Y-186528782D01*
X20525471Y-186518554D01*
X20547993Y-186510496D01*
X20571197Y-186504684D01*
X20594858Y-186501174D01*
X20618750Y-186500000D01*
X21106250Y-186500000D01*
X21130142Y-186501174D01*
X21130142Y-186501174D01*
G37*
D13*
G04 #@! TD*
G04 #@! TO.P,R6,2*
G04 #@! TO.N,Net-(D2-Pad2)*
X20862500Y-187200000D03*
D12*
G04 #@! TO.N,Net-(D3-Pad2)*
G04 #@! TO.C,R7*
G36*
X24930142Y-186501174D02*
X24953803Y-186504684D01*
X24977007Y-186510496D01*
X24999529Y-186518554D01*
X25021153Y-186528782D01*
X25041670Y-186541079D01*
X25060883Y-186555329D01*
X25078607Y-186571393D01*
X25094671Y-186589117D01*
X25108921Y-186608330D01*
X25121218Y-186628847D01*
X25131446Y-186650471D01*
X25139504Y-186672993D01*
X25145316Y-186696197D01*
X25148826Y-186719858D01*
X25150000Y-186743750D01*
X25150000Y-187656250D01*
X25148826Y-187680142D01*
X25145316Y-187703803D01*
X25139504Y-187727007D01*
X25131446Y-187749529D01*
X25121218Y-187771153D01*
X25108921Y-187791670D01*
X25094671Y-187810883D01*
X25078607Y-187828607D01*
X25060883Y-187844671D01*
X25041670Y-187858921D01*
X25021153Y-187871218D01*
X24999529Y-187881446D01*
X24977007Y-187889504D01*
X24953803Y-187895316D01*
X24930142Y-187898826D01*
X24906250Y-187900000D01*
X24418750Y-187900000D01*
X24394858Y-187898826D01*
X24371197Y-187895316D01*
X24347993Y-187889504D01*
X24325471Y-187881446D01*
X24303847Y-187871218D01*
X24283330Y-187858921D01*
X24264117Y-187844671D01*
X24246393Y-187828607D01*
X24230329Y-187810883D01*
X24216079Y-187791670D01*
X24203782Y-187771153D01*
X24193554Y-187749529D01*
X24185496Y-187727007D01*
X24179684Y-187703803D01*
X24176174Y-187680142D01*
X24175000Y-187656250D01*
X24175000Y-186743750D01*
X24176174Y-186719858D01*
X24179684Y-186696197D01*
X24185496Y-186672993D01*
X24193554Y-186650471D01*
X24203782Y-186628847D01*
X24216079Y-186608330D01*
X24230329Y-186589117D01*
X24246393Y-186571393D01*
X24264117Y-186555329D01*
X24283330Y-186541079D01*
X24303847Y-186528782D01*
X24325471Y-186518554D01*
X24347993Y-186510496D01*
X24371197Y-186504684D01*
X24394858Y-186501174D01*
X24418750Y-186500000D01*
X24906250Y-186500000D01*
X24930142Y-186501174D01*
X24930142Y-186501174D01*
G37*
D13*
G04 #@! TD*
G04 #@! TO.P,R7,2*
G04 #@! TO.N,Net-(D3-Pad2)*
X24662500Y-187200000D03*
D12*
G04 #@! TO.N,VCC*
G04 #@! TO.C,R7*
G36*
X26805142Y-186501174D02*
X26828803Y-186504684D01*
X26852007Y-186510496D01*
X26874529Y-186518554D01*
X26896153Y-186528782D01*
X26916670Y-186541079D01*
X26935883Y-186555329D01*
X26953607Y-186571393D01*
X26969671Y-186589117D01*
X26983921Y-186608330D01*
X26996218Y-186628847D01*
X27006446Y-186650471D01*
X27014504Y-186672993D01*
X27020316Y-186696197D01*
X27023826Y-186719858D01*
X27025000Y-186743750D01*
X27025000Y-187656250D01*
X27023826Y-187680142D01*
X27020316Y-187703803D01*
X27014504Y-187727007D01*
X27006446Y-187749529D01*
X26996218Y-187771153D01*
X26983921Y-187791670D01*
X26969671Y-187810883D01*
X26953607Y-187828607D01*
X26935883Y-187844671D01*
X26916670Y-187858921D01*
X26896153Y-187871218D01*
X26874529Y-187881446D01*
X26852007Y-187889504D01*
X26828803Y-187895316D01*
X26805142Y-187898826D01*
X26781250Y-187900000D01*
X26293750Y-187900000D01*
X26269858Y-187898826D01*
X26246197Y-187895316D01*
X26222993Y-187889504D01*
X26200471Y-187881446D01*
X26178847Y-187871218D01*
X26158330Y-187858921D01*
X26139117Y-187844671D01*
X26121393Y-187828607D01*
X26105329Y-187810883D01*
X26091079Y-187791670D01*
X26078782Y-187771153D01*
X26068554Y-187749529D01*
X26060496Y-187727007D01*
X26054684Y-187703803D01*
X26051174Y-187680142D01*
X26050000Y-187656250D01*
X26050000Y-186743750D01*
X26051174Y-186719858D01*
X26054684Y-186696197D01*
X26060496Y-186672993D01*
X26068554Y-186650471D01*
X26078782Y-186628847D01*
X26091079Y-186608330D01*
X26105329Y-186589117D01*
X26121393Y-186571393D01*
X26139117Y-186555329D01*
X26158330Y-186541079D01*
X26178847Y-186528782D01*
X26200471Y-186518554D01*
X26222993Y-186510496D01*
X26246197Y-186504684D01*
X26269858Y-186501174D01*
X26293750Y-186500000D01*
X26781250Y-186500000D01*
X26805142Y-186501174D01*
X26805142Y-186501174D01*
G37*
D13*
G04 #@! TD*
G04 #@! TO.P,R7,1*
G04 #@! TO.N,VCC*
X26537500Y-187200000D03*
D12*
G04 #@! TO.N,VCC*
G04 #@! TO.C,R8*
G36*
X30405142Y-186501174D02*
X30428803Y-186504684D01*
X30452007Y-186510496D01*
X30474529Y-186518554D01*
X30496153Y-186528782D01*
X30516670Y-186541079D01*
X30535883Y-186555329D01*
X30553607Y-186571393D01*
X30569671Y-186589117D01*
X30583921Y-186608330D01*
X30596218Y-186628847D01*
X30606446Y-186650471D01*
X30614504Y-186672993D01*
X30620316Y-186696197D01*
X30623826Y-186719858D01*
X30625000Y-186743750D01*
X30625000Y-187656250D01*
X30623826Y-187680142D01*
X30620316Y-187703803D01*
X30614504Y-187727007D01*
X30606446Y-187749529D01*
X30596218Y-187771153D01*
X30583921Y-187791670D01*
X30569671Y-187810883D01*
X30553607Y-187828607D01*
X30535883Y-187844671D01*
X30516670Y-187858921D01*
X30496153Y-187871218D01*
X30474529Y-187881446D01*
X30452007Y-187889504D01*
X30428803Y-187895316D01*
X30405142Y-187898826D01*
X30381250Y-187900000D01*
X29893750Y-187900000D01*
X29869858Y-187898826D01*
X29846197Y-187895316D01*
X29822993Y-187889504D01*
X29800471Y-187881446D01*
X29778847Y-187871218D01*
X29758330Y-187858921D01*
X29739117Y-187844671D01*
X29721393Y-187828607D01*
X29705329Y-187810883D01*
X29691079Y-187791670D01*
X29678782Y-187771153D01*
X29668554Y-187749529D01*
X29660496Y-187727007D01*
X29654684Y-187703803D01*
X29651174Y-187680142D01*
X29650000Y-187656250D01*
X29650000Y-186743750D01*
X29651174Y-186719858D01*
X29654684Y-186696197D01*
X29660496Y-186672993D01*
X29668554Y-186650471D01*
X29678782Y-186628847D01*
X29691079Y-186608330D01*
X29705329Y-186589117D01*
X29721393Y-186571393D01*
X29739117Y-186555329D01*
X29758330Y-186541079D01*
X29778847Y-186528782D01*
X29800471Y-186518554D01*
X29822993Y-186510496D01*
X29846197Y-186504684D01*
X29869858Y-186501174D01*
X29893750Y-186500000D01*
X30381250Y-186500000D01*
X30405142Y-186501174D01*
X30405142Y-186501174D01*
G37*
D13*
G04 #@! TD*
G04 #@! TO.P,R8,1*
G04 #@! TO.N,VCC*
X30137500Y-187200000D03*
D12*
G04 #@! TO.N,Net-(D4-Pad2)*
G04 #@! TO.C,R8*
G36*
X28530142Y-186501174D02*
X28553803Y-186504684D01*
X28577007Y-186510496D01*
X28599529Y-186518554D01*
X28621153Y-186528782D01*
X28641670Y-186541079D01*
X28660883Y-186555329D01*
X28678607Y-186571393D01*
X28694671Y-186589117D01*
X28708921Y-186608330D01*
X28721218Y-186628847D01*
X28731446Y-186650471D01*
X28739504Y-186672993D01*
X28745316Y-186696197D01*
X28748826Y-186719858D01*
X28750000Y-186743750D01*
X28750000Y-187656250D01*
X28748826Y-187680142D01*
X28745316Y-187703803D01*
X28739504Y-187727007D01*
X28731446Y-187749529D01*
X28721218Y-187771153D01*
X28708921Y-187791670D01*
X28694671Y-187810883D01*
X28678607Y-187828607D01*
X28660883Y-187844671D01*
X28641670Y-187858921D01*
X28621153Y-187871218D01*
X28599529Y-187881446D01*
X28577007Y-187889504D01*
X28553803Y-187895316D01*
X28530142Y-187898826D01*
X28506250Y-187900000D01*
X28018750Y-187900000D01*
X27994858Y-187898826D01*
X27971197Y-187895316D01*
X27947993Y-187889504D01*
X27925471Y-187881446D01*
X27903847Y-187871218D01*
X27883330Y-187858921D01*
X27864117Y-187844671D01*
X27846393Y-187828607D01*
X27830329Y-187810883D01*
X27816079Y-187791670D01*
X27803782Y-187771153D01*
X27793554Y-187749529D01*
X27785496Y-187727007D01*
X27779684Y-187703803D01*
X27776174Y-187680142D01*
X27775000Y-187656250D01*
X27775000Y-186743750D01*
X27776174Y-186719858D01*
X27779684Y-186696197D01*
X27785496Y-186672993D01*
X27793554Y-186650471D01*
X27803782Y-186628847D01*
X27816079Y-186608330D01*
X27830329Y-186589117D01*
X27846393Y-186571393D01*
X27864117Y-186555329D01*
X27883330Y-186541079D01*
X27903847Y-186528782D01*
X27925471Y-186518554D01*
X27947993Y-186510496D01*
X27971197Y-186504684D01*
X27994858Y-186501174D01*
X28018750Y-186500000D01*
X28506250Y-186500000D01*
X28530142Y-186501174D01*
X28530142Y-186501174D01*
G37*
D13*
G04 #@! TD*
G04 #@! TO.P,R8,2*
G04 #@! TO.N,Net-(D4-Pad2)*
X28262500Y-187200000D03*
D12*
G04 #@! TO.N,/VNTC*
G04 #@! TO.C,R10*
G36*
X34930142Y-172301174D02*
X34953803Y-172304684D01*
X34977007Y-172310496D01*
X34999529Y-172318554D01*
X35021153Y-172328782D01*
X35041670Y-172341079D01*
X35060883Y-172355329D01*
X35078607Y-172371393D01*
X35094671Y-172389117D01*
X35108921Y-172408330D01*
X35121218Y-172428847D01*
X35131446Y-172450471D01*
X35139504Y-172472993D01*
X35145316Y-172496197D01*
X35148826Y-172519858D01*
X35150000Y-172543750D01*
X35150000Y-173456250D01*
X35148826Y-173480142D01*
X35145316Y-173503803D01*
X35139504Y-173527007D01*
X35131446Y-173549529D01*
X35121218Y-173571153D01*
X35108921Y-173591670D01*
X35094671Y-173610883D01*
X35078607Y-173628607D01*
X35060883Y-173644671D01*
X35041670Y-173658921D01*
X35021153Y-173671218D01*
X34999529Y-173681446D01*
X34977007Y-173689504D01*
X34953803Y-173695316D01*
X34930142Y-173698826D01*
X34906250Y-173700000D01*
X34418750Y-173700000D01*
X34394858Y-173698826D01*
X34371197Y-173695316D01*
X34347993Y-173689504D01*
X34325471Y-173681446D01*
X34303847Y-173671218D01*
X34283330Y-173658921D01*
X34264117Y-173644671D01*
X34246393Y-173628607D01*
X34230329Y-173610883D01*
X34216079Y-173591670D01*
X34203782Y-173571153D01*
X34193554Y-173549529D01*
X34185496Y-173527007D01*
X34179684Y-173503803D01*
X34176174Y-173480142D01*
X34175000Y-173456250D01*
X34175000Y-172543750D01*
X34176174Y-172519858D01*
X34179684Y-172496197D01*
X34185496Y-172472993D01*
X34193554Y-172450471D01*
X34203782Y-172428847D01*
X34216079Y-172408330D01*
X34230329Y-172389117D01*
X34246393Y-172371393D01*
X34264117Y-172355329D01*
X34283330Y-172341079D01*
X34303847Y-172328782D01*
X34325471Y-172318554D01*
X34347993Y-172310496D01*
X34371197Y-172304684D01*
X34394858Y-172301174D01*
X34418750Y-172300000D01*
X34906250Y-172300000D01*
X34930142Y-172301174D01*
X34930142Y-172301174D01*
G37*
D13*
G04 #@! TD*
G04 #@! TO.P,R10,2*
G04 #@! TO.N,/VNTC*
X34662500Y-173000000D03*
D12*
G04 #@! TO.N,/NTC+*
G04 #@! TO.C,R10*
G36*
X36805142Y-172301174D02*
X36828803Y-172304684D01*
X36852007Y-172310496D01*
X36874529Y-172318554D01*
X36896153Y-172328782D01*
X36916670Y-172341079D01*
X36935883Y-172355329D01*
X36953607Y-172371393D01*
X36969671Y-172389117D01*
X36983921Y-172408330D01*
X36996218Y-172428847D01*
X37006446Y-172450471D01*
X37014504Y-172472993D01*
X37020316Y-172496197D01*
X37023826Y-172519858D01*
X37025000Y-172543750D01*
X37025000Y-173456250D01*
X37023826Y-173480142D01*
X37020316Y-173503803D01*
X37014504Y-173527007D01*
X37006446Y-173549529D01*
X36996218Y-173571153D01*
X36983921Y-173591670D01*
X36969671Y-173610883D01*
X36953607Y-173628607D01*
X36935883Y-173644671D01*
X36916670Y-173658921D01*
X36896153Y-173671218D01*
X36874529Y-173681446D01*
X36852007Y-173689504D01*
X36828803Y-173695316D01*
X36805142Y-173698826D01*
X36781250Y-173700000D01*
X36293750Y-173700000D01*
X36269858Y-173698826D01*
X36246197Y-173695316D01*
X36222993Y-173689504D01*
X36200471Y-173681446D01*
X36178847Y-173671218D01*
X36158330Y-173658921D01*
X36139117Y-173644671D01*
X36121393Y-173628607D01*
X36105329Y-173610883D01*
X36091079Y-173591670D01*
X36078782Y-173571153D01*
X36068554Y-173549529D01*
X36060496Y-173527007D01*
X36054684Y-173503803D01*
X36051174Y-173480142D01*
X36050000Y-173456250D01*
X36050000Y-172543750D01*
X36051174Y-172519858D01*
X36054684Y-172496197D01*
X36060496Y-172472993D01*
X36068554Y-172450471D01*
X36078782Y-172428847D01*
X36091079Y-172408330D01*
X36105329Y-172389117D01*
X36121393Y-172371393D01*
X36139117Y-172355329D01*
X36158330Y-172341079D01*
X36178847Y-172328782D01*
X36200471Y-172318554D01*
X36222993Y-172310496D01*
X36246197Y-172304684D01*
X36269858Y-172301174D01*
X36293750Y-172300000D01*
X36781250Y-172300000D01*
X36805142Y-172301174D01*
X36805142Y-172301174D01*
G37*
D13*
G04 #@! TD*
G04 #@! TO.P,R10,1*
G04 #@! TO.N,/NTC+*
X36537500Y-173000000D03*
D21*
G04 #@! TO.P,U1,5*
G04 #@! TO.N,Net-(C2-Pad1)*
X32700000Y-183000000D03*
G04 #@! TO.P,U1,4*
G04 #@! TO.N,Net-(C3-Pad1)*
X33250000Y-183000000D03*
G04 #@! TO.P,U1,3*
X33800000Y-183000000D03*
G04 #@! TO.P,U1,2*
G04 #@! TO.N,Net-(L1-Pad1)*
X34350000Y-183000000D03*
D22*
G04 #@! TO.P,U1,6*
G04 #@! TO.N,Net-(J1-Pad2)*
X31850000Y-182800000D03*
G04 #@! TO.P,U1,12*
G04 #@! TO.N,Net-(SW1-Pad2)*
X31850000Y-180400000D03*
D23*
G04 #@! TO.P,U1,9*
G04 #@! TO.N,Net-(R1-Pad1)*
X31850000Y-181600000D03*
G04 #@! TO.P,U1,11*
G04 #@! TO.N,Net-(J2-Pad3)*
X31850000Y-180800000D03*
G04 #@! TO.P,U1,8*
G04 #@! TO.N,Net-(J6-Pad1)*
X31850000Y-182000000D03*
G04 #@! TO.P,U1,10*
G04 #@! TO.N,Net-(J2-Pad2)*
X31850000Y-181200000D03*
G04 #@! TO.P,U1,7*
G04 #@! TO.N,Net-(J1-Pad3)*
X31850000Y-182400000D03*
D22*
G04 #@! TO.P,U1,26*
G04 #@! TO.N,Net-(D2-Pad1)*
X35750000Y-182800000D03*
D23*
G04 #@! TO.P,U1,22*
G04 #@! TO.N,Net-(L1-Pad2)*
X35750000Y-181200000D03*
G04 #@! TO.P,U1,24*
G04 #@! TO.N,Net-(D4-Pad1)*
X35750000Y-182000000D03*
G04 #@! TO.P,U1,21*
G04 #@! TO.N,/VBATT*
X35750000Y-180800000D03*
D22*
G04 #@! TO.P,U1,20*
G04 #@! TO.N,Net-(U1-Pad20)*
X35750000Y-180400000D03*
D23*
G04 #@! TO.P,U1,23*
G04 #@! TO.N,Net-(D5-Pad1)*
X35750000Y-181600000D03*
G04 #@! TO.P,U1,25*
G04 #@! TO.N,Net-(D3-Pad1)*
X35750000Y-182400000D03*
D24*
G04 #@! TO.P,U1,13*
G04 #@! TO.N,Net-(C5-Pad1)*
X32600000Y-179825000D03*
G04 #@! TO.P,U1,14*
G04 #@! TO.N,Net-(R3-Pad1)*
X33000000Y-179825000D03*
G04 #@! TO.P,U1,15*
G04 #@! TO.N,Net-(R2-Pad1)*
X33400000Y-179825000D03*
G04 #@! TO.P,U1,16*
G04 #@! TO.N,VCC*
X33800000Y-179825000D03*
G04 #@! TO.P,U1,17*
G04 #@! TO.N,GNDA*
X34200000Y-179825000D03*
G04 #@! TO.P,U1,18*
G04 #@! TO.N,/VNTC*
X34600000Y-179825000D03*
G04 #@! TO.P,U1,19*
G04 #@! TO.N,/NTC+*
X35000000Y-179825000D03*
D25*
G04 #@! TO.P,U1,1*
G04 #@! TO.N,GNDA*
X34900000Y-183000000D03*
D12*
G04 #@! TD*
G04 #@! TO.N,GNDA*
G04 #@! TO.C,U1*
G36*
X34900000Y-182100000D02*
X35050000Y-182250000D01*
X35050000Y-183900000D01*
X34750000Y-183900000D01*
X34750000Y-182100000D01*
X34900000Y-182100000D01*
X34900000Y-182100000D01*
G37*
D26*
G04 #@! TO.N,VCC*
X23000000Y-185800000D03*
X26600000Y-186000000D03*
X33400000Y-175800000D03*
X30200000Y-186000000D03*
X33200000Y-186112079D03*
D27*
G04 #@! TO.N,GNDA*
X35600000Y-183600000D03*
D26*
X31400000Y-175800000D03*
X36800000Y-174800000D03*
X34428610Y-178520183D03*
D27*
G04 #@! TO.N,Net-(C3-Pad1)*
X34800000Y-181000000D03*
X34100000Y-181000000D03*
X33400000Y-181000000D03*
D26*
G04 #@! TO.N,Net-(D2-Pad1)*
X24000000Y-185800000D03*
D27*
X36182840Y-184255184D03*
D26*
G04 #@! TO.N,Net-(D3-Pad1)*
X27593870Y-185980032D03*
D27*
X36883891Y-183800000D03*
D26*
G04 #@! TO.N,Net-(D4-Pad1)*
X31400000Y-186000000D03*
D27*
X37218837Y-184586617D03*
D26*
G04 #@! TO.N,Net-(J2-Pad2)*
X30386856Y-180971390D03*
G04 #@! TO.N,Net-(J2-Pad3)*
X29067202Y-180061709D03*
D27*
G04 #@! TO.N,Net-(J6-Pad1)*
X29200000Y-181600000D03*
G04 #@! TD*
D28*
G04 #@! TO.N,VCC*
X34337500Y-176737500D02*
X33400000Y-175800000D01*
X34400000Y-176737500D02*
X34337500Y-176737500D01*
D29*
X22800000Y-187137500D02*
X22737500Y-187200000D01*
X23000000Y-185800000D02*
X23000000Y-187137500D01*
X26400000Y-187062500D02*
X26537500Y-187200000D01*
X26600000Y-186000000D02*
X26600000Y-187062500D01*
X30000000Y-187062500D02*
X30137500Y-187200000D01*
X30200000Y-186000000D02*
X30200000Y-187062500D01*
D28*
X34400000Y-177618463D02*
X34400000Y-176737500D01*
X33800009Y-178218454D02*
X34400000Y-177618463D01*
X33800009Y-178826576D02*
X33800009Y-178218454D01*
X33800000Y-178826585D02*
X33800009Y-178826576D01*
X33800000Y-179825000D02*
X33800000Y-178826585D01*
D29*
X33937500Y-187200000D02*
X33000000Y-186262500D01*
X33000000Y-186262500D02*
X33000000Y-186112079D01*
D30*
G04 #@! TO.N,GNDA*
X26637500Y-179700000D02*
X27000000Y-180062500D01*
X24462500Y-179700000D02*
X26637500Y-179700000D01*
D28*
X29200000Y-174862500D02*
X30400000Y-174862500D01*
X28600000Y-175462500D02*
X29200000Y-174862500D01*
X30400000Y-174862500D02*
X32400000Y-174862500D01*
X34400000Y-174862500D02*
X32400000Y-174862500D01*
X31337500Y-175800000D02*
X30400000Y-174862500D01*
X31400000Y-175800000D02*
X31337500Y-175800000D01*
X31462500Y-175800000D02*
X32400000Y-174862500D01*
X31400000Y-175800000D02*
X31462500Y-175800000D01*
X36800000Y-175862500D02*
X36800000Y-174800000D01*
X34200000Y-178600000D02*
X34295190Y-178504810D01*
X34200000Y-179625000D02*
X34200000Y-178600000D01*
X34200000Y-179825000D02*
X34200000Y-178748793D01*
X34200000Y-178748793D02*
X34428610Y-178520183D01*
X27600000Y-175462500D02*
X28600000Y-175462500D01*
X26600000Y-176462500D02*
X27600000Y-175462500D01*
X24462500Y-179700000D02*
X24462500Y-178500000D01*
X34900000Y-183000000D02*
X34900000Y-183100000D01*
D31*
X35500000Y-183600000D02*
X34900000Y-183000000D01*
X35600000Y-183600000D02*
X35500000Y-183600000D01*
D29*
G04 #@! TO.N,Net-(C2-Pad1)*
X26637500Y-182300000D02*
X27000000Y-181937500D01*
X24462500Y-182300000D02*
X26637500Y-182300000D01*
D31*
X32700000Y-183750000D02*
X32700000Y-183000000D01*
D32*
X27000000Y-181937500D02*
X28800000Y-183737500D01*
X28800000Y-183737500D02*
X28800000Y-184200000D01*
X28800000Y-184200000D02*
X29400000Y-184800000D01*
X29400000Y-184800000D02*
X32400000Y-184800000D01*
X32400000Y-184800000D02*
X32600000Y-184600000D01*
D31*
X32700000Y-184500000D02*
X32700000Y-183000000D01*
X32400000Y-184800000D02*
X32700000Y-184500000D01*
D28*
G04 #@! TO.N,Net-(C5-Pad1)*
X29400000Y-177337500D02*
X28600000Y-177337500D01*
X29516110Y-177453610D02*
X29400000Y-177337500D01*
X32600000Y-179825000D02*
X32600000Y-179400000D01*
X32600000Y-179400000D02*
X30653610Y-177453610D01*
X30653610Y-177453610D02*
X29516110Y-177453610D01*
D29*
G04 #@! TO.N,/VBATT*
X36875000Y-177662500D02*
X36800000Y-177737500D01*
D32*
X36800000Y-178325000D02*
X36800000Y-177737500D01*
X36800000Y-178662500D02*
X36800000Y-178325000D01*
X38200000Y-180062500D02*
X36800000Y-178662500D01*
D28*
X37462500Y-180800000D02*
X38200000Y-180062500D01*
X35750000Y-180800000D02*
X37462500Y-180800000D01*
D32*
X36962500Y-177737500D02*
X38900000Y-175800000D01*
X36800000Y-177737500D02*
X36962500Y-177737500D01*
D28*
G04 #@! TO.N,Net-(D2-Pad1)*
X36182840Y-183895974D02*
X36182840Y-184255184D01*
X36182840Y-183032840D02*
X36182840Y-183895974D01*
X35950000Y-182800000D02*
X36182840Y-183032840D01*
X35750000Y-182800000D02*
X35950000Y-182800000D01*
D31*
X22900000Y-189000000D02*
X22900000Y-188950000D01*
X23600001Y-188499999D02*
X23100000Y-189000000D01*
X23600001Y-186199999D02*
X23600001Y-188499999D01*
X24000000Y-185800000D02*
X23600001Y-186199999D01*
D28*
G04 #@! TO.N,Net-(D2-Pad2)*
X20800000Y-187262500D02*
X20862500Y-187200000D01*
X20800000Y-189000000D02*
X20800000Y-187262500D01*
G04 #@! TO.N,Net-(D3-Pad1)*
X35750000Y-182400000D02*
X36252400Y-182400000D01*
X36883891Y-183440790D02*
X36883891Y-183800000D01*
X36252400Y-182400000D02*
X36883891Y-183031491D01*
X36883891Y-183031491D02*
X36883891Y-183440790D01*
D31*
X26700000Y-189000000D02*
X26700000Y-188950000D01*
X27470190Y-188429810D02*
X26900000Y-189000000D01*
X27470190Y-186103712D02*
X27470190Y-188429810D01*
X27593870Y-185980032D02*
X27470190Y-186103712D01*
G04 #@! TO.N,Net-(D3-Pad2)*
X24362500Y-188937500D02*
X24300000Y-189000000D01*
X24662500Y-187200000D02*
X24662500Y-188937500D01*
G04 #@! TO.N,Net-(D4-Pad2)*
X28262500Y-187200000D02*
X28262500Y-188862500D01*
G04 #@! TO.N,Net-(D4-Pad1)*
X30900000Y-188600000D02*
X30500000Y-189000000D01*
D28*
X35750000Y-182000000D02*
X36359210Y-182000000D01*
X37218837Y-184227407D02*
X37218837Y-184586617D01*
X36359210Y-182000000D02*
X37366579Y-183007369D01*
X37366579Y-184079665D02*
X37218837Y-184227407D01*
X37366579Y-183007369D02*
X37366579Y-184079665D01*
D31*
X30700000Y-188195200D02*
X30700000Y-189000000D01*
X30929810Y-187965390D02*
X30700000Y-188195200D01*
X30929810Y-186470190D02*
X30929810Y-187965390D01*
X31400000Y-186000000D02*
X30929810Y-186470190D01*
D28*
G04 #@! TO.N,Net-(D5-Pad1)*
X36494482Y-181600000D02*
X37671390Y-182776908D01*
X37671390Y-182776908D02*
X37671389Y-183243543D01*
X37671389Y-183243543D02*
X37671389Y-184418957D01*
X37671389Y-184418957D02*
X37856389Y-184603957D01*
X37666399Y-184867119D02*
X37666399Y-188000083D01*
X37856389Y-184677129D02*
X37666399Y-184867119D01*
X35750000Y-181600000D02*
X36494482Y-181600000D01*
X37666399Y-188000083D02*
X36666482Y-189000000D01*
X36666482Y-189000000D02*
X34800000Y-189000000D01*
X37856389Y-184603957D02*
X37856389Y-184677129D01*
D31*
G04 #@! TO.N,Net-(D5-Pad2)*
X32200000Y-187337500D02*
X32062500Y-187200000D01*
X32200000Y-189000000D02*
X32200000Y-187337500D01*
D28*
G04 #@! TO.N,Net-(J1-Pad2)*
X31347600Y-182800000D02*
X31157222Y-182609622D01*
X31157222Y-182609622D02*
X29064303Y-182609622D01*
X29064303Y-182609622D02*
X27654680Y-181199999D01*
X26200001Y-181199999D02*
X25750000Y-181650000D01*
X25289900Y-181650000D02*
X24462500Y-181650000D01*
X31850000Y-182800000D02*
X31347600Y-182800000D01*
X27654680Y-181199999D02*
X26200001Y-181199999D01*
X25750000Y-181650000D02*
X25289900Y-181650000D01*
G04 #@! TO.N,Net-(J1-Pad3)*
X27780936Y-180895188D02*
X29190559Y-182304811D01*
X24462500Y-181000000D02*
X25289900Y-181000000D01*
X31283478Y-182304811D02*
X31378667Y-182400000D01*
X25394712Y-180895188D02*
X27780936Y-180895188D01*
X31378667Y-182400000D02*
X31850000Y-182400000D01*
X25289900Y-181000000D02*
X25394712Y-180895188D01*
X29190559Y-182304811D02*
X31283478Y-182304811D01*
G04 #@! TO.N,Net-(J2-Pad2)*
X30615466Y-181200000D02*
X30386856Y-180971390D01*
X31850000Y-181200000D02*
X30615466Y-181200000D01*
G04 #@! TO.N,Net-(J2-Pad3)*
X29249980Y-180244487D02*
X29067202Y-180061709D01*
X30590285Y-180244487D02*
X29249980Y-180244487D01*
X31850000Y-180800000D02*
X31145798Y-180800000D01*
X31145798Y-180800000D02*
X30590285Y-180244487D01*
D29*
G04 #@! TO.N,Net-(L1-Pad1)*
X34350000Y-182400000D02*
X34350000Y-184087500D01*
D32*
X36015000Y-185540000D02*
X36015000Y-186900000D01*
X34925000Y-184450000D02*
X36015000Y-185540000D01*
D31*
X34712500Y-184450000D02*
X34925000Y-184450000D01*
X34350000Y-184087500D02*
X34712500Y-184450000D01*
D32*
G04 #@! TO.N,Net-(L1-Pad2)*
X38200000Y-183462500D02*
X38200000Y-181937500D01*
D28*
X37462500Y-181200000D02*
X38200000Y-181937500D01*
X35750000Y-181200000D02*
X37462500Y-181200000D01*
D32*
X38385000Y-183647500D02*
X38385000Y-186900000D01*
X38200000Y-183462500D02*
X38385000Y-183647500D01*
D28*
G04 #@! TO.N,Net-(R1-Pad1)*
X29905518Y-181600000D02*
X28995829Y-180690311D01*
X28995829Y-180690311D02*
X28765472Y-180690311D01*
X28765472Y-180690311D02*
X28438600Y-180363439D01*
X28438600Y-180363439D02*
X28438600Y-180133082D01*
X26643018Y-178337500D02*
X26600000Y-178337500D01*
X28438600Y-180133082D02*
X26643018Y-178337500D01*
X31850000Y-181600000D02*
X29905518Y-181600000D01*
G04 #@! TO.N,Net-(R2-Pad1)*
X32956237Y-177293737D02*
X32400000Y-176737500D01*
X33395191Y-177732691D02*
X32956237Y-177293737D01*
X33395191Y-179220191D02*
X33395191Y-177732691D01*
X33400000Y-179225000D02*
X33395191Y-179220191D01*
X33400000Y-179825000D02*
X33400000Y-179225000D01*
G04 #@! TO.N,Net-(R3-Pad1)*
X30989900Y-176937500D02*
X33000000Y-178947600D01*
X33000000Y-178947600D02*
X33000000Y-179625000D01*
X30000000Y-176937500D02*
X30989900Y-176937500D01*
G04 #@! TO.N,/VNTC*
X35328610Y-178511658D02*
X35328610Y-173866110D01*
X35218737Y-173756237D02*
X34662500Y-173200000D01*
X34600000Y-179240268D02*
X35328610Y-178511658D01*
X35328610Y-173866110D02*
X35218737Y-173756237D01*
X34600000Y-179825000D02*
X34600000Y-179240268D01*
D29*
G04 #@! TO.N,/NTC+*
X38400000Y-173200000D02*
X38600000Y-173400000D01*
X36537500Y-173200000D02*
X38400000Y-173200000D01*
D28*
X35000000Y-179400000D02*
X35000000Y-179825000D01*
X35871390Y-173866110D02*
X35871390Y-178528610D01*
X36537500Y-173200000D02*
X35871390Y-173866110D01*
X35871390Y-178528610D02*
X35000000Y-179400000D01*
G04 #@! TO.N,Net-(SW1-Pad2)*
X26150000Y-174650000D02*
X26425000Y-174650000D01*
X25200000Y-175600000D02*
X26150000Y-174650000D01*
X25200000Y-177400000D02*
X25200000Y-175600000D01*
X27294482Y-177400000D02*
X25200000Y-177400000D01*
X29673083Y-179778601D02*
X27294482Y-177400000D01*
X30926201Y-179778601D02*
X29673083Y-179778601D01*
X31547600Y-180400000D02*
X30926201Y-179778601D01*
X31850000Y-180400000D02*
X31547600Y-180400000D01*
G04 #@! TO.N,Net-(J6-Pad1)*
X29600000Y-182000000D02*
X29200000Y-181600000D01*
X31850000Y-182000000D02*
X29600000Y-182000000D01*
G04 #@! TD*
D33*
G04 #@! TO.N,GNDA*
G36*
X39544000Y-189544000D02*
X35329712Y-189544000D01*
X35338464Y-189500000D01*
X35338464Y-189457200D01*
X36621452Y-189457200D01*
X36666482Y-189466157D01*
X36711512Y-189457200D01*
X36844873Y-189430673D01*
X36996105Y-189329623D01*
X37021614Y-189291446D01*
X37515914Y-188797147D01*
X37536106Y-188898659D01*
X37620314Y-189024686D01*
X37746341Y-189108894D01*
X37895000Y-189138464D01*
X38875000Y-189138464D01*
X39023659Y-189108894D01*
X39149686Y-189024686D01*
X39233894Y-188898659D01*
X39263464Y-188750000D01*
X39263464Y-185050000D01*
X39233894Y-184901341D01*
X39149686Y-184775314D01*
X39066000Y-184719397D01*
X39066000Y-183714569D01*
X39079341Y-183647500D01*
X39049533Y-183497648D01*
X39026487Y-183381787D01*
X38943240Y-183257200D01*
X38913965Y-183213386D01*
X38913963Y-183213384D01*
X38881000Y-183164052D01*
X38881000Y-182768759D01*
X38898188Y-182765340D01*
X39103293Y-182628293D01*
X39240340Y-182423188D01*
X39288464Y-182181250D01*
X39288464Y-181693750D01*
X39240340Y-181451812D01*
X39103293Y-181246707D01*
X38898188Y-181109660D01*
X38656250Y-181061536D01*
X37970614Y-181061536D01*
X37909078Y-181000000D01*
X37970614Y-180938464D01*
X38656250Y-180938464D01*
X38898188Y-180890340D01*
X39103293Y-180753293D01*
X39240340Y-180548188D01*
X39288464Y-180306250D01*
X39288464Y-179818750D01*
X39240340Y-179576812D01*
X39103293Y-179371707D01*
X38898188Y-179234660D01*
X38656250Y-179186536D01*
X38287115Y-179186536D01*
X37598735Y-178498157D01*
X37703293Y-178428293D01*
X37840340Y-178223188D01*
X37888464Y-177981250D01*
X37888464Y-177774614D01*
X38524418Y-177138660D01*
X38625404Y-177180490D01*
X39174596Y-177180490D01*
X39544001Y-177027478D01*
X39544000Y-189544000D01*
X39544000Y-189544000D01*
G37*
X39544000Y-189544000D02*
X35329712Y-189544000D01*
X35338464Y-189500000D01*
X35338464Y-189457200D01*
X36621452Y-189457200D01*
X36666482Y-189466157D01*
X36711512Y-189457200D01*
X36844873Y-189430673D01*
X36996105Y-189329623D01*
X37021614Y-189291446D01*
X37515914Y-188797147D01*
X37536106Y-188898659D01*
X37620314Y-189024686D01*
X37746341Y-189108894D01*
X37895000Y-189138464D01*
X38875000Y-189138464D01*
X39023659Y-189108894D01*
X39149686Y-189024686D01*
X39233894Y-188898659D01*
X39263464Y-188750000D01*
X39263464Y-185050000D01*
X39233894Y-184901341D01*
X39149686Y-184775314D01*
X39066000Y-184719397D01*
X39066000Y-183714569D01*
X39079341Y-183647500D01*
X39049533Y-183497648D01*
X39026487Y-183381787D01*
X38943240Y-183257200D01*
X38913965Y-183213386D01*
X38913963Y-183213384D01*
X38881000Y-183164052D01*
X38881000Y-182768759D01*
X38898188Y-182765340D01*
X39103293Y-182628293D01*
X39240340Y-182423188D01*
X39288464Y-182181250D01*
X39288464Y-181693750D01*
X39240340Y-181451812D01*
X39103293Y-181246707D01*
X38898188Y-181109660D01*
X38656250Y-181061536D01*
X37970614Y-181061536D01*
X37909078Y-181000000D01*
X37970614Y-180938464D01*
X38656250Y-180938464D01*
X38898188Y-180890340D01*
X39103293Y-180753293D01*
X39240340Y-180548188D01*
X39288464Y-180306250D01*
X39288464Y-179818750D01*
X39240340Y-179576812D01*
X39103293Y-179371707D01*
X38898188Y-179234660D01*
X38656250Y-179186536D01*
X38287115Y-179186536D01*
X37598735Y-178498157D01*
X37703293Y-178428293D01*
X37840340Y-178223188D01*
X37888464Y-177981250D01*
X37888464Y-177774614D01*
X38524418Y-177138660D01*
X38625404Y-177180490D01*
X39174596Y-177180490D01*
X39544001Y-177027478D01*
X39544000Y-189544000D01*
G36*
X33786536Y-172543750D02*
X33786536Y-173456250D01*
X33834660Y-173698188D01*
X33971707Y-173903293D01*
X34176812Y-174040340D01*
X34418750Y-174088464D01*
X34871411Y-174088464D01*
X34871411Y-175864552D01*
X34856250Y-175861536D01*
X34181000Y-175861536D01*
X34181000Y-175644649D01*
X34062100Y-175357599D01*
X33842401Y-175137900D01*
X33555351Y-175019000D01*
X33244649Y-175019000D01*
X32957599Y-175137900D01*
X32737900Y-175357599D01*
X32619000Y-175644649D01*
X32619000Y-175861536D01*
X31943750Y-175861536D01*
X31701812Y-175909660D01*
X31496707Y-176046707D01*
X31400000Y-176191439D01*
X31303293Y-176046707D01*
X31098188Y-175909660D01*
X30856250Y-175861536D01*
X29943750Y-175861536D01*
X29701812Y-175909660D01*
X29496707Y-176046707D01*
X29359660Y-176251812D01*
X29311536Y-176493750D01*
X29311536Y-176518579D01*
X29298188Y-176509660D01*
X29056250Y-176461536D01*
X28143750Y-176461536D01*
X27901812Y-176509660D01*
X27696707Y-176646707D01*
X27559660Y-176851812D01*
X27528846Y-177006727D01*
X27472873Y-176969327D01*
X27339512Y-176942800D01*
X27294482Y-176933843D01*
X27249452Y-176942800D01*
X25657200Y-176942800D01*
X25657200Y-175789378D01*
X25908114Y-175538464D01*
X27200000Y-175538464D01*
X27348659Y-175508894D01*
X27474686Y-175424686D01*
X27558894Y-175298659D01*
X27588464Y-175150000D01*
X27588464Y-174150000D01*
X27558894Y-174001341D01*
X27474686Y-173875314D01*
X27348659Y-173791106D01*
X27200000Y-173761536D01*
X25650000Y-173761536D01*
X25501341Y-173791106D01*
X25375314Y-173875314D01*
X25291106Y-174001341D01*
X25261536Y-174150000D01*
X25261536Y-174891886D01*
X24908552Y-175244870D01*
X24870378Y-175270377D01*
X24844871Y-175308551D01*
X24844870Y-175308552D01*
X24769327Y-175421610D01*
X24733843Y-175600000D01*
X24742801Y-175645035D01*
X24742800Y-177354970D01*
X24733843Y-177400000D01*
X24769327Y-177578391D01*
X24866894Y-177724410D01*
X24870377Y-177729623D01*
X25021609Y-177830673D01*
X25200000Y-177866157D01*
X25245030Y-177857200D01*
X25597821Y-177857200D01*
X25559660Y-177914312D01*
X25511536Y-178156250D01*
X25511536Y-178643750D01*
X25559660Y-178885688D01*
X25696707Y-179090793D01*
X25901812Y-179227840D01*
X26143750Y-179275964D01*
X26934904Y-179275964D01*
X27980728Y-180321788D01*
X27972443Y-180363439D01*
X27981400Y-180408468D01*
X27997641Y-180490115D01*
X27959327Y-180464515D01*
X27825966Y-180437988D01*
X27780936Y-180429031D01*
X27735906Y-180437988D01*
X25525964Y-180437988D01*
X25525964Y-180150000D01*
X25496394Y-180001341D01*
X25412186Y-179875314D01*
X25286159Y-179791106D01*
X25137500Y-179761536D01*
X23787500Y-179761536D01*
X23638841Y-179791106D01*
X23512814Y-179875314D01*
X23428606Y-180001341D01*
X23399036Y-180150000D01*
X23399036Y-180550000D01*
X23423900Y-180675000D01*
X23399036Y-180800000D01*
X23399036Y-181200000D01*
X23423900Y-181325000D01*
X23399036Y-181450000D01*
X23399036Y-181850000D01*
X23423900Y-181975000D01*
X23399036Y-182100000D01*
X23399036Y-182500000D01*
X23428606Y-182648659D01*
X23512814Y-182774686D01*
X23638841Y-182858894D01*
X23787500Y-182888464D01*
X25137500Y-182888464D01*
X25286159Y-182858894D01*
X25327906Y-182831000D01*
X26016692Y-182831000D01*
X25629677Y-183218015D01*
X25419510Y-183725404D01*
X25419510Y-184274596D01*
X25629677Y-184781985D01*
X26018015Y-185170323D01*
X26290091Y-185283020D01*
X26157599Y-185337900D01*
X25937900Y-185557599D01*
X25819000Y-185844649D01*
X25819000Y-186155351D01*
X25870865Y-186280565D01*
X25846707Y-186296707D01*
X25709660Y-186501812D01*
X25661536Y-186743750D01*
X25661536Y-187656250D01*
X25709660Y-187898188D01*
X25846707Y-188103293D01*
X26051812Y-188240340D01*
X26151963Y-188260261D01*
X26091106Y-188351341D01*
X26061536Y-188500000D01*
X26061536Y-189500000D01*
X26070288Y-189544000D01*
X25329712Y-189544000D01*
X25338464Y-189500000D01*
X25338464Y-188500000D01*
X25308894Y-188351341D01*
X25224686Y-188225314D01*
X25197681Y-188207270D01*
X25353293Y-188103293D01*
X25490340Y-187898188D01*
X25538464Y-187656250D01*
X25538464Y-186743750D01*
X25490340Y-186501812D01*
X25353293Y-186296707D01*
X25148188Y-186159660D01*
X24906250Y-186111536D01*
X24716306Y-186111536D01*
X24781000Y-185955351D01*
X24781000Y-185644649D01*
X24662100Y-185357599D01*
X24442401Y-185137900D01*
X24155351Y-185019000D01*
X23844649Y-185019000D01*
X23557599Y-185137900D01*
X23500000Y-185195499D01*
X23442401Y-185137900D01*
X23155351Y-185019000D01*
X22844649Y-185019000D01*
X22557599Y-185137900D01*
X22337900Y-185357599D01*
X22219000Y-185644649D01*
X22219000Y-185955351D01*
X22299683Y-186150138D01*
X22251812Y-186159660D01*
X22046707Y-186296707D01*
X21909660Y-186501812D01*
X21861536Y-186743750D01*
X21861536Y-187656250D01*
X21909660Y-187898188D01*
X22046707Y-188103293D01*
X22251812Y-188240340D01*
X22351963Y-188260261D01*
X22291106Y-188351341D01*
X22261536Y-188500000D01*
X22261536Y-189500000D01*
X22270288Y-189544000D01*
X21529712Y-189544000D01*
X21538464Y-189500000D01*
X21538464Y-188500000D01*
X21508894Y-188351341D01*
X21424686Y-188225314D01*
X21397681Y-188207270D01*
X21553293Y-188103293D01*
X21690340Y-187898188D01*
X21738464Y-187656250D01*
X21738464Y-186743750D01*
X21690340Y-186501812D01*
X21553293Y-186296707D01*
X21348188Y-186159660D01*
X21106250Y-186111536D01*
X20618750Y-186111536D01*
X20456000Y-186143909D01*
X20456000Y-175538464D01*
X21950000Y-175538464D01*
X22098659Y-175508894D01*
X22224686Y-175424686D01*
X22308894Y-175298659D01*
X22338464Y-175150000D01*
X22338464Y-174150000D01*
X22308894Y-174001341D01*
X22224686Y-173875314D01*
X22098659Y-173791106D01*
X21950000Y-173761536D01*
X20456000Y-173761536D01*
X20456000Y-172456000D01*
X33803990Y-172456000D01*
X33786536Y-172543750D01*
X33786536Y-172543750D01*
G37*
X33786536Y-172543750D02*
X33786536Y-173456250D01*
X33834660Y-173698188D01*
X33971707Y-173903293D01*
X34176812Y-174040340D01*
X34418750Y-174088464D01*
X34871411Y-174088464D01*
X34871411Y-175864552D01*
X34856250Y-175861536D01*
X34181000Y-175861536D01*
X34181000Y-175644649D01*
X34062100Y-175357599D01*
X33842401Y-175137900D01*
X33555351Y-175019000D01*
X33244649Y-175019000D01*
X32957599Y-175137900D01*
X32737900Y-175357599D01*
X32619000Y-175644649D01*
X32619000Y-175861536D01*
X31943750Y-175861536D01*
X31701812Y-175909660D01*
X31496707Y-176046707D01*
X31400000Y-176191439D01*
X31303293Y-176046707D01*
X31098188Y-175909660D01*
X30856250Y-175861536D01*
X29943750Y-175861536D01*
X29701812Y-175909660D01*
X29496707Y-176046707D01*
X29359660Y-176251812D01*
X29311536Y-176493750D01*
X29311536Y-176518579D01*
X29298188Y-176509660D01*
X29056250Y-176461536D01*
X28143750Y-176461536D01*
X27901812Y-176509660D01*
X27696707Y-176646707D01*
X27559660Y-176851812D01*
X27528846Y-177006727D01*
X27472873Y-176969327D01*
X27339512Y-176942800D01*
X27294482Y-176933843D01*
X27249452Y-176942800D01*
X25657200Y-176942800D01*
X25657200Y-175789378D01*
X25908114Y-175538464D01*
X27200000Y-175538464D01*
X27348659Y-175508894D01*
X27474686Y-175424686D01*
X27558894Y-175298659D01*
X27588464Y-175150000D01*
X27588464Y-174150000D01*
X27558894Y-174001341D01*
X27474686Y-173875314D01*
X27348659Y-173791106D01*
X27200000Y-173761536D01*
X25650000Y-173761536D01*
X25501341Y-173791106D01*
X25375314Y-173875314D01*
X25291106Y-174001341D01*
X25261536Y-174150000D01*
X25261536Y-174891886D01*
X24908552Y-175244870D01*
X24870378Y-175270377D01*
X24844871Y-175308551D01*
X24844870Y-175308552D01*
X24769327Y-175421610D01*
X24733843Y-175600000D01*
X24742801Y-175645035D01*
X24742800Y-177354970D01*
X24733843Y-177400000D01*
X24769327Y-177578391D01*
X24866894Y-177724410D01*
X24870377Y-177729623D01*
X25021609Y-177830673D01*
X25200000Y-177866157D01*
X25245030Y-177857200D01*
X25597821Y-177857200D01*
X25559660Y-177914312D01*
X25511536Y-178156250D01*
X25511536Y-178643750D01*
X25559660Y-178885688D01*
X25696707Y-179090793D01*
X25901812Y-179227840D01*
X26143750Y-179275964D01*
X26934904Y-179275964D01*
X27980728Y-180321788D01*
X27972443Y-180363439D01*
X27981400Y-180408468D01*
X27997641Y-180490115D01*
X27959327Y-180464515D01*
X27825966Y-180437988D01*
X27780936Y-180429031D01*
X27735906Y-180437988D01*
X25525964Y-180437988D01*
X25525964Y-180150000D01*
X25496394Y-180001341D01*
X25412186Y-179875314D01*
X25286159Y-179791106D01*
X25137500Y-179761536D01*
X23787500Y-179761536D01*
X23638841Y-179791106D01*
X23512814Y-179875314D01*
X23428606Y-180001341D01*
X23399036Y-180150000D01*
X23399036Y-180550000D01*
X23423900Y-180675000D01*
X23399036Y-180800000D01*
X23399036Y-181200000D01*
X23423900Y-181325000D01*
X23399036Y-181450000D01*
X23399036Y-181850000D01*
X23423900Y-181975000D01*
X23399036Y-182100000D01*
X23399036Y-182500000D01*
X23428606Y-182648659D01*
X23512814Y-182774686D01*
X23638841Y-182858894D01*
X23787500Y-182888464D01*
X25137500Y-182888464D01*
X25286159Y-182858894D01*
X25327906Y-182831000D01*
X26016692Y-182831000D01*
X25629677Y-183218015D01*
X25419510Y-183725404D01*
X25419510Y-184274596D01*
X25629677Y-184781985D01*
X26018015Y-185170323D01*
X26290091Y-185283020D01*
X26157599Y-185337900D01*
X25937900Y-185557599D01*
X25819000Y-185844649D01*
X25819000Y-186155351D01*
X25870865Y-186280565D01*
X25846707Y-186296707D01*
X25709660Y-186501812D01*
X25661536Y-186743750D01*
X25661536Y-187656250D01*
X25709660Y-187898188D01*
X25846707Y-188103293D01*
X26051812Y-188240340D01*
X26151963Y-188260261D01*
X26091106Y-188351341D01*
X26061536Y-188500000D01*
X26061536Y-189500000D01*
X26070288Y-189544000D01*
X25329712Y-189544000D01*
X25338464Y-189500000D01*
X25338464Y-188500000D01*
X25308894Y-188351341D01*
X25224686Y-188225314D01*
X25197681Y-188207270D01*
X25353293Y-188103293D01*
X25490340Y-187898188D01*
X25538464Y-187656250D01*
X25538464Y-186743750D01*
X25490340Y-186501812D01*
X25353293Y-186296707D01*
X25148188Y-186159660D01*
X24906250Y-186111536D01*
X24716306Y-186111536D01*
X24781000Y-185955351D01*
X24781000Y-185644649D01*
X24662100Y-185357599D01*
X24442401Y-185137900D01*
X24155351Y-185019000D01*
X23844649Y-185019000D01*
X23557599Y-185137900D01*
X23500000Y-185195499D01*
X23442401Y-185137900D01*
X23155351Y-185019000D01*
X22844649Y-185019000D01*
X22557599Y-185137900D01*
X22337900Y-185357599D01*
X22219000Y-185644649D01*
X22219000Y-185955351D01*
X22299683Y-186150138D01*
X22251812Y-186159660D01*
X22046707Y-186296707D01*
X21909660Y-186501812D01*
X21861536Y-186743750D01*
X21861536Y-187656250D01*
X21909660Y-187898188D01*
X22046707Y-188103293D01*
X22251812Y-188240340D01*
X22351963Y-188260261D01*
X22291106Y-188351341D01*
X22261536Y-188500000D01*
X22261536Y-189500000D01*
X22270288Y-189544000D01*
X21529712Y-189544000D01*
X21538464Y-189500000D01*
X21538464Y-188500000D01*
X21508894Y-188351341D01*
X21424686Y-188225314D01*
X21397681Y-188207270D01*
X21553293Y-188103293D01*
X21690340Y-187898188D01*
X21738464Y-187656250D01*
X21738464Y-186743750D01*
X21690340Y-186501812D01*
X21553293Y-186296707D01*
X21348188Y-186159660D01*
X21106250Y-186111536D01*
X20618750Y-186111536D01*
X20456000Y-186143909D01*
X20456000Y-175538464D01*
X21950000Y-175538464D01*
X22098659Y-175508894D01*
X22224686Y-175424686D01*
X22308894Y-175298659D01*
X22338464Y-175150000D01*
X22338464Y-174150000D01*
X22308894Y-174001341D01*
X22224686Y-173875314D01*
X22098659Y-173791106D01*
X21950000Y-173761536D01*
X20456000Y-173761536D01*
X20456000Y-172456000D01*
X33803990Y-172456000D01*
X33786536Y-172543750D01*
G36*
X35725641Y-183814358D02*
X35644513Y-183895486D01*
X35553438Y-184115360D01*
X35529813Y-184091735D01*
X35567952Y-183900000D01*
X35567952Y-183338464D01*
X35725640Y-183338464D01*
X35725641Y-183814358D01*
X35725641Y-183814358D01*
G37*
X35725641Y-183814358D02*
X35644513Y-183895486D01*
X35553438Y-184115360D01*
X35529813Y-184091735D01*
X35567952Y-183900000D01*
X35567952Y-183338464D01*
X35725640Y-183338464D01*
X35725641Y-183814358D01*
G36*
X34871410Y-178322279D02*
X34308552Y-178885138D01*
X34270378Y-178910645D01*
X34257200Y-178930367D01*
X34257200Y-178871651D01*
X34257209Y-178871606D01*
X34257209Y-178871605D01*
X34266166Y-178826576D01*
X34257209Y-178781546D01*
X34257209Y-178407832D01*
X34691446Y-177973595D01*
X34729623Y-177948086D01*
X34830673Y-177796854D01*
X34857200Y-177663493D01*
X34857200Y-177663492D01*
X34866157Y-177618464D01*
X34864823Y-177611759D01*
X34871410Y-177610448D01*
X34871410Y-178322279D01*
X34871410Y-178322279D01*
G37*
X34871410Y-178322279D02*
X34308552Y-178885138D01*
X34270378Y-178910645D01*
X34257200Y-178930367D01*
X34257200Y-178871651D01*
X34257209Y-178871606D01*
X34257209Y-178871605D01*
X34266166Y-178826576D01*
X34257209Y-178781546D01*
X34257209Y-178407832D01*
X34691446Y-177973595D01*
X34729623Y-177948086D01*
X34830673Y-177796854D01*
X34857200Y-177663493D01*
X34857200Y-177663492D01*
X34866157Y-177618464D01*
X34864823Y-177611759D01*
X34871410Y-177610448D01*
X34871410Y-178322279D01*
G36*
X37429677Y-174181985D02*
X37818015Y-174570323D01*
X38072117Y-174675575D01*
X37729677Y-175018015D01*
X37519510Y-175525404D01*
X37519510Y-176074596D01*
X37561340Y-176175582D01*
X36875386Y-176861536D01*
X36343750Y-176861536D01*
X36328590Y-176864551D01*
X36328590Y-174088464D01*
X36781250Y-174088464D01*
X37023188Y-174040340D01*
X37228293Y-173903293D01*
X37281349Y-173823889D01*
X37429677Y-174181985D01*
X37429677Y-174181985D01*
G37*
X37429677Y-174181985D02*
X37818015Y-174570323D01*
X38072117Y-174675575D01*
X37729677Y-175018015D01*
X37519510Y-175525404D01*
X37519510Y-176074596D01*
X37561340Y-176175582D01*
X36875386Y-176861536D01*
X36343750Y-176861536D01*
X36328590Y-176864551D01*
X36328590Y-174088464D01*
X36781250Y-174088464D01*
X37023188Y-174040340D01*
X37228293Y-173903293D01*
X37281349Y-173823889D01*
X37429677Y-174181985D01*
G04 #@! TO.N,Net-(C3-Pad1)*
G36*
X33300000Y-180738464D02*
X33500000Y-180738464D01*
X33557634Y-180727000D01*
X33642366Y-180727000D01*
X33700000Y-180738464D01*
X33900000Y-180738464D01*
X33957634Y-180727000D01*
X34042366Y-180727000D01*
X34100000Y-180738464D01*
X34300000Y-180738464D01*
X34357634Y-180727000D01*
X34442366Y-180727000D01*
X34500000Y-180738464D01*
X34700000Y-180738464D01*
X34757634Y-180727000D01*
X34842366Y-180727000D01*
X34900000Y-180738464D01*
X35011536Y-180738464D01*
X35011536Y-180900000D01*
X35031427Y-181000000D01*
X35011536Y-181100000D01*
X35011536Y-181180030D01*
X34280715Y-181711536D01*
X34200000Y-181711536D01*
X34051341Y-181741106D01*
X33925314Y-181825314D01*
X33841106Y-181951341D01*
X33811536Y-182100000D01*
X33811536Y-183773000D01*
X33238464Y-183773000D01*
X33238464Y-182100000D01*
X33208894Y-181951341D01*
X33127000Y-181828777D01*
X33127000Y-180733093D01*
X33157634Y-180727000D01*
X33242366Y-180727000D01*
X33300000Y-180738464D01*
X33300000Y-180738464D01*
G37*
X33300000Y-180738464D02*
X33500000Y-180738464D01*
X33557634Y-180727000D01*
X33642366Y-180727000D01*
X33700000Y-180738464D01*
X33900000Y-180738464D01*
X33957634Y-180727000D01*
X34042366Y-180727000D01*
X34100000Y-180738464D01*
X34300000Y-180738464D01*
X34357634Y-180727000D01*
X34442366Y-180727000D01*
X34500000Y-180738464D01*
X34700000Y-180738464D01*
X34757634Y-180727000D01*
X34842366Y-180727000D01*
X34900000Y-180738464D01*
X35011536Y-180738464D01*
X35011536Y-180900000D01*
X35031427Y-181000000D01*
X35011536Y-181100000D01*
X35011536Y-181180030D01*
X34280715Y-181711536D01*
X34200000Y-181711536D01*
X34051341Y-181741106D01*
X33925314Y-181825314D01*
X33841106Y-181951341D01*
X33811536Y-182100000D01*
X33811536Y-183773000D01*
X33238464Y-183773000D01*
X33238464Y-182100000D01*
X33208894Y-181951341D01*
X33127000Y-181828777D01*
X33127000Y-180733093D01*
X33157634Y-180727000D01*
X33242366Y-180727000D01*
X33300000Y-180738464D01*
G04 #@! TD*
M02*
